<?xml version="1.0" encoding="UTF-8"?> <svg xmlns="http://www.w3.org/2000/svg" width="160" height="50" viewBox="0 0 160 50" fill="none"><rect x="0.5" y="0.5" width="158.322" height="49" rx="13.5" fill="black"></rect><path d="M40.375 25.8549C40.3883 24.8242 40.6636 23.8136 41.1753 22.9171C41.6869 22.0207 42.4183 21.2675 43.3013 20.7276C42.7403 19.9309 42.0003 19.2753 41.14 18.8128C40.2796 18.3502 39.3227 18.0936 38.3451 18.0632C36.2599 17.8455 34.2384 19.304 33.1758 19.304C32.0926 19.304 30.4566 18.0848 28.6948 18.1208C27.5553 18.1574 26.4447 18.487 25.4713 19.0773C24.4979 19.6676 23.6949 20.4987 23.1404 21.4894C20.7388 25.6242 22.5302 31.7011 24.8307 35.0434C25.9817 36.68 27.3269 38.5082 29.0871 38.4434C30.8095 38.3723 31.4528 37.3512 33.5319 37.3512C35.5917 37.3512 36.1953 38.4434 37.9911 38.4022C39.8394 38.3723 41.0038 36.7583 42.1145 35.1061C42.9415 33.94 43.5778 32.6511 44 31.2873C42.9262 30.8356 42.0099 30.0797 41.3653 29.1137C40.7206 28.1476 40.3762 27.0143 40.375 25.8549Z" fill="white"></path><path d="M36.9826 15.8649C37.9903 14.6619 38.4868 13.1156 38.3665 11.5544C36.8269 11.7152 35.4048 12.447 34.3834 13.6038C33.8841 14.169 33.5016 14.8265 33.2579 15.5387C33.0142 16.251 32.9141 17.004 32.9632 17.7547C33.7333 17.7626 34.4951 17.5966 35.1913 17.2693C35.8875 16.9419 36.5 16.4618 36.9826 15.8649Z" fill="white"></path><path d="M58.7444 11.3284C59.1821 11.2971 59.6213 11.3629 60.0304 11.5209C60.4394 11.6789 60.8081 11.9252 61.1098 12.242C61.4115 12.5589 61.6388 12.9384 61.7752 13.3531C61.9116 13.7679 61.9537 14.2076 61.8985 14.6405C61.8985 16.7701 60.7411 17.9942 58.7444 17.9942H56.3232V11.3284H58.7444ZM57.3643 17.0515H58.6282C58.9409 17.0701 59.2539 17.0191 59.5443 16.9022C59.8348 16.7853 60.0954 16.6055 60.3071 16.3759C60.5189 16.1462 60.6765 15.8725 60.7684 15.5747C60.8604 15.2768 60.8844 14.9623 60.8387 14.6541C60.8811 14.3471 60.8546 14.0345 60.7613 13.7389C60.6679 13.4432 60.5099 13.1717 60.2986 12.9439C60.0874 12.7161 59.828 12.5376 59.5392 12.4211C59.2504 12.3047 58.9393 12.2532 58.6282 12.2703H57.3643V17.0515Z" fill="white"></path><path d="M63.0745 15.4773C63.0427 15.1467 63.0807 14.8131 63.1862 14.498C63.2916 14.1829 63.4621 13.8932 63.6867 13.6474C63.9113 13.4017 64.1851 13.2053 64.4905 13.071C64.7959 12.9366 65.1261 12.8672 65.4601 12.8672C65.794 12.8672 66.1243 12.9366 66.4297 13.071C66.7351 13.2053 67.0089 13.4017 67.2335 13.6474C67.4581 13.8932 67.6286 14.1829 67.734 14.498C67.8394 14.8131 67.8774 15.1467 67.8456 15.4773C67.878 15.8082 67.8405 16.1422 67.7353 16.4578C67.6302 16.7734 67.4598 17.0637 67.2351 17.3099C67.0105 17.5561 66.7365 17.7529 66.4308 17.8876C66.1251 18.0222 65.7944 18.0918 65.4601 18.0918C65.1257 18.0918 64.7951 18.0222 64.4894 17.8876C64.1837 17.7529 63.9097 17.5561 63.685 17.3099C63.4603 17.0637 63.29 16.7734 63.1848 16.4578C63.0797 16.1422 63.0421 15.8082 63.0745 15.4773ZM66.8188 15.4773C66.8188 14.3868 66.3262 13.7492 65.4617 13.7492C64.5939 13.7492 64.1058 14.3868 64.1058 15.4773C64.1058 16.5764 64.594 17.2092 65.4617 17.2092C66.3262 17.2091 66.8188 16.572 66.8188 15.4773Z" fill="white"></path><path d="M74.1875 17.9943H73.1519L72.1064 14.2894H72.0274L70.9863 17.9943H69.9605L68.5662 12.9639H69.5788L70.4849 16.8024H70.5595L71.5995 12.9639H72.5573L73.5973 16.8024H73.6763L74.578 12.9639H75.5764L74.1875 17.9943Z" fill="white"></path><path d="M76.7495 12.9642H77.7105V13.7634H77.7851C77.9117 13.4763 78.1251 13.2357 78.3957 13.0751C78.6663 12.9144 78.9806 12.8417 79.2947 12.8671C79.5408 12.8487 79.788 12.8856 80.0178 12.9751C80.2477 13.0646 80.4543 13.2044 80.6225 13.384C80.7906 13.5637 80.916 13.7787 80.9892 14.0131C81.0625 14.2475 81.0817 14.4953 81.0456 14.7381V17.9946H80.0473V14.9874C80.0473 14.179 79.694 13.777 78.9557 13.777C78.7886 13.7693 78.6218 13.7975 78.4667 13.8599C78.3116 13.9223 78.1719 14.0173 78.0572 14.1383C77.9424 14.2594 77.8554 14.4037 77.802 14.5614C77.7486 14.7191 77.7301 14.8864 77.7478 15.0518V17.9946H76.7495L76.7495 12.9642Z" fill="white"></path><path d="M82.6365 11H83.6348V17.9941H82.6365V11Z" fill="white"></path><path d="M85.0222 15.4773C84.9905 15.1467 85.0285 14.8132 85.134 14.4981C85.2394 14.1829 85.4099 13.8932 85.6346 13.6474C85.8592 13.4017 86.133 13.2053 86.4384 13.071C86.7438 12.9366 87.0741 12.8672 87.4081 12.8672C87.742 12.8672 88.0723 12.9366 88.3777 13.071C88.6832 13.2053 88.957 13.4017 89.1816 13.6474C89.4062 13.8932 89.5767 14.1829 89.6822 14.4981C89.7876 14.8132 89.8257 15.1467 89.7939 15.4773C89.8263 15.8083 89.7887 16.1423 89.6835 16.4579C89.5783 16.7735 89.4079 17.0638 89.1832 17.31C88.9585 17.5562 88.6845 17.753 88.3788 17.8876C88.0731 18.0223 87.7424 18.0918 87.4081 18.0918C87.0737 18.0918 86.7431 18.0223 86.4373 17.8876C86.1316 17.753 85.8576 17.5562 85.6329 17.31C85.4082 17.0638 85.2378 16.7735 85.1327 16.4579C85.0275 16.1423 84.9899 15.8083 85.0222 15.4773ZM88.7665 15.4773C88.7665 14.3869 88.2739 13.7493 87.4094 13.7493C86.5417 13.7493 86.0535 14.3869 86.0535 15.4774C86.0535 16.5765 86.5417 17.2092 87.4094 17.2092C88.2739 17.2092 88.7665 16.5721 88.7665 15.4773Z" fill="white"></path><path d="M90.8451 16.5721C90.8451 15.6666 91.5231 15.1446 92.7265 15.0704L94.0968 14.9918V14.5576C94.0968 14.0263 93.7435 13.7263 93.0612 13.7263C92.5039 13.7263 92.1177 13.9298 92.0069 14.2854H91.0404C91.1424 13.4214 91.9597 12.8672 93.1072 12.8672C94.3754 12.8672 95.0907 13.495 95.0907 14.5576V17.9947H94.1297V17.2877H94.0507C93.8904 17.5413 93.6652 17.7481 93.3983 17.8868C93.1314 18.0256 92.8322 18.0914 92.5313 18.0776C92.3189 18.0995 92.1043 18.077 91.9012 18.0114C91.6982 17.9459 91.5112 17.8387 91.3523 17.6968C91.1934 17.555 91.0662 17.3816 90.9789 17.1879C90.8915 16.9942 90.8459 16.7844 90.8451 16.5721ZM94.0968 16.1422V15.7217L92.8615 15.8002C92.1649 15.8466 91.8489 16.0822 91.8489 16.5257C91.8489 16.9784 92.2438 17.2419 92.7869 17.2419C92.946 17.2579 93.1068 17.242 93.2596 17.1949C93.4124 17.1479 93.5541 17.0708 93.6763 16.9682C93.7985 16.8656 93.8987 16.7396 93.9709 16.5977C94.0432 16.4558 94.086 16.3009 94.0968 16.1422Z" fill="white"></path><path d="M96.4026 15.4768C96.4026 13.8872 97.2243 12.8803 98.5024 12.8803C98.8185 12.8658 99.1323 12.9411 99.407 13.0974C99.6817 13.2537 99.9059 13.4845 100.054 13.7628H100.128V11H101.127V17.9941H100.17V17.1994H100.091C99.9318 17.4758 99.6997 17.7038 99.4197 17.8585C99.1397 18.0132 98.8225 18.0888 98.5024 18.077C97.2155 18.0771 96.4026 17.0701 96.4026 15.4768ZM97.4339 15.4768C97.4339 16.5437 97.9396 17.1858 98.7854 17.1858C99.6269 17.1858 100.147 16.5345 100.147 15.4811C100.147 14.4327 99.6214 13.7721 98.7854 13.7721C97.9451 13.7721 97.4339 14.4185 97.4339 15.4768Z" fill="white"></path><path d="M105.257 15.4773C105.225 15.1467 105.263 14.8131 105.369 14.498C105.474 14.1829 105.645 13.8932 105.869 13.6474C106.094 13.4017 106.368 13.2053 106.673 13.071C106.978 12.9366 107.309 12.8672 107.643 12.8672C107.977 12.8672 108.307 12.9366 108.612 13.071C108.918 13.2053 109.191 13.4017 109.416 13.6474C109.641 13.8932 109.811 14.1829 109.917 14.498C110.022 14.8131 110.06 15.1467 110.028 15.4773C110.061 15.8082 110.023 16.1422 109.918 16.4578C109.813 16.7734 109.642 17.0637 109.418 17.3099C109.193 17.5561 108.919 17.7529 108.613 17.8876C108.308 18.0222 107.977 18.0918 107.643 18.0918C107.308 18.0918 106.978 18.0222 106.672 17.8876C106.366 17.7529 106.092 17.5561 105.868 17.3099C105.643 17.0637 105.473 16.7734 105.367 16.4578C105.262 16.1422 105.225 15.8082 105.257 15.4773ZM109.001 15.4773C109.001 14.3868 108.509 13.7492 107.644 13.7492C106.777 13.7492 106.288 14.3868 106.288 15.4773C106.288 16.5764 106.777 17.2092 107.644 17.2092C108.509 17.2091 109.001 16.572 109.001 15.4773Z" fill="white"></path><path d="M111.368 12.9642H112.329V13.7634H112.403C112.53 13.4763 112.743 13.2357 113.014 13.0751C113.284 12.9144 113.599 12.8417 113.913 12.8671C114.159 12.8487 114.406 12.8856 114.636 12.9751C114.866 13.0646 115.072 13.2044 115.241 13.384C115.409 13.5637 115.534 13.7787 115.607 14.0131C115.681 14.2475 115.7 14.4953 115.664 14.7381V17.9946H114.665V14.9874C114.665 14.179 114.312 13.777 113.574 13.777C113.407 13.7693 113.24 13.7975 113.085 13.8599C112.93 13.9223 112.79 14.0173 112.675 14.1383C112.561 14.2594 112.474 14.4037 112.42 14.5614C112.367 14.7191 112.348 14.8864 112.366 15.0518V17.9946H111.368V12.9642Z" fill="white"></path><path d="M121.305 11.7115V12.9869H122.401V13.8231H121.305V16.4098C121.305 16.9367 121.523 17.1674 122.02 17.1674C122.147 17.167 122.274 17.1594 122.401 17.1445V17.9715C122.221 18.0034 122.04 18.0203 121.858 18.0222C120.747 18.0222 120.305 17.6338 120.305 16.6639V13.8231H119.502V12.9868H120.305V11.7115H121.305Z" fill="white"></path><path d="M123.764 11H124.754V13.7721H124.833C124.966 13.4824 125.185 13.2405 125.461 13.0792C125.737 12.918 126.056 12.8452 126.375 12.871C126.62 12.8577 126.865 12.8984 127.092 12.9901C127.319 13.0817 127.523 13.2221 127.69 13.4012C127.856 13.5803 127.981 13.7938 128.055 14.0263C128.129 14.2588 128.15 14.5047 128.117 14.7464V17.9941H127.118V14.9913C127.118 14.1878 126.742 13.7808 126.036 13.7808C125.865 13.7668 125.692 13.7903 125.531 13.8496C125.369 13.9088 125.223 14.0025 125.101 14.124C124.98 14.2454 124.887 14.3918 124.828 14.5528C124.77 14.7139 124.747 14.8856 124.763 15.0562V17.9941H123.764L123.764 11Z" fill="white"></path><path d="M133.938 16.636C133.803 17.0958 133.509 17.4935 133.108 17.7595C132.707 18.0256 132.225 18.143 131.746 18.0914C131.413 18.1001 131.082 18.0366 130.776 17.9053C130.47 17.7741 130.196 17.5781 129.973 17.331C129.751 17.084 129.586 16.7918 129.488 16.4747C129.391 16.1577 129.364 15.8233 129.41 15.4949C129.365 15.1655 129.392 14.8304 129.49 14.5124C129.587 14.1944 129.751 13.9008 129.973 13.6516C130.194 13.4024 130.466 13.2034 130.771 13.068C131.077 12.9326 131.408 12.8639 131.742 12.8668C133.149 12.8668 133.999 13.8231 133.999 15.4027V15.7491H130.426V15.8047C130.411 15.9893 130.434 16.1752 130.495 16.3503C130.556 16.5254 130.653 16.6859 130.78 16.8216C130.906 16.9573 131.06 17.0651 131.232 17.1382C131.403 17.2112 131.587 17.2479 131.774 17.2459C132.012 17.2744 132.254 17.2316 132.469 17.123C132.683 17.0144 132.86 16.8449 132.977 16.636L133.938 16.636ZM130.426 15.0149H132.982C132.994 14.846 132.971 14.6765 132.914 14.517C132.857 14.3576 132.766 14.2118 132.649 14.0891C132.532 13.9664 132.39 13.8694 132.233 13.8044C132.076 13.7394 131.907 13.7079 131.736 13.7117C131.564 13.7096 131.392 13.7418 131.232 13.8065C131.072 13.8713 130.927 13.9672 130.805 14.0886C130.683 14.2101 130.587 14.3546 130.522 14.5137C130.457 14.6728 130.424 14.8432 130.426 15.0149Z" fill="white"></path><path d="M61.8467 31.9046H56.5292L55.2523 35.6543H53L58.0366 21.7816H60.3766L65.4132 35.6543H63.1226L61.8467 31.9046ZM57.08 30.1744H61.2949L59.2171 24.089H59.1589L57.08 30.1744Z" fill="white"></path><path d="M76.2907 30.5979C76.2907 33.7409 74.5991 35.7603 72.0462 35.7603C71.3995 35.7939 70.7564 35.6458 70.1904 35.3328C69.6245 35.0199 69.1586 34.5548 68.8461 33.9907H68.7978V39.0004H66.7101V25.5402H68.7309V27.2224H68.7693C69.0962 26.6611 69.5699 26.1984 70.1402 25.8835C70.7105 25.5687 71.3559 25.4135 72.0078 25.4344C74.5892 25.4344 76.2907 27.4635 76.2907 30.5979ZM74.1449 30.5979C74.1449 28.5502 73.0807 27.2039 71.4571 27.2039C69.862 27.2039 68.789 28.5785 68.789 30.5979C68.789 32.6358 69.862 34.0006 71.4571 34.0006C73.0807 34.0006 74.1449 32.6641 74.1449 30.5979Z" fill="white"></path><path d="M87.4854 30.5976C87.4854 33.7407 85.7938 35.76 83.2409 35.76C82.5942 35.7937 81.9511 35.6455 81.3851 35.3326C80.8192 35.0196 80.3533 34.5545 80.0408 33.9905H79.9925V39.0002H77.9048V25.5399H79.9256V27.2222H79.964C80.2908 26.6609 80.7646 26.1982 81.3348 25.8833C81.9051 25.5684 82.5506 25.4132 83.2025 25.4341C85.7839 25.4341 87.4854 27.4633 87.4854 30.5976ZM85.3396 30.5976C85.3396 28.5499 84.2754 27.2036 82.6518 27.2036C81.0567 27.2036 79.9837 28.5783 79.9837 30.5976C79.9837 32.6355 81.0567 34.0003 82.6518 34.0003C84.2754 34.0003 85.3396 32.6639 85.3396 30.5976Z" fill="white"></path><path d="M94.8833 31.789C95.038 33.1647 96.3819 34.068 98.2184 34.068C99.9781 34.068 101.244 33.1646 101.244 31.9242C101.244 30.8474 100.481 30.2027 98.6726 29.7609L96.8646 29.3277C94.303 28.7124 93.1138 27.5211 93.1138 25.5879C93.1138 23.1944 95.2114 21.5503 98.1899 21.5503C101.138 21.5503 103.158 23.1944 103.226 25.5879H101.119C100.993 24.2035 99.842 23.3678 98.1602 23.3678C96.4784 23.3678 95.3276 24.2133 95.3276 25.4439C95.3276 26.4247 96.0626 27.0018 97.8607 27.4436L99.3977 27.8189C102.26 28.492 103.449 29.6354 103.449 31.6645C103.449 34.2599 101.37 35.8854 98.0637 35.8854C94.97 35.8854 92.8812 34.2981 92.7462 31.7889L94.8833 31.789Z" fill="white"></path><path d="M107.955 23.1465V25.54H109.889V27.1841H107.955V32.76C107.955 33.6262 108.342 34.0299 109.192 34.0299C109.422 34.0259 109.651 34.0099 109.879 33.9818V35.6161C109.497 35.6871 109.108 35.7193 108.719 35.7121C106.66 35.7121 105.857 34.943 105.857 32.9814V27.1841H104.378V25.54H105.857V23.1465H107.955Z" fill="white"></path><path d="M111.009 30.5981C111.009 27.4157 112.894 25.416 115.833 25.416C118.782 25.416 120.658 27.4157 120.658 30.5981C120.658 33.7891 118.792 35.7801 115.833 35.7801C112.875 35.7801 111.009 33.7891 111.009 30.5981ZM118.531 30.5981C118.531 28.4151 117.525 27.1266 115.833 27.1266C114.141 27.1266 113.136 28.4249 113.136 30.5981C113.136 32.7898 114.141 34.0684 115.833 34.0684C117.525 34.0684 118.531 32.7898 118.531 30.5981Z" fill="white"></path><path d="M122.379 25.5401H124.37V27.2616H124.419C124.553 26.7239 124.87 26.2488 125.316 25.916C125.761 25.5832 126.308 25.4131 126.865 25.4343C127.106 25.4334 127.346 25.4594 127.58 25.5117V27.4536C127.277 27.3613 126.96 27.3189 126.642 27.3282C126.339 27.3159 126.037 27.3691 125.756 27.484C125.475 27.599 125.223 27.773 125.016 27.994C124.81 28.2151 124.654 28.478 124.559 28.7648C124.464 29.0515 124.433 29.3553 124.467 29.6552V35.6543H122.379L122.379 25.5401Z" fill="white"></path><path d="M137.206 32.684C136.925 34.5201 135.127 35.7801 132.826 35.7801C129.868 35.7801 128.031 33.8087 128.031 30.6461C128.031 27.4736 129.877 25.416 132.739 25.416C135.553 25.416 137.322 27.3383 137.322 30.405V31.1163H130.139V31.2417C130.105 31.614 130.152 31.9889 130.276 32.3418C130.4 32.6946 130.598 33.0172 130.856 33.2882C131.115 33.5592 131.429 33.7723 131.777 33.9134C132.125 34.0545 132.499 34.1203 132.875 34.1066C133.368 34.1525 133.863 34.0389 134.286 33.7826C134.709 33.5263 135.038 33.141 135.223 32.684L137.206 32.684ZM130.148 29.6653H135.233C135.252 29.3306 135.201 28.9957 135.083 28.6815C134.966 28.3674 134.784 28.0808 134.55 27.8397C134.316 27.5987 134.034 27.4084 133.722 27.2808C133.41 27.1532 133.076 27.0911 132.739 27.0983C132.399 27.0963 132.062 27.1612 131.747 27.2894C131.432 27.4176 131.146 27.6064 130.906 27.8451C130.665 28.0838 130.474 28.3675 130.344 28.6799C130.214 28.9923 130.148 29.3272 130.148 29.6653Z" fill="white"></path><rect x="0.5" y="0.5" width="158.322" height="49" rx="13.5" stroke="url(#paint0_linear_7_22740)"></rect><defs><linearGradient id="paint0_linear_7_22740" x1="-68.5086" y1="-9.7552e-06" x2="135.033" y2="-102.486" gradientUnits="userSpaceOnUse"><stop offset="0.0001" stop-color="#FA5560"></stop><stop offset="0.499028" stop-color="#B14BF4"></stop><stop offset="1" stop-color="#4D91FF"></stop></linearGradient></defs></svg> 