<svg width="402" height="240" viewBox="0 0 402 240" fill="none" xmlns="http://www.w3.org/2000/svg">
<path d="M168.487 121.871C167.044 120.951 164.384 117.118 164.384 117.118L164.627 126.519C164.627 126.519 163.448 138.689 163.596 136.264C163.74 133.837 159.831 128.578 159.831 128.578C159.831 128.578 159.617 133.068 158.766 140.009C157.915 146.951 155.202 152.392 152.719 156.67C150.24 160.951 148.812 161.631 149.033 160.254C149.259 158.88 148.496 154.285 148.496 154.285C148.496 154.285 146.79 161.229 143.313 167.672C139.83 174.113 132.93 178.629 132.93 178.629C133.927 176.915 129.099 173.373 129.099 173.373C125.339 180.808 115.849 183.509 115.849 183.509C117.731 181.499 117.447 178.44 117.447 178.44C113.587 184.78 102.126 185.047 102.126 185.047C106.082 178.659 103.556 175.887 103.556 175.887C100.812 181.233 94.456 183.584 92.7705 183.96C92.4473 184.029 92.2586 184.058 92.2586 184.058C92.4009 183.947 92.5308 183.826 92.6463 183.701C94.9349 181.274 93.804 175.775 93.804 175.775C93.0529 179.251 86.8497 181.756 86.8497 181.756C86.7704 181.615 87.0989 181.999 87.038 181.833C85.8664 178.704 87.9087 172.383 87.9087 172.383C82.2458 173.469 79.8466 179.583 79.8466 179.583C75.0157 177.331 69.4921 169.039 69.3194 168.782C69.6565 174.988 75.9674 177.243 70.2321 173.939C64.4988 170.63 61.3875 158.875 61.3875 158.875L60.5604 163.023C60.5604 163.023 60.1986 163.54 58.0716 160.447C55.9852 157.422 53.4228 147.532 53.3122 147.12C53.2834 147.444 51.3566 151.841 50.8772 150.985C50.3864 150.101 48.3966 144.457 48.1808 135.101C47.9695 125.746 51.3985 114.86 51.3985 114.86C51.3985 114.86 47.5325 120.331 45.9764 126.494C44.4221 132.651 45.7544 138.052 43.6179 131.584C41.4864 125.118 46.2124 112.26 47.6431 107.202C49.0766 102.151 51.9436 94.729 51.9436 94.729C51.1033 94.5299 46.2765 96.5016 46.2765 96.5016C46.2765 96.5016 46.3949 96.164 47.8679 92.9576C49.3393 89.757 54.978 87.1005 54.978 87.1005C50.2972 87.105 47.8215 83.1323 47.8215 83.1323C53.5013 84.1801 58.0432 77.0732 63.9335 71.3619C69.8238 65.6502 77.1682 62.0935 77.1682 62.0935C77.1682 62.0935 77.1682 62.0935 77.1731 62.0951C77.6644 61.9484 106.82 53.3906 108.896 52.773C109.096 52.7116 110.591 53.2951 110.847 53.1431C113.223 51.7515 116.272 46.1763 116.272 46.1763L115.311 55.4062C115.311 55.4062 118.726 54.0835 123.743 49.1745C128.756 44.2643 133.404 33.733 133.404 33.733C133.404 33.733 133.467 34.1784 133.49 34.932C133.539 36.5915 133.396 39.7586 131.956 42.9756C129.869 47.6465 128.956 54.0228 129.575 52.16C130.197 50.2915 137.726 43.1526 137.726 43.1526C137.726 43.1526 135.819 45.5084 135.365 48.943C134.908 52.376 134.26 57.9778 134.697 55.9995C135.139 54.0232 139.181 50.0358 139.181 50.0358C139.181 50.0358 138.867 57.4816 138.761 59.2112C139.069 58.3184 140.68 56.2798 140.68 56.2798C140.68 56.2798 140.267 63.0249 144.149 67.4319C147.914 71.7151 162.978 94.5458 163.781 95.9333C162.973 96.466 164.026 96.4738 164.026 96.4738C164.026 96.4738 164.331 97.7395 165.177 103.162C166.022 108.584 166.832 113.779 167.35 116.055C167.871 118.326 169.931 122.791 168.487 121.871Z" fill="url(#paint0_linear_121_746)"/>
<path d="M87.8816 181.286C86.2458 177.869 87.9087 172.383 87.9087 172.383C82.2458 173.469 79.8466 179.583 79.8466 179.583C75.0157 177.331 69.4921 169.039 69.3194 168.782C69.6565 174.988 75.9649 177.366 70.23 174.062C64.4967 170.753 61.3875 158.875 61.3875 158.875L60.5604 163.023C60.5604 163.023 60.1986 163.54 58.0716 160.447C55.9852 157.422 53.4228 147.532 53.3122 147.12C53.2834 147.444 51.9543 152.86 51.475 152.004C50.9841 151.12 48.3966 144.457 48.1808 135.101C47.9695 125.746 51.3985 114.86 51.3985 114.86C51.3985 114.86 47.5325 120.331 45.9764 126.494C44.422 132.651 45.7544 138.052 43.6179 131.584C41.4863 125.118 45.8687 113.438 47.2998 108.38C48.7333 103.329 51.7779 94.6819 51.7779 94.6819C50.9381 94.4827 46.2769 96.5016 46.2769 96.5016C46.2769 96.5016 46.2769 96.5016 47.7972 92.7453C49.1189 89.4804 54.0053 87.266 54.0053 87.266C49.3245 87.2705 47.5839 83.2274 47.5839 83.2274C53.2637 84.2747 58.0436 77.0732 63.9339 71.3615C69.8242 65.6498 77.1686 62.0931 77.1686 62.0931C77.1686 62.0931 77.1686 62.0931 77.1735 62.0947C76.6247 64.0599 75.2187 64.904 76.4739 75.4288C76.4739 75.4288 68.9153 86.7554 58.1583 89.2628C58.1583 89.2628 67.2055 92.6085 70.4413 92.3868C70.4413 92.3868 62.8593 95.1859 59.0331 102.326C59.2189 102.163 62.2254 99.5912 67.3946 100.937C67.3946 100.937 61.4188 108.203 60.3326 118.384C60.3326 118.384 62.2607 114.777 64.8869 113.219C64.8869 113.219 63.0406 128.073 57.0812 127.771C57.0812 127.771 60.5826 129.917 63.8805 126.532C63.8805 126.532 62.486 134.489 64.6706 140.59C64.6706 140.59 65.0015 137.934 66.313 134.026C66.313 134.026 64.9933 144.561 67.1619 152.483C67.1619 152.483 67.5574 149.126 69.4571 145.588C69.4571 145.588 68.9181 164.55 76.9803 172.862C76.9606 172.667 77.5752 164.489 79.0646 160.664C79.0646 160.664 78.4726 170.546 83.2209 173.902C83.2209 173.902 86.6228 170.214 91.5544 169.646C91.5544 169.646 88.053 175.484 87.8816 181.286Z" fill="#214AA5"/>
<path d="M111.887 63.7203C111.887 63.7203 112.278 55.4148 111.143 52.6985C113.519 51.3069 116.272 46.1763 116.272 46.1763L115.25 56.0016C115.25 56.0016 121.089 52.921 125.265 47.6203C129.671 42.0274 133.404 33.733 133.404 33.733C133.404 33.733 133.467 34.1784 133.49 34.932C132.105 39.4103 126.443 54.7858 111.887 63.7203Z" fill="#214AA5"/>
<path d="M168.196 123.034C166.752 122.114 164.383 117.118 164.383 117.118L164.626 126.519C164.626 126.519 163.447 138.689 163.596 136.264C163.74 133.837 159.83 128.578 159.83 128.578C159.83 128.578 159.61 135.284 158.759 142.225C157.908 149.166 155.202 152.391 152.718 156.67C150.239 160.951 148.812 161.631 149.033 160.254C149.258 158.88 148.496 154.285 148.496 154.285C148.496 154.285 146.79 161.229 143.312 167.672C139.83 174.113 132.93 178.629 132.93 178.629C133.927 176.915 134.687 172.835 134.687 172.835C130.926 180.269 115.849 183.509 115.849 183.509C117.73 181.499 117.447 178.44 117.447 178.44C113.587 184.78 102.126 185.047 102.126 185.047C106.081 178.659 103.408 176.11 103.408 176.11C100.664 181.455 94.4557 183.584 92.7706 183.961C92.6892 183.794 93.8908 180.99 93.8908 180.99C100.513 180.241 105.1 169.919 105.1 169.919C107.708 175.936 105.983 180.786 105.983 180.786C110.154 179.133 112.623 171.386 112.623 171.386C113.537 174.945 112.166 178.472 112.166 178.472C118.564 175.73 120.886 168.806 120.886 168.806C122.882 172.499 121.177 177.017 121.177 177.017C125.627 173.94 128.321 164.218 128.321 164.218C129.403 167.838 128.21 171.532 128.21 171.532C133.951 166.759 136.368 155.732 136.368 155.732C138.262 158.56 141.646 160.061 141.646 160.061C137.94 154.967 140.884 145.934 140.884 145.934C143.578 148.717 143.835 153.277 143.835 153.277C148.758 140.278 147.18 127.02 147.18 127.02C150.965 129.485 152.38 134.574 152.38 134.574C155.717 124.185 153.444 113.506 153.376 113.173C154.912 114.876 156.132 116.766 156.209 116.882C156.211 111.352 154.351 106.649 154.351 106.649C158.755 104.151 162.046 98.718 163.592 96.2398C163.615 96.2836 163.557 95.9329 163.557 95.9329C163.557 95.9329 164.834 97.8108 165.68 103.233C166.526 108.656 166.833 113.779 167.351 116.055C167.87 118.326 169.639 123.954 168.196 123.034Z" fill="#DD00AC"/>
<path d="M93.7262 173.511L93.6999 170.621C93.6999 170.621 101.043 178.331 93.3205 183.825L93.3135 180.625C93.3135 180.625 95.0319 176.217 93.7262 173.511Z" fill="#DD00AC"/>
<path d="M146.369 68.5104C146.369 68.5104 141.045 68.4678 139.568 63.229C139.568 63.229 139.096 66.0547 139.744 68.2404C139.744 68.2404 131.017 60.3762 139.166 50.4112C139.166 50.4112 138.121 57.8988 138.481 59.0289C138.841 60.1586 140.079 55.9278 140.375 56.6781C140.67 57.4284 139.348 63.7809 144.15 67.4327L146.369 68.5104Z" fill="#DD00AC"/>
<path d="M132.55 60.8068C132.55 60.8068 127.557 56.2343 134.445 45.7009L137.585 43.5071C137.585 43.5071 132.641 53.7614 132.55 60.8068Z" fill="#DD00AC"/>
<path d="M120.818 182.16C120.691 182.284 117.838 184.781 118.691 186.199C119.544 187.616 122.219 187.546 122.219 187.546C122.219 187.546 121.392 189.151 121.914 189.623C122.435 190.095 130.523 191.9 138.267 191.128C146.011 190.355 163.758 190.289 163.758 190.289C163.758 190.289 179.989 190.993 185.392 189.198C190.794 187.403 187.619 184.38 187.619 184.38C187.619 184.38 185.11 177.372 177.479 173.885C169.848 170.399 164.757 171.438 159.578 172.312C154.399 173.186 152.002 173.375 142.301 176.28C132.6 179.185 131.682 181.087 131.682 181.087C131.682 181.087 133.226 177.447 133.317 177.254C133.408 177.061 133.166 174.582 133.166 174.582C133.166 174.582 128.761 179.138 126.581 179.988C124.402 180.838 120.818 182.16 120.818 182.16Z" fill="#2A86E6"/>
<path d="M35.2492 214.493C35.2492 214.493 43.2242 203.888 51.233 199.448C59.2417 195.008 73.2764 190.595 73.2764 190.595L77.3406 189.654C77.3406 189.654 76.4394 185.62 81.0619 184.48C85.6848 183.341 90.8701 185.258 91.9735 186.944C93.0773 188.631 93.55 191.397 92.6736 191.998C91.7975 192.599 91.6614 193.154 91.6614 193.154C91.6614 193.154 89.0805 200.669 84.0178 204.002C78.955 207.336 77.9211 210.881 75.7369 214.493C73.5527 218.106 69.1929 224.765 62.274 227.93C55.3551 231.095 52.8437 233.41 47.0146 235.016C41.186 236.621 35.0251 235.96 34.8356 235.866C34.6461 235.771 30.5741 234.529 30.288 229.813C30.0023 225.096 30.6386 218.344 35.2492 214.493Z" fill="#2A86E6"/>
<path d="M5.53739 135.457C5.53739 135.457 3.19163 135.563 1.69891 138.61C0.206183 141.656 3.36511 150.809 4.55814 153.779C5.75076 156.748 8.89818 159.226 11.785 159.067C14.6717 158.909 16.5201 158.165 16.5201 158.165C16.5201 158.165 23.0953 163.018 34.6819 160.609C46.2684 158.2 51.8451 153.046 51.9002 150.752C51.9553 148.458 53.0796 145.034 52.0975 143.853C51.1154 142.672 49.3254 140.275 49.3254 140.275C49.3254 140.275 54.2048 136.945 54.9107 131.844C55.6166 126.743 50.5694 122.213 50.5694 122.213C50.5694 122.213 55.2252 118.205 54.7278 115.69C54.2303 113.174 47.91 109.516 44.2429 109.316C40.5759 109.117 32.2954 110.326 32.2954 110.326L31.282 105.265C31.282 105.265 35.8745 101.248 32.6777 92.5089C29.481 83.7703 21.9462 82.5423 20.3824 84.8099C18.8186 87.0771 18.3445 86.8882 19.3398 94.729C20.3351 102.57 17.9655 111.261 16.7807 114.189C15.5959 117.118 12.5767 121.926 9.96376 124.741C7.35037 127.557 5.62044 132.54 5.53739 135.457Z" fill="#D3DDE5"/>
<path d="M80.5668 13.3441C80.5668 13.3441 77.7894 12.3259 78.4435 10.4734C79.0975 8.62082 82.6043 5.45581 82.6043 5.45581C82.6043 5.45581 90.1867 0.865248 91.561 0.845989C92.9353 0.82673 96.8018 7.43947 95.6268 8.57329C94.4519 9.70669 90.8576 10.6045 90.8576 10.6045L80.5668 13.3441Z" fill="url(#paint1_linear_121_746)"/>
<path d="M164.408 43.031C164.408 43.031 157.695 39.8057 158.296 38.9924C158.899 38.1794 163.344 36.1027 166.187 36.2367C169.03 36.3707 173.119 37.9692 172.585 40.6593C172.051 43.3498 170.523 47.2466 170.523 47.2466L164.408 43.031Z" fill="url(#paint2_linear_121_746)"/>
<path d="M86.6084 2.32686C86.6084 2.32686 92.3663 5.12553 90.127 10.4393C90.127 10.4393 95.7296 9.8673 95.4583 7.71154C95.1869 5.55578 93.5746 0.627163 90.5534 0.626343C87.9593 0.625524 86.6084 2.32686 86.6084 2.32686Z" fill="#DD00AC"/>
<path d="M169.209 36.5834C169.209 36.5834 169.493 42.2869 167.822 44.7315L170.094 47.1257C170.094 47.1257 173.011 44.3205 172.834 42.9601C172.656 41.5997 171.661 37.9294 171.661 37.9294L169.209 36.5834Z" fill="#DD00AC"/>
<path d="M80.0335 136.555C80.0335 136.555 78.6119 121.393 79.465 121.428C80.318 121.464 81.775 122.881 81.775 122.881C81.775 122.881 82.9478 124.581 83.019 125.928C83.0901 127.274 84.2272 133.721 86.1467 134.784C88.0661 135.847 84.9738 132.658 87.8881 128.833C87.8881 128.833 95.7073 132.163 101.856 132.907C108.005 133.651 113.301 134.182 117.104 133.651C120.907 133.119 122.748 132.836 122.911 133.403C123.075 133.97 123.822 137.795 123.822 137.795C123.822 137.795 122.027 139.496 122 141.444C121.973 143.393 122.47 147.042 122.47 147.042C122.47 147.042 113.478 144.633 106.654 144.527C99.8303 144.421 89.5231 145.324 89.5231 145.324L86.5376 140.807C86.5376 140.807 84.2983 145.306 84.5828 146.652C84.8673 147.998 80.1758 141.196 80.0335 136.555Z" fill="#1B3B4F"/>
<path d="M107.841 110.742C109.938 110.742 111.638 108.997 111.638 106.846C111.638 104.694 109.938 102.95 107.841 102.95C105.744 102.95 104.044 104.694 104.044 106.846C104.044 108.997 105.744 110.742 107.841 110.742Z" fill="#1B3B4F"/>
<path d="M121.802 108.026C121.802 110.204 120.411 111.97 118.695 111.97C116.979 111.97 115.587 110.204 115.587 108.026C115.587 105.848 116.979 104.082 118.695 104.082C120.411 104.081 121.802 105.848 121.802 108.026Z" fill="#1B3B4F"/>
<path d="M83.0903 111.403C83.0903 111.403 80.9579 105.983 79.9979 107.825C79.0384 109.667 79.1922 120.578 79.1922 120.578L81.6329 123.235L83.0903 125.573C83.0903 125.573 84.4453 132.773 85.9002 134.611C87.3555 136.449 86.3257 131.604 87.6934 129.102C87.6934 129.102 100.115 133.792 107.898 134.394C115.682 134.997 122.912 132.729 122.912 132.729L124.449 138.138C124.449 138.138 127.624 127.486 130.183 124.794C132.742 122.102 120.572 130.887 104.479 125.644C88.3861 120.401 83.0903 111.403 83.0903 111.403Z" fill="#D3DDE5"/>
<path d="M86.8219 149.474C86.8219 149.474 85.2108 148.387 85.1631 144.892C85.1158 141.396 86.8219 140.894 86.8219 140.894C86.8219 140.894 87.2482 144.621 89.5228 145.323C91.7975 146.025 100.28 144.844 113.075 146.025C125.871 147.206 124.022 146.545 125.444 145.694C126.866 144.844 128.24 144.419 127.435 146.12C126.629 147.82 125.586 150.748 125.207 150.748C124.828 150.748 106.299 149.756 98.4796 149.473C90.6604 149.191 86.8219 149.474 86.8219 149.474Z" fill="#D3DDE5"/>
<path d="M42.359 239.136C42.359 239.136 32.4074 236.244 35.9261 235.819C39.4447 235.393 40.4753 238.511 50.5692 234.295C60.6631 230.08 68.056 224.801 68.056 224.801C68.056 224.801 75.4406 216.333 76.6176 212.95C77.7946 209.568 80.1523 206.167 82.1898 205.352C84.2276 204.538 89.098 200.055 90.0209 197.488C90.9438 194.921 92.3667 191.961 92.7223 192.929C93.0779 193.898 93.5219 199.946 91.5852 202.258C89.648 204.57 84.05 208.74 82.4389 212.791C80.8278 216.842 78.5531 220.68 75.9701 222.994C73.3876 225.308 68.7729 230.684 64.976 232.394C61.179 234.104 55.5456 237.66 50.9252 238.581C46.3044 239.503 42.359 239.136 42.359 239.136Z" fill="#D3DDE5"/>
<path d="M121.494 193.715C121.494 193.715 120.693 190.141 121.618 190.013C122.544 189.885 126.683 190.881 130.166 190.987C133.649 191.093 152.124 190.683 158.38 190.342C164.635 190.001 180.606 190.438 180.606 190.438C180.606 190.438 186.176 190.309 187.275 188.724C188.374 187.14 189.289 187.391 189.348 187.681C189.406 187.972 189.873 193.071 183.936 194.346C178 195.621 167.716 194.346 167.716 194.346L146.959 194.699L127.862 194.535C127.862 194.535 124.659 194.864 123.512 194.298C122.364 193.732 121.494 193.715 121.494 193.715Z" fill="#D3DDE5"/>
<path d="M20.0029 113.381C20.0029 113.381 51.1006 107.375 49.5552 122.213L43.0737 126.323C43.0737 126.323 47.658 125.148 49.6111 127.274C51.5643 129.399 52.0909 137.76 45.9276 141.444C45.9276 141.444 48.7211 145.127 46.5887 150.158C44.4563 155.189 38.6983 159.655 28.1424 161.036C28.1424 161.036 44.7149 160.372 49.4903 154.238C54.2657 148.104 51.6358 143.994 51.6358 143.994L49.3254 140.275C49.3254 140.275 54.7602 135.138 54.3351 130.036C53.9105 124.935 50.5694 122.212 50.5694 122.212C50.5694 122.212 55.2609 118.558 54.7277 115.689C54.1945 112.819 47.6547 108.74 41.3286 109.079C35.0017 109.419 20.0029 113.381 20.0029 113.381Z" fill="white"/>
<path d="M21.567 83.2036L20.7612 85.2819C20.7612 85.2819 26.5903 87.2656 26.0213 95.5317C25.4528 103.798 25.334 108.592 28.1418 107.753C28.1418 107.753 29.2197 110.127 28.1418 111.024C27.0639 111.922 32.2948 110.325 32.2948 110.325C32.2948 110.325 30.2861 107.723 31.2814 105.264C32.2767 102.805 34.7754 100.605 32.8864 93.1088C30.9977 85.6126 24.5052 83.0147 21.567 83.2036Z" fill="white"/>
<path d="M9.95703 125.972C9.95703 125.972 18.3925 117.354 25.88 115.843C33.3674 114.331 38.4195 111.895 44.5655 114.058C50.7119 116.221 47.0153 111.969 47.0153 111.969C47.0153 111.969 34.1255 109.796 26.4485 111.969C18.7715 114.142 16.7033 115.009 14.2683 118.488C11.8333 121.966 9.95703 125.972 9.95703 125.972Z" fill="white"/>
<path d="M6.14187 133.084C6.14187 133.084 15.1615 160.775 31.9769 160.356C31.9769 160.356 23.0794 162.548 17.4777 158.999C11.876 155.45 15.8567 158.402 14.9325 158.779C14.0084 159.157 9.90924 159.063 6.78155 156.134C3.65386 153.206 1.49762 145.578 1.49762 145.578C1.49762 145.578 0.214559 138.61 1.30645 137.17C2.39835 135.729 5.55934 135.048 5.55934 135.048L6.14187 133.084Z" fill="#A8B7C1"/>
<path d="M27.1675 142.578C27.1675 142.578 42.8215 143.05 48.117 140.122C53.4124 137.193 44.9535 143.57 40.8306 144.562C36.7076 145.553 31.9149 147.892 27.1675 142.578Z" fill="#A8B7C1"/>
<path d="M38.4887 127.557L30.2871 129.163C30.2871 129.163 27.5858 129.536 25.5483 125.972C25.5483 125.972 41.8976 126.214 49.0533 121.689C56.209 117.165 47.0154 123.731 46.8736 123.731C46.7309 123.731 38.4887 127.557 38.4887 127.557Z" fill="#A8B7C1"/>
<path d="M9.95681 123.802C9.95681 123.802 9.7492 125.399 10.9755 124.637C12.2019 123.874 17.9775 118.36 24.0729 116.334C24.0729 116.334 18.3684 119.197 19.1504 125.573C19.9323 131.95 21.5672 131.524 21.9936 137.759C22.4199 143.994 21.9936 146.828 25.0501 152.001C28.1067 157.173 27.6093 160.857 35.0017 160.432C42.3946 160.007 33.2957 162.132 24.9079 160.148C16.5201 158.165 11.3307 149.972 10.3359 147.054C9.34056 144.136 5.74463 133.67 5.74463 133.67C5.74463 133.67 8.08464 127.061 9.95681 123.802Z" fill="#A8B7C1"/>
<path d="M89.457 129.74L87.5684 127.628C87.5684 127.628 108.861 135.531 123.823 130.729C123.823 130.729 122.968 132.41 122.151 132.623C121.334 132.836 111.9 134.273 105.264 133.438C98.6275 132.602 89.457 129.74 89.457 129.74Z" fill="white"/>
<path d="M131.682 181.087C131.682 181.087 157.764 174.886 170.986 178.854C184.207 182.822 187.275 188.725 187.275 188.725C187.275 188.725 189.555 185.892 186.988 182.232C184.421 178.571 180.44 172 164.091 171.884C147.742 171.769 136.226 178.712 136.226 178.712L131.682 181.087Z" fill="#DD00AC"/>
<path d="M82.6996 184.475C82.6996 184.475 86.0641 185.609 84.453 187.923C84.453 187.923 87.0327 189.293 84.89 189.718C82.7473 190.143 83.9794 191.89 80.7568 197.558C77.5345 203.227 74.8331 205.494 72.4163 211.682C69.9994 217.87 68.6727 219.9 62.1802 224.955C55.688 230.009 47.4001 234.797 41.6159 235.945C35.8316 237.094 44.4965 236.856 55.2534 231.513C66.01 226.169 67.8415 224.861 72.6876 219.122C77.5341 213.382 76.5388 209.745 81.0881 206.203C85.6374 202.66 87.7698 200.251 90.6607 195.433C93.5516 190.615 93.6461 189.01 92.2245 187.262C90.8029 185.514 85.1918 184.203 82.6996 184.475Z" fill="#DD00AC"/>
<path d="M85.0071 134.501L85.9001 134.611C85.9001 134.611 84.261 130.391 85.1625 120.661C85.1625 120.661 106.439 131.808 122.126 129.21L124.544 128.879C124.544 128.879 123.738 136.578 124.544 136.909C125.35 137.24 125.409 134.003 126.73 130.662C128.051 127.321 128.951 125.478 128.951 125.478C128.951 125.478 127.103 126.14 124.639 126.612C122.175 127.084 114.463 128.595 106.922 127.178C99.3802 125.762 93.5039 122.549 89.4286 118.818C85.3529 115.086 80.0455 106.49 80.0455 106.49C80.0455 106.49 78.6288 120.417 79.1834 120.948C79.7376 121.478 83.1732 124.392 83.1732 124.392C83.1732 124.392 80.7752 130.06 85.0071 134.501Z" fill="#ABC1D3"/>
<path d="M87.3569 142.938C87.3569 142.938 87.1772 147.644 88.3147 148.777C89.4523 149.91 86.2534 149.45 86.2534 149.45C86.2534 149.45 84.7648 147.068 85.1714 144.344C85.578 141.621 86.5593 141.526 87.3569 142.938Z" fill="#ABC1D3"/>
<path d="M90.1634 144.679L88.7891 146.049L89.1208 146.805C89.1208 146.805 111.086 145.79 123.36 148.813C123.36 148.813 125.255 146.275 126.677 145.324C128.099 144.373 122.432 146.746 122.432 146.746C122.432 146.746 107.105 145.176 102.461 145.176C97.8165 145.176 90.1634 144.679 90.1634 144.679Z" fill="white"/>
<path d="M155.916 107.443L154.351 106.649L152.409 103.467C152.409 103.467 157.106 96.214 158.99 93.8312C160.873 91.4489 160.634 91.0862 160.634 91.0862C160.634 91.0862 163.073 97.6424 163.238 99.0434C163.403 100.444 155.916 107.443 155.916 107.443Z" fill="#DD00AC"/>
<path d="M102.491 185.725C102.43 185.725 102.388 185.724 102.367 185.724L100.815 185.699L101.667 184.407C102.843 182.623 103.274 180.091 103.417 178.092C99.2087 184.065 93.0914 184.639 92.7979 184.663L91.1107 184.801L92.0037 183.367C93.1823 181.475 93.623 179.724 93.7389 178.335C91.6612 181.334 88.0941 182.806 87.8971 182.885L87.0556 183.225L86.7678 182.367C85.5699 178.793 86.0476 175.544 86.5446 173.672C82.6798 175.346 80.8718 179.847 80.8516 179.898L80.4861 180.829L79.6224 180.321C75.7765 178.053 73.2836 175.381 71.6794 173.011C72.0836 173.875 72.4404 174.371 72.449 174.384L74.9416 177.785L71.3206 175.614C64.8185 171.715 62.5944 165.828 61.852 161.787C61.7097 162.956 61.8224 163.688 61.8248 163.701L62.3083 166.658L60.3391 164.399C55.6377 158.997 54.0299 152.183 53.4827 147.918L51.8917 147.454C51.9254 147.339 52.7259 144.623 53.2957 143.494L54.9697 140.179L54.9109 143.89C54.9092 143.996 54.8217 153.757 60.1755 161.422C60.3379 160.219 60.7297 158.679 61.6066 156.984L63.5786 153.173L63.2148 157.446C63.1819 157.84 62.5829 166.287 69.5355 172.243C69.0295 170.74 68.6496 168.775 68.8835 166.522L69.5244 160.342L70.5728 166.467C70.5851 166.536 71.8694 173.359 79.6824 178.36C80.621 176.506 83.155 172.447 87.7121 171.531L89.3401 171.204L88.6577 172.714C88.6408 172.752 87.01 176.485 88.1121 180.894C89.6731 180.067 92.8682 178.008 93.4166 174.796L93.9613 171.606L95.0598 174.651C95.1186 174.813 96.3186 178.268 94.3305 182.628C96.6874 181.96 100.966 180.022 103.517 174.503L104.885 171.542L105.142 174.792C105.161 175.033 105.536 180.119 103.837 183.96C107.023 183.716 114.635 182.539 118.077 176.876L120.662 172.623L119.642 177.49C119.613 177.626 119.088 180.067 117.779 182.187C121.898 181.22 130.493 178.457 134.01 171.742L135.837 168.255L135.619 172.182C135.612 172.288 135.495 174.165 134.549 176.558C138.551 173.713 146.244 166.374 147.906 151.231L148.574 145.149L149.596 151.182C149.638 151.432 150.425 156.172 150.023 160.389C153.138 156.384 158.912 146.508 158.968 128.293L158.977 125.255L160.551 127.857C160.652 128.024 162.268 130.73 163.189 134.338C163.85 129.56 164.229 122.495 162.275 116.026C162.041 115.381 161.923 114.953 161.905 114.884L163.535 114.387C163.652 114.724 163.763 115.063 163.868 115.404C164.419 116.919 165.721 119.893 167.985 121.804C167.2 119.384 166.014 115.28 165.251 110.533L165.042 109.23C163.489 99.5028 162.366 92.475 154.827 83.0242C153.146 80.9168 151.509 79.047 149.928 77.2392C145.177 71.8094 141.284 67.3619 140.001 60.7987C139.707 61.785 139.509 62.8102 139.594 63.6064L137.906 63.8436C137.864 63.6052 137.028 58.7052 138.075 53.1644C137.375 54.002 136.603 55.169 135.982 56.7273C134.757 59.8021 134.429 63.0647 134.426 63.0966L132.725 63.0528C132.47 57.4276 133.434 53.2455 135.843 46.7602C134.261 48.3362 132.259 50.6919 130.826 53.6336C128.772 57.8496 128.024 60.9372 128.017 60.9679L126.335 60.7204C126.573 56.833 127.74 53.7979 129.091 50.2838C130.262 47.2368 131.548 43.8923 132.572 39.2595C129.362 44.9671 123.388 53.8049 115.597 57.3854L114.054 58.0943L114.405 56.4368C114.413 56.4015 114.951 53.8446 115.248 51.1566C113.658 53.0956 110.972 55.6254 107.004 57.0522C104.815 57.8394 102.195 58.0607 99.161 58.3176C92.7913 58.856 84.0673 59.594 73.5759 66.4637C67.3633 70.531 63.3558 74.4466 60.1356 77.5936C55.9917 81.6421 53.0811 84.4834 48.7032 84.031C49.6529 85.1324 51.4765 86.4699 54.7941 86.6416L58.367 86.8264L55.0947 88.2683C55.0392 88.2933 50.08 90.5466 47.6043 95.5732C48.8195 94.9725 50.4126 94.3754 52.0508 94.2967L53.6763 94.2181L52.8155 95.5957C52.7694 95.6699 48.1618 103.128 48.399 110.05L46.6941 110.108C46.5046 104.58 49.0609 98.9439 50.4738 96.2747C48.2896 96.8774 46.4598 98.2235 46.4372 98.2407L44.4146 99.7454L45.1064 97.3265C46.4845 92.5106 49.9057 89.5128 52.1939 87.977C47.4448 86.7891 46.2189 83.2492 46.1617 83.0766L45.6512 81.5294L47.2166 81.9965C51.7922 83.361 54.3325 80.8824 58.9418 76.3795C62.215 73.1813 66.2882 69.2013 72.6398 65.0426C83.4921 57.9365 92.4649 57.1776 99.0171 56.6232C101.931 56.3769 104.447 56.1639 106.425 55.4525C112.698 53.1968 115.502 47.7932 115.53 47.7392L117.135 44.5787L117.144 48.1215C117.149 50.4104 116.722 53.2611 116.406 55.0551C126.659 49.1864 133.559 33.5827 133.63 33.418L136.097 27.762L135.258 33.872C134.264 41.1149 132.579 45.9202 131.117 49.7622C133.912 45.6686 137.205 43.2809 137.374 43.1593L139.718 41.48L138.666 44.1595C137.009 48.3813 135.89 51.5258 135.214 54.3593C136.927 51.2205 139.039 49.992 139.142 49.9334L141.009 48.873L140.38 50.9206C139.646 53.3164 139.36 55.7484 139.287 57.8304C139.501 57.3436 139.659 57.0309 139.682 56.9867L141.126 54.1503L141.294 57.3264C141.714 65.2655 145.906 70.056 151.213 76.1209C152.809 77.9436 154.458 79.8285 156.162 81.9658C163.98 91.7665 165.192 99.3549 166.727 108.963L166.936 110.264C168.107 117.548 170.356 123.441 170.378 123.5L171.106 125.392L169.242 124.584C167.533 123.843 166.172 122.604 165.109 121.253C166.343 130.948 163.87 140.014 163.739 140.482L162.068 140.182C162.329 137.151 161.457 134.084 160.59 131.888C159.569 154.887 149.622 163.481 149.179 163.852L146.938 165.729L147.817 162.946C148.263 161.531 148.418 159.76 148.429 158.035C144.333 174.343 133.327 179.363 132.803 179.593L130.268 180.707L131.736 178.365C132.181 177.655 132.536 176.949 132.819 176.279C126.636 182.791 116.244 184.253 115.733 184.322L112.888 184.701L115.063 182.835C115.513 182.448 115.905 181.961 116.242 181.436C110.975 185.564 103.598 185.725 102.491 185.725Z" fill="#1D3444"/>
<path d="M92.0515 193.411L91.543 191.788C91.7736 191.706 92.9576 191.16 92.2612 188.879C91.9491 187.858 90.7331 186.785 89.0069 186.009C86.1234 184.712 82.726 184.571 80.3511 185.648C78.9689 186.275 78.1623 187.024 77.9535 187.874C77.7035 188.89 78.388 189.8 78.3946 189.808L77.0507 190.856C77.0014 190.792 75.8482 189.295 76.2967 187.47C76.6359 186.088 77.7623 184.955 79.644 184.1C82.4469 182.828 86.3968 182.968 89.709 184.459C91.9089 185.448 93.4337 186.879 93.8929 188.384C94.875 191.601 93.1179 193.079 92.0515 193.411Z" fill="#1D3444"/>
<path d="M43.4037 240C41.4304 240 39.5833 239.76 37.8904 239.271C34.3931 238.261 31.825 236.213 30.4638 233.349C26.301 224.589 34.0692 212.361 43.049 204.706C53.6333 195.683 71.1677 189.118 81.3438 188.21L81.4959 189.904C71.5809 190.789 54.4863 197.194 44.1573 205.999C35.6556 213.247 28.2262 224.669 32.0054 232.621C33.1516 235.033 35.3506 236.768 38.3652 237.638C45.2854 239.637 55.5749 236.938 65.8937 230.424C77.204 223.285 79.5909 217.74 81.3327 213.692C82.2178 211.635 82.9821 209.86 84.6203 208.403C90.6706 203.023 93.2469 198.747 92.4967 195.332C91.5992 191.248 85.8392 189.899 85.7817 189.886L86.1558 188.227C86.4362 188.29 93.0328 189.822 94.1629 194.968C95.3534 200.387 89.9355 205.955 85.7566 209.671C84.4004 210.877 83.7385 212.415 82.9007 214.362C81.0704 218.615 78.5635 224.44 66.8067 231.861C58.3807 237.179 50.1615 240 43.4037 240Z" fill="#1D3444"/>
<path d="M177.731 195.839C177.145 195.839 176.543 195.826 175.925 195.8C167.805 195.452 130.526 195.493 127.851 195.759C125.677 195.977 122.618 195.335 120.985 193.691C120.077 192.777 119.671 191.631 119.81 190.38C120.228 186.632 125.882 183.648 126.525 183.32L127.302 184.834C125.781 185.611 121.775 188.157 121.506 190.568C121.422 191.312 121.649 191.942 122.197 192.495C123.441 193.748 125.956 194.239 127.681 194.068C130.379 193.798 167.848 193.753 175.998 194.101C181.731 194.347 186.016 193.392 187.757 191.483C188.509 190.659 188.792 189.668 188.623 188.456C187.839 182.846 180.317 171.038 163.096 172.475C144.908 173.997 131.478 182.187 131.344 182.269L130.445 180.824C130.581 180.739 144.34 172.338 162.953 170.78C181.384 169.243 189.46 182.111 190.312 188.221C190.553 189.94 190.118 191.422 189.02 192.627C187.112 194.718 183.139 195.839 177.731 195.839Z" fill="#1D3444"/>
<path d="M121.373 188.399C120.486 188.399 119.259 188.229 118.527 187.4C118.109 186.928 117.703 186.063 118.135 184.629C118.942 181.957 122.42 180.788 122.568 180.739L123.101 182.354C122.33 182.61 120.225 183.607 119.769 185.118C119.655 185.497 119.569 186.005 119.807 186.275C120.197 186.719 121.431 186.758 122.141 186.642L122.42 188.32C122.316 188.337 121.906 188.399 121.373 188.399Z" fill="#1D3444"/>
<path d="M40.3964 237.25C37.2248 237.25 34.3865 236.417 31.4487 234.837L32.259 233.341C38.9802 236.958 45.2236 236.952 62.5159 227.144C71.9389 221.8 73.7214 217.285 75.2943 213.3C76.4639 210.338 77.5686 207.539 81.3626 204.935C89.6032 199.28 90.9463 192.513 90.9591 192.446L92.6376 192.75C92.5825 193.053 91.193 200.253 82.33 206.336C78.9651 208.645 77.9998 211.091 76.882 213.923C75.2059 218.169 73.3062 222.982 63.3599 228.622C52.9265 234.539 46.119 237.25 40.3964 237.25Z" fill="#1D3444"/>
<path d="M5.14434 136.908C5.09419 136.687 3.97311 131.434 8.51171 125.297C9.62416 123.792 10.4793 122.482 11.2336 121.325C13.4557 117.921 14.9233 115.671 19.6411 113.467C25.6026 110.682 38.7522 107.276 44.9812 108.481C49.4195 109.342 53.3127 111.796 54.6685 114.589C55.3538 116.001 55.3616 117.429 54.6911 118.721C52.3158 123.298 42.7341 127.403 30.2793 129.179L30.0384 127.495C43.5991 125.563 51.4307 121.304 53.1762 117.94C53.5955 117.132 53.5812 116.254 53.133 115.331C52.0169 113.032 48.5311 110.902 44.6557 110.151C38.9606 109.048 26.1921 112.286 20.3651 115.008C16.0884 117.006 14.7996 118.981 12.6643 122.254C11.8967 123.429 11.0273 124.762 9.8848 126.306C5.83459 131.783 6.79863 136.49 6.80932 136.537L5.14434 136.908Z" fill="#1D3444"/>
<path d="M34.3246 145.972L34.1157 144.285C48.1907 142.556 53.6325 136.331 54.0313 131.083C54.4543 125.519 49.6518 123.077 49.4471 122.976L50.199 121.449C50.4461 121.57 56.2447 124.479 55.7329 131.211C55.1491 138.878 47.1461 144.397 34.3246 145.972Z" fill="#1D3444"/>
<path d="M27.4148 161.891C21.9862 161.891 17.8763 160.633 14.1127 158.012C7.91733 153.699 5.60856 139.99 5.51318 139.408L7.19707 139.134C7.21927 139.269 9.48405 152.716 15.0895 156.618C20.6373 160.479 27.1221 161.13 38.2244 158.937C48.2455 156.957 52.2262 150.657 51.8525 146.816C51.5171 143.367 48.4198 141.012 48.3882 140.988L49.4081 139.625C49.5602 139.739 53.1413 142.441 53.5504 146.652C53.9566 150.821 50.2443 158.295 38.5562 160.605C34.256 161.455 30.607 161.891 27.4148 161.891Z" fill="#1D3444"/>
<path d="M12.2176 159.941C10.6994 159.941 9.24367 159.493 7.86318 158.597C2.36753 155.03 -0.136515 145.418 0.00572764 141.039C0.217447 134.498 5.72297 133.987 5.77847 133.982L5.91824 135.677C5.75339 135.692 1.87214 136.101 1.71058 141.093C1.58684 144.91 3.97495 154.044 8.79392 157.171C10.8359 158.497 13.1122 158.574 15.5574 157.4L16.297 158.932C14.8955 159.604 13.5331 159.941 12.2176 159.941Z" fill="#1D3444"/>
<path d="M15.5093 118.346L14.096 117.395L14.8022 117.871L14.0947 117.396C14.1317 117.34 17.8518 111.694 18.5832 100.484C18.9034 95.5805 18.3883 92.5798 18.0117 90.3896C17.5147 87.4979 17.215 85.7528 20.0578 83.6122C21.5111 82.5169 23.3606 82.4193 25.4046 83.3302C29.7217 85.2565 33.7143 91.0719 34.1229 96.0292C34.7182 103.252 31.7089 107.827 24.3645 110.865L23.7105 109.294C30.3494 106.549 32.955 102.623 32.4226 96.1685C32.065 91.8304 28.4596 86.5563 24.7078 84.882C23.2459 84.2301 22.0282 84.2584 21.0864 84.9685C19.0724 86.485 19.2039 87.2513 19.6936 90.102C20.0623 92.2479 20.6194 95.4908 20.2864 100.594C19.5217 112.309 15.6725 118.106 15.5093 118.346Z" fill="#1D3444"/>
<path d="M32.1578 110.917C30.2469 109.453 30.152 105.697 30.1475 105.273L31.8535 105.255C31.8696 106.537 32.249 108.842 33.1974 109.569L32.1578 110.917Z" fill="#1D3444"/>
<path d="M131.465 192.269C122.52 192.269 120.601 190.306 120.279 189.855L121.669 188.869L120.974 189.362L121.638 188.83C121.66 188.853 123.923 191.188 136.242 190.404C149.107 189.586 160.217 188.879 173.209 189.54C181.247 189.95 185.663 189.371 187.104 187.721C187.651 187.094 187.798 186.24 187.566 185.035L189.241 184.714C189.575 186.45 189.297 187.798 188.391 188.837C186.529 190.971 181.961 191.687 173.122 191.239C160.226 190.583 149.162 191.286 136.351 192.102C134.526 192.218 132.904 192.269 131.465 192.269Z" fill="#1D3444"/>
<path d="M153.173 190.385C151.314 174.007 159.868 171.184 160.234 171.071L160.736 172.697L160.485 171.884L160.741 172.695C160.431 172.794 153.179 175.314 154.867 190.194L153.173 190.385Z" fill="#1D3444"/>
<path d="M106.991 111.394C106.339 111.394 105.712 111.224 105.166 110.863C104.249 110.259 103.706 109.242 103.634 108.001C103.568 106.852 103.922 105.631 104.63 104.563C105.338 103.496 106.327 102.694 107.414 102.305C108.588 101.885 109.739 101.986 110.655 102.59C112.464 103.782 112.705 106.608 111.191 108.889V108.89C110.134 110.482 108.498 111.394 106.991 111.394ZM108.813 103.753C108.553 103.753 108.276 103.804 107.991 103.906C107.248 104.172 106.56 104.739 106.053 105.502C105.547 106.266 105.292 107.119 105.337 107.904C105.377 108.597 105.651 109.144 106.107 109.446C107.112 110.108 108.79 109.426 109.769 107.952C110.747 106.478 110.722 104.673 109.715 104.009C109.457 103.838 109.149 103.753 108.813 103.753Z" fill="#1D3444"/>
<path d="M119.005 113.136C117.065 113.136 115.25 111.35 114.812 108.889C114.333 106.196 115.681 103.698 117.816 103.321C118.899 103.128 119.994 103.493 120.904 104.344C121.746 105.131 122.334 106.259 122.558 107.519C123.037 110.212 121.69 112.71 119.554 113.087C119.37 113.12 119.187 113.136 119.005 113.136ZM118.371 104.973C118.285 104.973 118.199 104.98 118.114 104.995C116.925 105.205 116.182 106.852 116.491 108.592C116.801 110.331 118.059 111.622 119.256 111.413C120.445 111.203 121.188 109.556 120.878 107.816C120.718 106.915 120.313 106.122 119.737 105.584C119.309 105.184 118.833 104.973 118.371 104.973Z" fill="#1D3444"/>
<path d="M69.817 222.78C59.2224 202.514 44.9534 205.579 44.3503 205.718L43.9561 204.064C44.1143 204.025 60.0919 200.499 71.3299 221.994L69.817 222.78Z" fill="#1D3444"/>
<path d="M68.2465 92.5204C68.2465 92.5204 63.7782 82.1174 63.832 67.0025C63.8859 51.8876 71.4683 40.8511 77.9132 33.7577C84.3581 26.6643 93.5516 25.6251 100.66 29.9706C107.768 34.3162 113.237 44.6233 114.403 54.8158C115.568 65.0086 112.753 80.7652 109.001 88.1634C105.248 95.5613 101.213 98.6492 101.213 98.6492C101.213 98.6492 83.5063 92.1541 68.2465 92.5204Z" fill="#D3DDE5"/>
<path d="M127.198 106.113C127.198 106.113 122.838 99.2164 123.123 89.5804C123.407 79.9444 128.299 70.4187 130.847 66.3883C133.395 62.3578 139.898 56.6109 147.717 55.3825C155.537 54.1544 160.865 61.8649 162.598 67.2856C164.33 72.7064 162.291 86.383 159.565 92.6032C156.839 98.8234 152.261 102.973 152.261 102.973C152.261 102.973 141.841 101.672 127.198 106.113Z" fill="#D3DDE5"/>
<path d="M97.7611 72.6982C95.3725 81.2319 89.3124 87.003 84.2258 85.5885C79.1392 84.174 76.9517 76.1094 79.3403 67.5757C81.7288 59.042 87.7889 53.2709 92.8755 54.6854C97.9621 56.0995 100.15 64.1645 97.7611 72.6982Z" fill="#2A86E6"/>
<path d="M101.508 30.5263C101.508 30.5263 86.6325 32.7078 79.1923 53.634C71.7521 74.5597 78.3286 92.8925 78.3286 92.8925L70.6159 92.5171C70.6159 92.5171 62.085 67.1914 74.8802 45.794C87.6755 24.3966 98.3054 28.763 98.3054 28.763L101.508 30.5263Z" fill="#ABC1D3"/>
<path d="M156.634 56.7104C156.634 56.7104 147.102 58.5302 139.709 69.8749C132.316 81.22 133.491 104.081 133.491 104.081L128.895 105.619C128.895 105.619 122.953 91.5779 130.759 73.7094C138.565 55.8413 156.634 56.7104 156.634 56.7104Z" fill="#ABC1D3"/>
<path d="M143.267 83.5937C143.267 89.2481 140.856 93.8317 137.881 93.8317C134.906 93.8317 132.495 89.2481 132.495 83.5937C132.495 77.9394 134.907 73.3558 137.881 73.3558C140.855 73.3554 143.267 77.939 143.267 83.5937Z" fill="#2A86E6"/>
<path d="M104.949 34.7415C104.949 34.7415 115.54 56.7998 109.569 74.3713C103.598 91.9427 96.7739 96.7279 96.7739 96.7279L100.436 99.0439C100.436 99.0439 106.388 96.2984 110.612 84.3244C114.836 72.3499 119.568 49.9982 104.949 34.7415Z" fill="white"/>
<path d="M156.634 58.8433C156.634 58.8433 167.669 82.866 147.481 102.378L152.262 102.974C152.262 102.974 176.261 75.151 156.634 58.8433Z" fill="white"/>
<path d="M141.682 86.6387C141.682 87.6905 140.827 88.5428 139.772 88.5428C138.716 88.5428 137.861 87.6905 137.861 86.6387C137.861 85.5868 138.717 84.7345 139.772 84.7345C140.827 84.7345 141.682 85.5872 141.682 86.6387Z" fill="#F3FEFF"/>
<path d="M138.946 90.0041C138.946 90.6019 138.46 91.0862 137.861 91.0862C137.261 91.0862 136.775 90.6015 136.775 90.0041C136.775 89.4062 137.261 88.9219 137.861 88.9219C138.46 88.9219 138.946 89.4062 138.946 90.0041Z" fill="#F3FEFF"/>
<path d="M91.7031 79.1457C91.7031 80.1976 90.8476 81.0499 89.7927 81.0499C88.7374 81.0499 87.8823 80.1972 87.8823 79.1457C87.8823 78.0943 88.7378 77.2416 89.7927 77.2416C90.848 77.2416 91.7031 78.0939 91.7031 79.1457Z" fill="#F3FEFF"/>
<path d="M87.8826 83.5933C88.4822 83.5933 88.9683 83.1088 88.9683 82.5111C88.9683 81.9135 88.4822 81.429 87.8826 81.429C87.283 81.429 86.7969 81.9135 86.7969 82.5111C86.7969 83.1088 87.283 83.5933 87.8826 83.5933Z" fill="#F3FEFF"/>
<path d="M93.6072 26.9101C92.961 26.8388 92.304 26.8024 91.6541 26.8024C77.956 26.8024 65.4141 42.9786 63.1008 63.6293C61.8457 74.8331 63.7918 85.3004 67.9189 93.063C68.5052 92.9699 69.1021 92.9093 69.7068 92.8773C65.5362 85.3795 63.5452 74.9818 64.7962 63.8174C67.0149 44.0148 78.812 28.5029 91.6541 28.5029C92.2407 28.5029 92.8343 28.5357 93.4177 28.6004C106.857 30.0964 115.884 48.3288 113.54 69.2439C112.172 81.4605 107.155 92.0377 100.499 98.3538C101.059 98.589 101.62 98.8214 102.186 99.0443C108.878 92.3881 113.862 81.6999 115.236 69.4324C117.684 47.5855 107.981 28.5103 93.6072 26.9101Z" fill="#1D3444"/>
<path d="M126.345 105.441C126.917 105.364 127.475 105.234 128.028 105.085C123.125 98.9647 122.29 87.6881 126.601 76.5237C131.243 64.5021 140.482 56.1065 149.068 56.1065C150.545 56.1065 151.971 56.3667 153.307 56.8793C157.689 58.5597 160.806 62.8114 162.084 68.8517C163.389 75.0248 162.616 82.287 159.908 89.3013C157.785 94.7987 154.7 99.5339 151.157 103.059C151.943 103.039 152.729 103.028 153.513 103.037C156.743 99.5023 159.528 95.0187 161.5 89.9127C164.325 82.5956 165.125 74.9912 163.753 68.501C162.352 61.878 158.86 57.1874 153.92 55.2927C152.388 54.7047 150.755 54.4064 149.068 54.4064C139.792 54.4064 129.899 63.2507 125.009 75.9132C120.635 87.2394 121.398 98.7279 126.213 105.463C126.257 105.455 126.3 105.447 126.345 105.441Z" fill="#1D3444"/>
<path d="M124.394 107.655L123.746 106.082C124.593 105.735 144.647 97.6482 157.6 103.834L156.862 105.368C144.587 99.5056 124.595 107.573 124.394 107.655Z" fill="#1D3444"/>
<path d="M103.979 101.736C103.792 101.629 85.0318 91.0747 63.9388 93.7427L63.7246 92.0557C85.3981 89.314 104.636 100.152 104.829 100.262L103.979 101.736Z" fill="#1D3444"/>
<path d="M71.2568 108.916L70.5415 107.372C71.0085 107.157 82.0771 102.162 91.8322 106.08L91.1946 107.657C82.117 104.01 71.3645 108.867 71.2568 108.916Z" fill="#1D3444"/>
<path d="M147.912 120.021C144.665 113.938 137.772 114.219 137.479 114.236L137.387 112.538C137.722 112.522 145.652 112.164 149.418 119.223L147.912 120.021Z" fill="#1D3444"/>
<path d="M121.524 156.69C120.975 156.69 120.391 156.678 119.771 156.653L119.839 154.954C126.229 155.211 128.146 153.991 128.268 153.31C128.36 152.798 127.541 151.953 126.176 151.511C123.17 150.537 96.2664 150.187 86.154 150.135L85.842 150.133L85.6048 149.931C75.0493 140.956 78.8401 107.043 79.007 105.604L79.0843 104.935L81.2002 104.688L81.3819 105.414C81.4189 105.562 85.4091 120.417 106.227 125.741C127.115 131.082 143.419 114.634 143.581 114.467L144.806 115.651C144.637 115.824 127.638 132.974 105.803 127.389C88.5956 122.988 82.4191 112.548 80.4919 107.993C79.8358 115.64 78.3393 141.022 86.4833 148.436C90.3296 148.459 122.98 148.687 126.703 149.893C128.88 150.598 130.214 152.127 129.948 153.61C129.689 155.051 127.975 156.69 121.524 156.69Z" fill="#1D3444"/>
<path d="M126.423 150.851L124.847 150.2L126.714 145.705C126.126 145.897 125.141 146.404 123.628 147.688L123.228 148.028L122.744 147.825C122.687 147.801 116.12 145.294 89.194 146.119L88.7652 146.133L88.4988 145.797C88.4339 145.715 87.2943 144.266 86.4857 142.43C85.8538 144.148 85.3444 146.736 86.847 148.782L85.4698 149.786C82.322 145.498 85.7609 139.905 85.9085 139.67L87.0715 137.816L87.4707 139.966C87.8074 141.775 89.0501 143.658 89.587 144.406C112.932 143.717 120.943 145.5 122.894 146.084C126.763 142.936 128.226 143.968 128.591 144.37L128.95 144.769L126.423 150.851Z" fill="#1D3444"/>
<path d="M125.282 140.133L124.1 139.175C122.782 138.107 122.12 135.293 121.851 133.79C105.642 137.409 91.6607 131.54 88.2415 129.921C87.104 132.406 87.0119 135.294 87.0111 135.327L86.9556 137.366L85.5418 135.891C81.9064 132.095 81.8155 126.245 81.8723 124.552C80.6204 123.531 78.5818 121.551 78.4868 121.459L79.6774 120.241C79.7025 120.265 82.1785 122.669 83.2589 123.477L83.6343 123.757L83.5973 124.225C83.5927 124.283 83.2301 129.279 85.5426 133.097C85.7737 131.73 86.2283 129.939 87.1229 128.366L87.5311 127.648L88.2637 128.034C88.4224 128.117 104.323 136.327 122.351 131.927L123.281 131.7L123.4 132.647C123.522 133.613 123.805 135.011 124.207 136.141C124.949 132.731 126.826 126.351 130.913 123.092L131.979 124.419C126.895 128.474 125.498 138.527 125.485 138.628L125.282 140.133Z" fill="#1D3444"/>
<path d="M122.281 147.354C119.278 139.766 123.155 136.843 123.321 136.722L124.334 138.091C124.212 138.184 121.38 140.443 123.869 146.729L122.281 147.354Z" fill="#1D3444"/>
<path d="M137.788 94.6823C134.238 94.6823 131.457 89.8893 131.457 83.7711C131.457 77.653 134.238 72.86 137.788 72.86C141.339 72.86 144.12 77.653 144.12 83.7711C144.12 89.8889 141.339 94.6823 137.788 94.6823ZM137.788 74.5601C135.281 74.5601 133.162 78.7778 133.162 83.7707C133.162 88.7637 135.281 92.9814 137.788 92.9814C140.296 92.9814 142.414 88.7633 142.414 83.7707C142.414 78.7782 140.296 74.5601 137.788 74.5601Z" fill="#1D3444"/>
<path d="M85.9153 86.9682C85.431 86.9682 84.9512 86.9128 84.4781 86.8014C78.9487 85.4975 76.3813 77.0413 78.6338 67.5491C79.6879 63.1106 81.6583 59.1543 84.1829 56.411C86.8279 53.5353 89.7875 52.3072 92.5135 52.9485C98.0437 54.2528 100.61 62.709 98.3578 72.2003C97.3037 76.6397 95.3333 80.5951 92.8087 83.3389C90.6224 85.7159 88.2216 86.9682 85.9153 86.9682ZM91.0821 54.4843C89.2584 54.4843 87.2917 55.5472 85.4396 57.5604C83.1087 60.0935 81.2813 63.7797 80.2938 67.9413C78.3292 76.2193 80.425 84.0982 84.8711 85.1464C86.9718 85.6438 89.3423 84.5911 91.5511 82.1899C93.8817 79.6564 95.7095 75.9697 96.6969 71.8086C98.6616 63.531 96.5658 55.6521 92.1197 54.6039C91.7809 54.5236 91.4335 54.4843 91.0821 54.4843Z" fill="#1D3444"/>
<path d="M80.5227 14.4271C79.6364 14.4271 78.7073 13.8875 78.082 12.9684C77.2956 11.8132 77.2676 10.493 78.0072 9.52268C78.8701 8.39174 88.0262 -0.670156 91.7229 0.039552C94.0135 0.481685 95.3155 3.38608 95.769 4.61455C95.9022 4.97596 97.045 8.17866 96.1127 9.34074C95.3422 10.3 87.5103 12.5959 81.0757 14.353C80.896 14.4025 80.7098 14.4271 80.5227 14.4271ZM91.1967 1.6913C88.7255 1.6913 80.8483 8.60809 79.3655 10.5524C79.0279 10.9945 79.2105 11.5973 79.4937 12.0136C79.8518 12.5406 80.3624 12.7848 80.6218 12.7139L80.6251 12.7131C86.8217 11.0212 93.6563 8.93754 94.7577 8.27168C94.8654 7.70374 94.5348 5.58978 93.4988 3.73069C92.8481 2.56287 92.1023 1.84496 91.3993 1.70933C91.336 1.69704 91.2682 1.6913 91.1967 1.6913Z" fill="#1D3444"/>
<path d="M169.807 48.3124L169.332 47.8642C169.298 47.8326 165.965 44.6914 163.972 43.5145C161.951 42.3205 158.014 40.7171 157.974 40.7011L157.401 40.4688L157.445 39.8537C157.534 38.6105 158.064 37.5943 159.021 36.833C161.36 34.9714 165.423 35.3513 167.062 35.602C170.464 36.1212 173.6 37.2542 173.508 41.9853C173.428 46.0526 170.489 47.8953 170.364 47.9715L169.807 48.3124ZM159.249 39.3878C160.477 39.9033 163.198 41.0801 164.842 42.0521C166.512 43.0384 168.906 45.1614 169.968 46.1317C170.639 45.5183 171.76 44.1689 171.802 41.9521C171.86 39.0039 170.646 37.8692 166.804 37.2825C163.855 36.8317 161.343 37.1612 160.086 38.1614C159.667 38.4949 159.39 38.8998 159.249 39.3878Z" fill="#1D3444"/>
<path d="M256.007 180.282C256.007 180.282 250.033 172.486 245.78 171.716C241.528 170.947 240.718 171.109 242.317 169.509C243.917 167.91 245.558 167.221 249.142 167.808C252.726 168.396 273.585 177.852 273.585 177.852L277.108 180.135C277.108 180.135 275.908 177.13 279.25 176.886C282.591 176.642 287.922 179.178 288.409 180.089C288.895 181.001 288.727 185.42 288.727 185.42C288.727 185.42 289.882 188.791 289.381 190.932C288.879 193.074 285.157 199.216 283.722 199.362C282.287 199.508 279.22 199.362 279.22 199.362C279.22 199.362 272.663 197.672 268.922 194.76C265.181 191.847 258.931 184.726 258.931 184.726L256.007 180.282Z" fill="#2A86E6"/>
<path d="M320.114 191.351C320.114 191.351 311.646 191.115 312.224 187.166C312.801 183.218 315.443 180.666 315.443 180.666C315.443 180.666 313.985 177.325 317.631 175.26C321.276 173.195 325.665 173.775 327.632 174.199C329.599 174.622 331.332 176.296 331.18 176.475C331.028 176.653 331.189 178.205 331.189 178.205C331.189 178.205 341.385 180.666 347.126 183.096C352.867 185.526 359.672 191.449 361.524 192.846C363.377 194.243 364.983 199.634 363.499 202.14C362.014 204.646 360.795 206.757 354.659 206.787C348.523 206.818 343.477 204.217 343.477 204.217L331.361 196.643L320.114 191.351Z" fill="#2A86E6"/>
<path d="M216.156 157.464C216.156 157.464 204.201 159.345 202.836 156.611C201.471 153.877 206.131 151.72 206.131 151.72C206.131 151.72 218.143 148.377 221.077 145.478C224.011 142.578 223.415 140.027 223.415 140.027C223.415 140.027 217.011 141.879 212.218 139.495C207.425 137.111 212.087 135.154 212.087 135.154C212.087 135.154 217.571 133.284 219.272 131.462C220.973 129.64 225.274 128.428 225.274 128.428C225.274 128.428 234.756 128.534 235.803 128.88C236.85 129.227 239.065 130.679 239.508 131.534C239.951 132.389 240.778 133.734 240.778 133.734C240.778 133.734 244.527 135.037 244.81 139.415C245.094 143.793 244.231 152.708 240.53 158.79C236.829 164.872 232.664 167.975 229.579 169.735C226.493 171.495 221.976 174.4 220.077 172.764C218.178 171.129 220.304 168.456 220.304 168.456L226.284 161.774C226.284 161.774 212.832 168.764 208.214 166.97C203.597 165.176 211.397 160.7 211.397 160.7L216.467 158.118L216.156 157.464Z" fill="#A8B7C1"/>
<path d="M357.764 122.957C357.764 122.957 357.82 121.038 359.58 119.92C361.34 118.802 368.295 112.511 368.295 112.511C368.295 112.511 369.542 111.919 370.067 113.092C370.591 114.265 374.48 107.832 374.48 107.832C374.48 107.832 380.312 94.9077 381.904 94.1984C383.494 93.4893 386.093 92.7177 386.977 96.3259C387.86 99.9344 387.072 107.847 382.606 112.355C378.14 116.862 374.569 121.971 374.569 121.971C374.569 121.971 380.496 119.185 381.975 118.135C383.454 117.085 388.796 112.278 391.654 109.447C394.513 106.616 396.032 102.455 398.128 102.486C400.223 102.516 400.134 105.18 400.375 107.193C400.616 109.207 399.233 114.737 397.064 116.427C394.896 118.117 389.76 122.719 389.76 122.719C389.76 122.719 389.765 123.728 390.104 125.56C390.442 127.392 389.674 135.313 388.923 137.283C388.173 139.252 387.24 140.33 387.101 140.604C386.962 140.878 379.938 142.343 375.892 142.457C371.846 142.57 367.812 142.274 367.812 142.274C367.812 142.274 365.529 145.509 362.463 145.547C359.398 145.585 354.446 144.826 354.112 143.398C353.778 141.971 354.518 140.438 354.542 140.285C354.565 140.131 355.254 134.403 354.386 130.777C353.517 127.15 353.17 124.818 353.17 124.818C353.17 124.818 356.724 129.427 356.724 129.548C356.724 129.67 357.697 126.784 357.697 126.784L357.764 122.957Z" fill="#D3DDE5"/>
<path d="M260.583 50.3046C260.583 50.3046 256.057 53.1293 256.574 49.7275C257.09 46.3256 258.045 42.2828 261.547 40.6595C265.049 39.0361 265.697 38.9512 267.23 40.4401C268.764 41.9289 270.952 44.9893 270.952 44.9893L260.583 50.3046Z" fill="url(#paint3_linear_121_746)"/>
<path d="M316.983 20.4376C316.983 20.4376 315.064 20.2807 316.492 17.5926C317.919 14.9046 321.078 12.5355 325.194 12.5355C329.31 12.5355 329.948 15.8006 330.085 17.3952C330.222 18.9898 330.373 21.6323 330.373 21.6323L317.934 20.478L316.983 20.4376Z" fill="url(#paint4_linear_121_746)"/>
<path d="M354.676 91.1586C353.051 91.1136 349.074 89.4268 349.074 89.4268L353.594 96.3738C353.594 96.3738 358.199 106.034 357.209 104.148C356.215 102.262 350.543 100.064 350.543 100.064C350.543 100.064 352.426 103.529 354.904 109.119C357.382 114.709 357.62 120.005 357.516 124.327C357.416 128.648 356.538 129.797 356.09 128.666C355.647 127.533 352.902 124.426 352.902 124.426C352.902 124.426 354.669 130.4 354.729 136.791C354.785 143.182 351.11 149.658 351.11 149.658C351.154 147.926 349.365 145.408 349.365 145.408C349.645 152.669 339.118 160.959 339.118 160.959C339.762 158.609 338.122 156.44 338.122 156.44C337.816 162.925 328.389 168.251 328.389 168.251C328.752 161.688 324.952 161.72 324.952 161.72C325.12 166.958 321.326 170.584 320.095 171.62C319.857 171.817 319.712 171.923 319.712 171.923C319.78 171.776 319.833 171.627 319.872 171.481C320.664 168.636 317.197 165.015 317.197 165.015C318.167 167.959 315.166 173.22 315.166 173.22C315.035 173.149 314.901 173.064 314.774 172.966C312.361 171.143 310.727 165.106 310.727 165.106C306.507 168.454 307.316 174.116 307.316 174.116C302.256 174.586 293.846 170.833 293.584 170.718C296.715 175.225 303.066 174.453 296.771 174.538C290.474 174.619 282.426 166.831 282.426 166.831L283.641 170.313C283.641 170.313 283.577 170.863 280.385 169.493C277.257 168.156 270.581 161.88 270.3 161.62C270.425 161.876 272.897 166.931 272.104 166.503C271.29 166.059 264.981 161.82 260.505 154.895C256.034 147.969 253.893 138.266 253.893 138.266C253.893 138.266 253.184 144.101 254.717 149.422C256.249 154.738 259.839 158.196 255.089 154.297C250.344 150.398 246.46 141.011 245.33 136.575C244.206 132.143 244.563 122.764 244.563 122.764C243.772 122.99 241.608 127.569 241.608 127.569C241.608 127.569 241.206 127.095 240.961 124.03C240.717 120.97 243.877 116.741 243.877 116.741C239.979 118.838 235.333 116.664 235.333 116.664C242.014 114.999 242.08 106.936 244.366 100.015C246.651 93.0944 251.138 87.1403 251.138 87.1403C251.138 87.1403 251.138 87.1403 251.143 87.1393C251.485 86.8093 271.849 67.347 273.296 65.9551C273.434 65.8198 273.577 65.6374 273.721 65.409C275.062 63.302 276.413 57.7053 276.413 57.7053L279.184 64.3817C279.184 64.3817 281.154 61.6821 283.081 55.7543C285.003 49.8275 284.975 40.7046 284.975 40.7046C284.975 40.7046 285.231 41.0108 285.597 41.5659C286.399 42.7896 287.734 45.2303 288.012 48.2887C288.417 52.7277 290.299 57.1495 289.961 55.4739C289.621 53.7935 291.94 45.4493 291.94 45.4493C291.94 45.4493 292.393 48.4618 293.593 51.2419C294.788 54.0229 296.82 58.5164 296.276 56.8365C295.737 55.1555 296.778 49.8773 296.778 49.8773C296.778 49.8773 300.432 56.0838 301.137 57.4294C300.983 56.6218 301.39 54.3713 301.39 54.3713C301.39 54.3713 304.23 57.6584 309.488 59.2296C314.592 60.7604 337.906 72.9664 339.212 73.6485C339.251 73.6714 339.272 73.6825 339.272 73.6825C339.272 73.6825 340.585 74.7364 343.78 78.4278C346.974 82.119 349.583 85.8262 351.059 87.3024C352.534 88.7737 356.301 91.2036 354.676 91.1586Z" fill="url(#paint5_linear_121_746)"/>
<path d="M315.436 172.716C312.504 170.883 310.727 165.106 310.727 165.106C306.507 168.454 307.315 174.116 307.315 174.116C302.256 174.586 293.846 170.834 293.584 170.718C296.714 175.225 303.066 174.453 296.77 174.539C290.474 174.62 282.426 166.831 282.426 166.831L283.641 170.313C283.641 170.313 283.577 170.863 280.384 169.494C277.257 168.157 270.581 161.881 270.3 161.62C270.424 161.877 272.896 166.931 272.104 166.503C271.289 166.059 264.981 161.821 260.505 154.896C256.034 147.97 254.569 138.61 254.569 138.61C254.569 138.61 253.184 144.102 254.717 149.422C256.249 154.738 259.839 158.196 255.089 154.298C250.343 150.398 246.46 141.011 245.33 136.575C244.205 132.144 245.11 123.302 245.11 123.302C244.319 123.528 241.608 127.57 241.608 127.57C241.608 127.57 241.205 127.096 240.961 124.031C240.717 120.971 242.783 117.349 242.783 117.349C238.885 119.446 235.167 116.72 235.167 116.72C240.758 115 242.08 106.937 244.365 100.016C246.651 93.0949 251.138 87.1407 251.138 87.1407C251.138 87.1407 251.138 87.1407 251.143 87.1398C251.588 88.8602 250.803 90.1223 256.682 97.4595C256.682 97.4595 255.584 109.341 247.772 116.033C247.772 116.033 256.847 114.498 259.442 112.884C259.442 112.884 254.409 118.376 254.499 125.446C254.58 125.24 255.903 121.966 260.829 120.664C260.829 120.664 259.186 128.79 262.955 136.916C262.955 136.916 262.906 133.346 264.379 131.003C264.379 131.003 269.661 142.976 264.556 145.414C264.556 145.414 268.459 145.459 269.653 141.444C269.653 141.444 272.144 148.038 276.766 151.641C276.766 151.641 275.822 149.499 275.121 145.98C275.121 145.98 278.858 154.476 284.303 159.451C284.303 159.451 283.091 156.755 283.049 153.25C283.049 153.25 291.306 167.722 301.841 170.354C301.735 170.217 298.492 163.805 297.977 160.268C297.977 160.268 302.021 167.949 307.519 168.344C307.519 168.344 308.66 164.054 312.508 161.422C312.508 161.422 312.914 168.285 315.436 172.716Z" fill="#214AA5"/>
<path d="M280.814 72.8331C280.814 72.8331 275.914 66.9398 273.721 65.409C275.062 63.302 276.413 57.7053 276.413 57.7053L279.184 64.3817C279.184 64.3817 281.154 61.6821 283.081 55.7543C285.003 49.8275 284.975 40.7046 284.975 40.7046C284.975 40.7046 285.231 41.0108 285.597 41.5659C286.498 45.5465 288.841 59.6174 280.814 72.8331Z" fill="#214AA5"/>
<path d="M354.676 91.1586C353.051 91.1136 349.074 89.4267 349.074 89.4267L353.593 96.3738C353.593 96.3738 358.199 106.034 357.209 104.148C356.215 102.262 350.543 100.064 350.543 100.064C350.543 100.064 352.426 103.529 354.904 109.119C357.382 114.709 357.62 120.005 357.515 124.327C357.415 128.648 356.538 129.797 356.09 128.666C355.647 127.533 352.902 124.426 352.902 124.426C352.902 124.426 354.669 130.4 354.729 136.791C354.785 143.182 351.109 149.658 351.109 149.658C351.153 147.925 349.364 145.408 349.364 145.408C349.645 152.669 339.117 160.959 339.117 160.959C339.762 158.609 338.121 156.44 338.121 156.44C337.816 162.925 328.389 168.251 328.389 168.251C328.751 161.688 324.951 161.72 324.951 161.72C325.119 166.958 321.325 170.584 320.094 171.62C319.95 171.532 319.663 168.889 319.663 168.889C324.837 165.365 323.919 155.568 323.919 155.568C328.855 158.917 329.646 163.328 329.646 163.328C332.362 160.222 330.863 153.304 330.863 153.304C333.259 155.566 333.735 158.826 333.735 158.826C337.807 153.907 336.563 147.673 336.563 147.673C339.922 149.551 340.576 153.704 340.576 153.704C342.871 149.405 340.652 140.904 340.652 140.904C343.215 143.137 343.917 146.442 343.917 146.442C346.51 140.293 343.46 130.937 343.46 130.937C346.337 132.212 349.846 131.825 349.846 131.825C344.419 129.659 342.724 121.563 342.724 121.563C346.247 122.447 348.556 125.755 348.556 125.755C346.689 113.797 339.286 104.553 339.286 104.553C343.572 104.71 347.088 107.896 347.088 107.896C345.098 98.6072 338.3 91.6094 338.091 91.3908C340.152 91.9817 342.037 92.8538 342.155 92.9068C339.617 88.7557 335.908 86.0581 335.908 86.0581C338.431 82.214 339.06 76.2006 339.211 73.6488C339.25 73.6717 339.272 73.6828 339.272 73.6828C339.272 73.6828 340.585 74.7367 343.779 78.4281C346.973 82.1192 349.582 85.8265 351.058 87.3027C352.534 88.7737 356.301 91.2036 354.676 91.1586Z" fill="#DD00AC"/>
<path d="M316.093 163.35L314.744 161.194C314.744 161.194 324.403 163.695 320.491 171.273L319.016 168.874C319.016 168.874 318.423 164.797 316.093 163.35Z" fill="#DD00AC"/>
<path d="M311.746 61.0056C311.746 61.0056 307.29 63.3551 303.653 60.084C303.653 60.084 304.557 62.4156 306.102 63.7657C306.102 63.7657 294.323 60.8187 296.538 49.6956C296.538 49.6956 300 56.7308 300.819 57.4179C301.638 58.1047 300.727 54.3758 301.318 54.8065C301.909 55.2373 306.2 59.541 311.878 60.1339L311.746 61.0056Z" fill="#DD00AC"/>
<path d="M296.694 61.405C296.694 61.405 289.476 58.9216 290.38 47.9355L292.518 44.9465C292.518 44.9465 293.535 56.0771 296.694 61.405Z" fill="#DD00AC"/>
<path d="M251.775 97.8052L256.682 97.4592C256.682 97.4592 258.248 101.391 256.682 105.522C256.682 105.522 262.771 97.2617 267.449 96.1682C267.449 96.1682 261.799 90.2152 260.827 88.4535C259.855 86.6918 257.522 81.0405 257.522 81.0405C257.522 81.0405 251.471 86.4488 250.681 88.6357C249.891 90.8225 249.102 93.7928 251.775 97.8052Z" fill="#214AA5"/>
<path d="M337.861 86.3013L335.908 86.0578C335.908 86.0578 337.347 87.9823 337.861 89.729C337.861 89.729 333.137 84.2936 327.837 83.1843C327.837 83.1843 329.623 78.6428 330.632 72.8331C331.64 67.0233 332.316 68.5359 332.849 68.9097C333.382 69.2834 340.413 75.1498 340.473 76.3647C340.534 77.5797 342.661 80.1401 337.861 86.3013Z" fill="#DD00AC"/>
<path d="M326.845 12.2571C326.845 12.2571 328.728 19.9112 325.771 20.7211L330.795 21.5338C330.795 21.5338 331.057 14.0998 326.845 12.2571Z" fill="#DD00AC"/>
<path d="M263.075 39.4146C263.075 39.4146 266.416 43.9262 266.295 46.8724L271.307 44.4425C271.307 44.4425 267.418 38.6996 263.075 39.4146Z" fill="#DD00AC"/>
<path d="M288.874 129.781C288.874 129.781 287.862 126.46 288.672 124.557C289.482 122.654 290.778 123.18 291.426 123.099C292.074 123.018 301.997 122.532 305.602 120.183C309.207 117.834 310.908 116.295 311.151 116.295C311.394 116.295 312.447 120.467 312.447 120.467C312.447 120.467 314.269 116.538 314.391 114.595C314.512 112.651 315.687 105.685 315.687 105.685C315.687 105.685 317.469 104.349 317.671 104.268C317.874 104.187 318.484 103.984 318.382 104.632C318.279 105.28 318.238 114.837 314.958 119.981C311.677 125.124 312.487 127.554 307.627 131.968C302.767 136.382 302.362 136.139 302.362 136.139L299.769 130.631C299.769 130.631 299.324 134.803 294.707 135.896C290.089 136.99 288.672 135.815 288.672 135.815C288.672 135.815 289.765 135.572 288.874 129.781Z" fill="#1B3B4F"/>
<path d="M292.661 105.203C294.045 105.203 295.167 103.656 295.167 101.749C295.167 99.8409 294.045 98.2943 292.661 98.2943C291.277 98.2943 290.155 99.8409 290.155 101.749C290.155 103.656 291.277 105.203 292.661 105.203Z" fill="#1B3B4F"/>
<path d="M285.192 103.607C284.267 105.744 282.475 107.024 281.19 106.468C279.904 105.912 279.612 103.729 280.537 101.592C281.462 99.456 283.253 98.1753 284.539 98.7315C285.825 99.288 286.117 101.471 285.192 103.607Z" fill="#1B3B4F"/>
<path d="M284.794 118.675C284.794 118.675 283.184 119.023 284.794 121.416C286.404 123.808 288.065 126.784 288.065 126.784L288.742 122.866C288.742 122.866 296.063 123.352 300.711 121.773C305.358 120.193 310.978 116.245 310.978 116.245L312.254 119.725C312.254 119.725 314.539 115.952 314.806 112.722C315.071 109.491 314.806 106.222 314.806 106.222C314.806 106.222 303.657 111.962 298.159 114.665C292.661 117.369 284.794 118.675 284.794 118.675Z" fill="#D3DDE5"/>
<path d="M284.944 139.839C284.944 139.839 284.014 134.357 284.379 133.75C284.743 133.142 285.232 135.596 289.888 136.252C294.545 136.909 296.691 135.572 297.623 134.033C298.554 132.494 299.931 130.469 299.931 130.469C299.931 130.469 302.442 134.317 302.321 135.41C302.199 136.503 300.012 139.055 298.554 139.095C297.096 139.136 289.519 138.315 284.944 139.839Z" fill="#D3DDE5"/>
<path d="M241.005 177.244C241.005 177.244 239.814 172.054 242.351 171.571C244.889 171.089 249.729 174.408 249.729 174.408L257.473 182.51L265.039 190.973C265.039 190.973 270.466 197.534 276.359 199.154C282.252 200.774 277.027 200.166 276.136 200.227C275.245 200.288 263.135 197.696 262.042 196.845C260.948 195.995 251.977 189.333 251.977 189.333C251.977 189.333 245.517 185.061 243.836 182.469C242.155 179.877 241.005 177.244 241.005 177.244Z" fill="#D3DDE5"/>
<path d="M317.469 193.626C317.469 193.626 312.271 191.948 313.078 189.638C313.078 189.638 320.81 191.803 324.82 193.747C328.829 195.691 338.518 201.377 340.154 202.472C341.79 203.568 347.926 206.239 353.819 206.979C359.712 207.719 363.557 203.407 363.499 203.183C363.441 202.96 364.897 201.117 364.958 201.826C365.018 202.535 365.423 209.784 357.525 210.655C349.627 211.525 344.69 208.182 344.69 208.182L332.88 201.259C332.88 201.259 324.658 196.643 323.929 196.238C323.2 195.833 317.469 193.626 317.469 193.626Z" fill="#D3DDE5"/>
<path d="M210.888 135.107V136.838C210.888 136.838 210.827 135.896 217.479 135.107C224.132 134.317 223.767 131.158 228.172 131.31C232.576 131.462 236.86 132.464 237.042 135.896L237.285 136.838C237.285 136.838 240.262 136.838 241.446 139.48C242.631 142.123 243.286 147.993 242.327 152.632C241.369 157.271 244.733 148.683 245.11 146.952C245.486 145.221 245.01 139.669 244.534 137.843C244.059 136.018 242.219 134.055 241.058 133.852C239.897 133.649 239.508 131.534 239.508 131.534C239.508 131.534 236.909 128.665 232.024 128.742C227.139 128.819 225.027 128.119 223.502 128.896C221.977 129.674 218.786 133.588 215.657 134.438C212.528 135.289 210.888 135.107 210.888 135.107Z" fill="#D3DDE5"/>
<path d="M204.347 157.846C204.347 157.846 204.082 155.95 209.329 153.108C212.245 151.528 213.095 153.796 213.095 153.796C213.095 153.796 213.055 152.662 212.245 151.528C212.245 151.528 216.579 150.516 218.401 149.625C218.401 149.625 220.345 150.921 220.345 152.055C220.345 152.055 220.831 150.8 219.13 149.18C219.13 149.18 223.718 148.329 223.794 142.255C223.794 142.255 221.791 146.061 217.267 147.681C212.744 149.301 203.684 152.808 203.307 153.991C202.929 155.173 202.565 156.833 204.347 157.846Z" fill="#D3DDE5"/>
<path d="M208.215 166.97C208.215 166.97 208.701 164.326 212.711 162.139C216.721 159.952 217.571 162.139 217.571 162.139C217.571 162.139 217.632 160.551 216.842 159.674C216.842 159.674 220.913 158.13 221.46 157.34C222.006 156.55 223.724 158.676 223.724 158.676C223.724 158.676 223.221 156.995 222.796 156.347C222.371 155.699 225.431 153.371 225.431 153.371L224.74 152.844C224.74 152.844 221.703 155.153 220.123 155.942C218.543 156.732 208.485 162.784 208.485 162.784C208.485 162.784 206.089 165.787 208.215 166.97Z" fill="#D3DDE5"/>
<path d="M230.025 159.618C230.025 159.618 228.022 162.017 228.067 162.716C228.111 163.414 229.448 163.627 229.66 165.389C229.66 165.389 228.202 163.414 226.927 164.022C225.651 164.629 225.226 166.148 224.648 166.664C224.071 167.181 225.894 167.97 226.046 169.125C226.046 169.125 224.557 167.454 223.251 168.183C221.945 168.912 220.76 170.431 220.608 171.008C220.456 171.585 220.638 172.253 221.094 172.648C221.55 173.043 219.321 172.353 219.294 171.193C219.268 170.033 220.304 167.94 220.304 167.94L224.893 163.328L228.506 159.253L230.025 159.618Z" fill="#D3DDE5"/>
<path d="M384.378 92.8877L382.916 93.8138C382.916 93.8138 385.269 97.9886 382.11 105.522C378.95 113.055 373.037 121.884 373.037 121.884C373.037 121.884 373.361 123.423 373.685 123.423C374.009 123.423 382.758 112.408 384.864 108.844C386.97 105.28 388.015 101.152 387.209 97.7082C386.403 94.2646 385.349 93.6006 385.349 93.6006L384.378 92.8877Z" fill="white"/>
<path d="M399.363 102.283V103.498C399.363 103.498 397.176 110.95 393.774 114.514C390.372 118.077 384.56 124.104 375.801 127.489L377.654 129.704C377.654 129.704 386.618 125.608 393.395 119.575C400.173 113.542 400.403 109.897 400.403 109.897C400.403 109.897 400.983 105.361 399.363 102.283Z" fill="white"/>
<path d="M384.519 126.663C384.519 126.663 387.192 126.966 386.888 131.583C386.585 136.2 386.854 140.026 385.187 140.756C383.521 141.486 387.042 141.214 387.983 139.248C388.924 137.283 390.594 128.85 390.594 128.85L389.258 123.2L384.519 126.663Z" fill="white"/>
<path d="M364.855 116.503C364.855 116.503 366.313 115.242 368.015 118.32C369.716 121.398 372.827 130.875 378.886 133.871V131.36C378.886 131.36 374.576 125.448 373.199 122.289C371.822 119.13 370.823 114.667 370.067 113.092C369.311 111.517 367.511 113.216 367.317 113.39C367.123 113.563 364.855 116.503 364.855 116.503Z" fill="white"/>
<path d="M368.405 141.849C368.405 141.849 369.23 139.987 372.227 138.691C375.224 137.395 377.492 136.423 377.492 136.423C377.492 136.423 373.199 136.99 372.389 136.706C371.579 136.423 368.906 137.759 368.906 137.759C368.906 137.759 367.054 140.149 368.405 141.849Z" fill="#A8B7C1"/>
<path d="M366.03 126.865C366.03 126.865 363.6 131.239 363.519 134.762C363.438 138.286 361.934 145.466 356.489 145.197C356.489 145.197 360.198 146.877 363.479 145.902C366.759 144.927 367.911 141.849 367.911 141.849C367.911 141.849 367.164 139.46 368.906 137.759C370.647 136.058 370.647 136.058 370.647 136.058C370.647 136.058 366.759 134.56 366.354 131.077C365.949 127.594 366.03 126.865 366.03 126.865Z" fill="#A8B7C1"/>
<path d="M318.919 174.646C318.919 174.646 322.612 175.852 322.324 177.994L321.914 178.814C321.914 178.814 344.524 183.684 352.786 193.16C361.049 202.636 357.305 197.777 361.121 198.182C364.937 198.587 364.367 200.219 364.367 200.219C364.367 200.219 363.381 194.858 361.121 192.389C358.861 189.92 347.126 183.096 347.126 183.096L331.189 178.205C331.189 178.205 330.474 175.977 329.075 174.727C327.675 173.478 318.919 174.646 318.919 174.646Z" fill="#D24BB4"/>
<path d="M258.519 171.272C258.519 171.272 275.489 183.602 279.124 187.996C282.759 192.391 281.058 199.017 281.058 199.017C281.058 199.017 283.227 199.287 283.722 199.362C284.217 199.437 289.978 196.599 289.512 189.638L288.409 185.318C288.409 185.318 288.925 182.276 287.345 179.786C285.766 177.295 278.992 176.293 278.05 177.143C277.109 177.994 276.319 179.391 276.319 179.391L262.483 172.954L258.519 171.272Z" fill="#D24BB4"/>
<path d="M284.589 121.093C284.589 121.093 305.541 115.607 309.946 111.962C309.946 111.962 313.281 115.118 312.054 120.268C312.054 120.268 314.16 117.919 314.502 115.06C314.844 112.202 315.11 106.07 315.11 106.07C315.11 106.07 312.649 107.862 305.541 111.446C298.433 115.03 283.336 119.373 283.336 119.373L284.589 121.093Z" fill="#ABC1D3"/>
<path d="M290.474 123.474L288.065 122.107C288.065 122.107 305.389 121.287 310.887 114.605C310.887 114.605 309.481 118.354 303.714 120.519C297.946 122.684 290.474 123.474 290.474 123.474Z" fill="white"/>
<path d="M285.106 134.152C285.106 134.152 285.472 137.152 290.494 137.597C295.516 138.043 297.582 136.382 298.756 133.426C299.931 130.47 297.32 136.036 294.11 136.25C290.899 136.464 287.656 136.255 285.106 134.152Z" fill="white"/>
<path d="M298.665 175.457C291.239 175.457 286.611 171.752 284.208 169.021C284.682 170.213 285.233 170.845 285.242 170.856L286.947 172.772L284.491 172.041C279.038 170.413 274.954 166.985 272.351 164.176C273.3 165.955 274.088 166.927 274.102 166.943L276.275 169.59L273.213 168.058C261.645 162.271 256.794 149.55 254.938 142.55C255.046 150.563 258.965 156.798 259.013 156.872L260.819 159.696L258.003 157.877C243.881 148.754 243.905 130.886 244.291 125.282C242.767 126.744 241.879 128.596 241.868 128.619L241.012 130.431L240.503 128.493C239.382 124.213 240.82 120.375 241.994 118.174C237.51 119.497 234.834 117.388 234.707 117.285L233.563 116.356L234.996 116.011C239.485 114.929 240.427 111.886 242.137 106.363C243.346 102.456 244.852 97.5931 248.156 91.5546C253.797 81.2463 260.852 76.5739 266.003 73.1622C268.304 71.6388 270.291 70.3227 271.601 68.8724C275.723 64.3136 275.53 58.9413 275.528 58.8878L275.402 56.1153L276.874 58.4673C277.985 60.2432 278.995 62.6802 279.566 64.1688C285.43 55.0668 283.81 39.9732 283.792 39.8156L283.247 34.9825L285.185 39.4432C287.919 45.7341 288.716 50.3035 289.314 53.9871C289.584 49.2717 291.362 45.6087 291.45 45.4305L292.473 43.356L292.825 45.6416C293.479 49.8947 294.065 52.9136 294.933 55.4802C294.701 51.9578 296.021 49.8246 296.082 49.7269L297.005 48.2704L297.408 49.9467C297.96 52.2512 298.966 54.3489 299.95 56.0118C299.861 55.3294 299.836 54.8514 299.834 54.796L299.714 52.2854L301.159 54.3422C304.488 59.0818 308.841 59.9309 314.353 61.0054C317.443 61.6076 320.944 62.29 324.748 63.775C333.215 67.08 340.349 73.0413 347.201 82.5352C351.011 87.8164 356.087 90.8033 356.137 90.8329L357.996 91.914L355.864 92.1864C354.034 92.418 352.258 92.0653 350.703 91.4878C356.331 98.2511 358.555 106.302 358.667 106.716L360.554 113.711L357.311 107.232C356.041 104.694 353.702 102.703 351.91 101.453C362.002 119.389 357.763 130.517 357.569 131.003L356.705 133.166L356.181 130.896C355.846 129.441 354.972 127.805 354.029 126.35C358.623 140.928 351.482 150.246 351.401 150.349L349.99 152.139L350.101 149.862C350.144 148.975 350.081 148.15 349.966 147.419C348.09 155.361 339.912 161.419 339.515 161.709L337.515 163.169L338.404 160.859C338.638 160.251 338.73 159.572 338.738 158.901C336.326 164.965 329.476 168.691 329.13 168.876L327.964 169.5L328.06 168.18C328.204 166.2 327.272 163.971 326.416 162.382C325.853 168.997 320.943 172.309 320.709 172.463L319.515 173.249L319.58 171.821C319.675 169.715 319.133 168.114 318.519 166.999C318.321 170.335 315.931 173.233 315.802 173.387L315.343 173.935L314.786 173.487C312.057 171.292 310.94 168.543 310.494 166.914C307.932 169.962 308.562 174.312 308.57 174.36L308.697 175.189L307.858 175.201C303.291 175.255 299.806 174.238 297.333 173.079C298.293 173.747 299.033 174.041 299.049 174.048L302.616 175.435L298.789 175.456C298.748 175.456 298.706 175.457 298.665 175.457ZM281.948 162.49L283.465 165.511C283.625 165.826 287.142 172.572 295.862 173.806C294.723 172.904 293.455 171.581 292.574 169.737L290.416 165.218L293.773 168.934C293.815 168.98 298.127 173.587 307.048 173.741C306.95 171.938 307.118 167.675 310.471 164.888L311.529 164.01L311.663 165.377C311.667 165.414 312.074 169.03 315.125 171.854C316.008 170.577 317.815 167.47 316.74 164.734L315.778 162.291L317.862 163.889C317.987 163.985 320.641 166.073 321.007 170.345C322.637 168.82 325.442 165.353 324.954 159.878L324.725 157.308L326.264 159.378C326.394 159.552 329.119 163.256 329.49 166.958C331.952 165.376 337.908 160.942 338.107 154.994L338.238 151.075L339.524 154.779C339.565 154.897 340.296 157.042 340.182 159.28C343.091 156.734 349.121 150.618 348.882 143.834L348.772 140.734L350.251 143.461C350.297 143.546 351.13 145.109 351.449 147.471C353.425 143.638 356.611 134.463 350.773 122.038L348.678 117.578L351.975 121.24C352.13 121.413 355.141 124.78 356.762 128.233C357.498 123.951 357.847 113.739 349.182 99.6982L347.853 97.5446L350.124 98.6613C350.293 98.7443 353.1 100.145 355.632 102.617C353.967 98.7036 350.942 93.027 346.175 88.9457C345.679 88.5659 345.381 88.2969 345.333 88.2538L346.275 87.1423C346.529 87.3417 346.779 87.5458 347.024 87.7531C348.169 88.6272 350.581 90.2347 353.308 90.6822C351.387 89.2641 348.481 86.8016 346.017 83.3883C339.338 74.132 332.411 68.3313 324.217 65.1331C320.536 63.6956 317.103 63.0264 314.074 62.4361C309.284 61.5026 305.052 60.6772 301.634 57.1962C301.853 58.1896 302.191 59.2156 302.693 59.8497L301.583 60.7931C301.434 60.6299 298.333 57.1945 296.62 52.395C296.391 53.3806 296.25 54.7204 296.49 56.3384C296.915 59.1996 298.17 61.8117 298.182 61.8373L296.927 62.5701C294.03 58.3752 292.878 54.7277 291.817 48.5467C291.212 50.4703 290.573 53.3192 290.777 56.3722C291.052 60.483 291.878 63.1468 291.886 63.1728L290.548 63.7357C288.922 60.6937 288.465 57.8708 287.936 54.6015C287.46 51.6548 286.934 48.4078 285.486 44.2139C285.554 49.9246 284.856 59.7137 279.942 66.1708L279.117 67.2562L278.673 65.9668C278.662 65.9356 277.853 63.5977 276.782 61.3619C276.414 63.5578 275.406 66.8381 272.683 69.8503C271.249 71.4369 269.191 72.7998 266.808 74.3779C261.784 77.7056 254.903 82.2631 249.435 92.2544C246.201 98.1648 244.72 102.95 243.53 106.795C241.996 111.747 240.92 115.223 237.088 116.858C238.409 117.265 240.586 117.449 243.469 116.03L246.328 114.623L244.365 117.134C244.33 117.179 241.212 121.239 241.597 126.229C242.319 125.185 243.4 123.905 244.796 123.047L246.126 122.23L245.899 123.774C245.868 123.986 243.122 143.897 256.294 154.82C254.681 151.266 252.522 144.765 253.92 137.488L254.753 133.153L255.358 137.527C255.386 137.728 258.148 156.631 271.277 165.262C270.52 163.898 269.64 162.023 268.925 159.688L267.172 153.96L270.249 159.101C270.297 159.182 274.872 166.699 283.029 169.986C282.582 168.994 282.156 167.614 282.085 165.868L281.948 162.49Z" fill="#1D3444"/>
<path d="M314.946 181.859C314.896 181.795 313.733 180.251 314.133 178.308C314.432 176.862 315.488 175.623 317.274 174.624C321.077 172.498 327.577 172.527 330.399 174.685C331.667 175.655 332.159 177.015 331.784 178.515L330.37 178.161C330.605 177.222 330.324 176.463 329.513 175.843C327.168 174.049 321.242 174.076 317.986 175.897C316.592 176.676 315.778 177.581 315.565 178.588C315.293 179.872 316.096 180.964 316.105 180.975L314.946 181.859Z" fill="#1D3444"/>
<path d="M354.233 207.726C351.746 207.726 348.725 207.205 345.139 205.741C340.625 203.899 337.39 201.666 334.262 199.507C329.095 195.941 323.752 192.253 312.324 190.243L312.577 188.807C324.319 190.872 329.794 194.652 335.09 198.307C338.296 200.52 341.323 202.609 345.69 204.391C356.673 208.873 361.766 203.981 362.192 203.541C363.561 201.711 363.954 199.857 363.393 197.877C361.17 190.019 344.961 183.128 340.045 181.203C330.636 177.519 321.919 178.801 321.832 178.815L321.609 177.374C321.979 177.317 330.785 176.011 340.577 179.846C347.079 182.392 362.456 189.208 364.796 197.48C365.483 199.907 364.99 202.252 363.331 204.452L363.287 204.506C363.12 204.688 360.233 207.726 354.233 207.726Z" fill="#1D3444"/>
<path d="M354.153 211.128C350.704 211.128 346.744 210.25 342.687 207.97C339.168 205.992 336.224 204.084 333.626 202.4C329.804 199.923 326.502 197.783 322.709 196.266C321.06 195.607 319.553 195.165 318.223 194.774C314.36 193.64 311.569 192.82 311.636 188.128C311.717 182.623 315.27 180.282 317.865 178.573C318.091 178.424 318.309 178.28 318.518 178.139L319.335 179.346C319.122 179.491 318.898 179.639 318.667 179.791C316.215 181.406 313.163 183.416 313.094 188.149C313.042 191.734 314.795 192.249 318.634 193.376C319.995 193.775 321.537 194.228 323.25 194.913C327.176 196.482 330.533 198.658 334.419 201.176C336.999 202.848 339.923 204.743 343.402 206.699C351.954 211.506 360.182 209.608 363.051 206.812C365.83 204.103 363.794 200.906 363.706 200.771L364.927 199.974C365.9 201.463 366.971 205.026 364.068 207.856C362.22 209.658 358.614 211.127 354.153 211.128Z" fill="#1D3444"/>
<path d="M335.522 199.263L334.149 198.772C339.33 184.268 351.443 185.037 351.565 185.046L351.454 186.5C351.001 186.464 340.319 185.836 335.522 199.263Z" fill="#1D3444"/>
<path d="M278.146 201.394C276.12 201.394 273.733 201.076 270.883 200.389C259.958 197.758 247.501 188.88 243.154 182.557C240.367 178.503 239.392 173.941 240.611 170.651C241.277 168.855 242.558 167.624 244.217 167.185C250.038 165.647 263.264 171.953 275.885 178.56C275.913 178.25 275.989 177.932 276.141 177.627C276.373 177.159 276.88 176.547 277.975 176.291C280.644 175.668 286.424 177.288 288.462 179.734C289.956 181.526 290.012 183.467 289.607 184.584C289.457 184.997 289.234 185.34 288.958 185.593C289.826 187.024 291.315 190.444 289.07 194.6C286.839 198.728 284.007 201.394 278.146 201.394ZM246.281 168.402C245.652 168.402 245.085 168.463 244.59 168.594C243.068 168.997 242.33 170.211 241.979 171.158C241.15 173.393 241.339 177.345 244.356 181.731C248.061 187.12 260.075 196.286 271.224 198.972C282.52 201.692 285.506 198.129 287.787 193.907C290.238 189.372 287.371 185.846 287.342 185.811L286.542 184.85L287.772 184.627C287.951 184.594 288.125 184.392 288.236 184.086C288.531 183.272 288.37 181.9 287.342 180.667C285.704 178.701 280.477 177.203 278.307 177.711C277.865 177.814 277.584 177.999 277.447 178.275C277.291 178.589 277.314 179.005 277.383 179.348C277.861 179.599 278.337 179.851 278.811 180.102C281.377 181.461 283.404 182.534 284.47 183.003L283.882 184.337C282.769 183.847 280.721 182.763 278.129 181.39C277.56 181.089 276.963 180.773 276.34 180.444L276.22 180.497C276.209 180.474 276.187 180.422 276.159 180.348C267.154 175.599 253.081 168.402 246.281 168.402Z" fill="#1D3444"/>
<path d="M281.161 200.273C269.825 200.274 261.883 189.84 255.96 182.059C254.66 180.353 253.434 178.741 252.314 177.436C246.246 170.356 241.523 172.496 241.324 172.591L240.681 171.283C240.918 171.165 246.569 168.493 253.421 176.487C254.568 177.824 255.808 179.453 257.12 181.176C263.315 189.314 271.804 200.462 283.848 198.607L284.07 200.048C283.077 200.2 282.106 200.273 281.161 200.273Z" fill="#1D3444"/>
<path d="M374.376 138.014C373.441 138.014 372.424 137.813 371.354 137.357C367.816 135.85 364.719 133.511 366.002 126.651L367.435 126.918C366.286 133.065 368.903 134.728 371.925 136.016C375.004 137.327 377.279 136.082 378.088 134.37C378.625 133.233 378.213 132.524 376.702 130.241C376.106 129.339 375.362 128.216 374.532 126.786C372.613 123.478 371.595 120.038 370.778 117.274C370.367 115.887 370.013 114.689 369.636 113.836C369.521 113.575 369.285 113.13 369.006 113.088C368.229 112.975 366.578 114.879 365.689 115.903C363.648 118.254 358.4 121.883 358.178 122.036L357.35 120.836C357.403 120.8 362.667 117.159 364.588 114.947C366.328 112.943 367.774 111.423 369.224 111.647C369.962 111.758 370.55 112.297 370.97 113.247C371.385 114.186 371.751 115.426 372.176 116.861C372.971 119.55 373.961 122.897 375.794 126.054C376.602 127.448 377.332 128.55 377.918 129.436C379.466 131.774 380.318 133.062 379.407 134.993C378.594 136.713 376.753 138.014 374.376 138.014Z" fill="#1D3444"/>
<path d="M377.43 130.403L377.015 129.006C386.902 126.064 395.551 116.376 395.637 116.279L395.708 116.199L395.798 116.142C399.714 113.705 400.798 107.273 399.59 104.292C399.249 103.452 398.806 103.086 398.282 103.198C396.376 103.611 395.727 104.633 394.435 106.668C393.548 108.065 392.445 109.803 390.532 111.96C385.768 117.335 374.494 123.766 374.016 124.038L373.306 124.441L372.663 122.933L372.996 122.585C373.069 122.51 380.28 114.964 384.003 109.024C386.823 104.524 387.27 97.5108 385.658 94.9249C385.09 94.0147 384.487 94.0764 384.291 94.0991C381.906 94.3473 381.342 95.6928 380.107 98.6409C379.607 99.8349 379.04 101.188 378.222 102.779C375.312 108.435 371.061 114.221 371.018 114.278L369.845 113.414C369.887 113.357 374.07 107.662 376.925 102.112C377.717 100.572 378.272 99.2469 378.762 98.0775C380.046 95.0118 380.895 92.9867 384.14 92.6488C385.238 92.5363 386.218 93.0684 386.895 94.1538C388.735 97.1057 388.407 104.743 385.238 109.798C382.848 113.612 379.161 117.957 376.677 120.737C380.449 118.387 386.417 114.404 389.441 110.993C391.276 108.923 392.345 107.239 393.204 105.887C394.569 103.736 395.471 102.316 397.973 101.774C399.241 101.499 400.322 102.217 400.941 103.744C402.354 107.231 401.17 114.43 396.659 117.323C395.747 118.339 387.356 127.45 377.43 130.403Z" fill="#1D3444"/>
<path d="M359.967 146.617C355.885 146.617 353.347 144.006 353.307 143.963L354.367 142.963L353.837 143.463L354.366 142.961C354.592 143.198 359.993 148.671 367.915 141.492L368.894 142.572C365.492 145.655 362.445 146.617 359.967 146.617Z" fill="#1D3444"/>
<path d="M370.227 143.435C368.634 143.435 367.795 142.7 367.363 142.037C366.548 140.789 366.717 139.096 367.153 138.352C367.736 137.357 370.122 136.158 370.839 135.815L371.469 137.129C370.186 137.745 368.652 138.679 368.41 139.09C368.242 139.378 368.093 140.489 368.584 141.241C368.969 141.83 369.692 142.068 370.735 141.945C371.737 141.829 373.3 141.731 375.111 141.618C378.699 141.394 386.164 140.927 387 140.019C387.981 138.954 390.449 128.216 389.177 124.871C389.027 124.477 388.85 124.268 388.653 124.248L388.798 122.797C389.344 122.852 390.088 123.166 390.54 124.353C391.969 128.112 389.49 139.468 388.073 141.007C386.927 142.25 382.016 142.647 375.202 143.073C373.412 143.185 371.867 143.282 370.904 143.394C370.664 143.422 370.439 143.435 370.227 143.435Z" fill="#1D3444"/>
<path d="M379.341 134.05L378.743 132.72C378.847 132.674 381.306 131.584 383.597 131.936L383.375 133.377C381.513 133.09 379.363 134.04 379.341 134.05Z" fill="#1D3444"/>
<path d="M221.639 173.972C220.459 173.972 219.512 173.475 218.643 172.397C217.169 170.569 219.513 168.153 222.482 165.094C224.751 162.755 227.322 160.105 228.073 157.709L229.465 158.145C228.61 160.872 225.91 163.654 223.528 166.109C221.561 168.136 219.114 170.658 219.778 171.481C221.315 173.387 223.002 172.866 231.065 167.994C238.744 163.355 241.808 155.226 243.619 148.662C245.042 143.504 244.308 138.292 242.847 135.81C242.414 135.074 241.927 134.608 241.477 134.499C239.699 134.066 237.057 137.488 236.268 138.72L235.041 137.933C235.41 137.358 238.727 132.335 241.82 133.082C242.669 133.288 243.459 133.975 244.103 135.07C245.72 137.817 246.555 143.501 245.025 149.049C243.142 155.874 239.939 164.337 231.819 169.242C226.909 172.209 223.861 173.971 221.639 173.972Z" fill="#1D3444"/>
<path d="M218.672 141.625C217.974 141.625 217.262 141.577 216.536 141.479C213.221 141.033 210.427 139.666 209.899 138.667C209.575 138.056 209.195 137.136 209.622 136.202C210.093 135.171 211.415 134.436 213.782 133.89C216.735 133.209 218.48 131.796 220.326 130.302C220.973 129.778 221.642 129.237 222.358 128.738C224.15 127.489 225.47 127.619 227.465 127.817C228.847 127.953 230.569 128.122 233.179 127.96C240.262 127.52 241.103 133.714 241.111 133.777L239.663 133.956C239.637 133.756 238.944 129.062 233.27 129.415C230.541 129.586 228.681 129.402 227.322 129.267C225.415 129.078 224.543 128.992 223.192 129.933C222.518 130.403 221.9 130.904 221.244 131.434C219.35 132.967 217.39 134.553 214.109 135.31C211.7 135.866 211.094 136.487 210.948 136.807C210.865 136.988 210.818 137.286 211.188 137.985C211.441 138.37 213.896 139.805 217.438 140.112C220.128 140.347 223.969 139.942 227.023 136.692L228.085 137.691C225.667 140.264 222.379 141.625 218.672 141.625Z" fill="#1D3444"/>
<path d="M207.658 158.847C207.156 158.847 206.673 158.837 206.218 158.817C204.207 158.728 202.77 157.887 202.277 156.511C201.796 155.17 202.342 153.62 203.738 152.364C205.28 150.975 208.615 149.884 212.145 148.73C214.47 147.969 216.874 147.183 218.621 146.337C222.534 144.441 223.064 139.84 223.068 139.794L224.519 139.943C224.496 140.165 223.915 145.392 219.257 147.649C217.422 148.538 214.97 149.34 212.598 150.115C209.368 151.172 206.027 152.265 204.713 153.447C203.773 154.294 203.375 155.255 203.649 156.019C203.928 156.798 204.913 157.299 206.283 157.361C209.774 157.514 215.17 156.994 217.835 156.429L218.138 157.856C215.678 158.377 211.188 158.847 207.658 158.847Z" fill="#1D3444"/>
<path d="M226.751 155.343C223.955 153.991 223.117 150.383 223.082 150.23L224.505 149.909C224.512 149.94 225.229 152.988 227.386 154.031L226.751 155.343Z" fill="#1D3444"/>
<path d="M209.891 167.689C208.828 167.689 207.984 167.553 207.41 167.299C206.589 166.935 206.332 166.387 206.262 165.992C205.738 163.062 211.136 159.661 213.553 158.855C215.455 158.222 221.957 153.543 224.302 151.794L225.174 152.963C224.822 153.225 216.527 159.401 214.015 160.238C211.485 161.082 207.408 164.117 207.697 165.736C207.706 165.786 207.805 165.879 208.001 165.965C210.028 166.863 218.059 165.71 226.835 160.208L227.61 161.443C220.525 165.884 213.763 167.688 209.891 167.689Z" fill="#1D3444"/>
<path d="M230.788 160.758C227.95 159.722 226.834 156.723 226.788 156.596L228.158 156.098C228.167 156.122 229.098 158.589 231.288 159.389L230.788 160.758Z" fill="#1D3444"/>
<path d="M230.716 148.639C225.031 145.84 225.551 138.598 225.576 138.291L227.029 138.409L226.302 138.35L227.029 138.408C227.024 138.473 226.571 144.973 231.36 147.331L230.716 148.639Z" fill="#1D3444"/>
<path d="M262.164 188.456L261.033 187.536C268.198 178.739 264.657 174.496 264.621 174.454L265.718 173.494C265.901 173.703 270.098 178.716 262.164 188.456Z" fill="#1D3444"/>
<path d="M281.456 107.728C281.142 107.728 280.838 107.667 280.549 107.545C279.65 107.165 279.073 106.254 278.925 104.981C278.794 103.857 279.015 102.546 279.546 101.29C280.078 100.034 280.865 98.9631 281.763 98.2739C282.779 97.4937 283.834 97.273 284.735 97.6541C285.634 98.0347 286.212 98.9454 286.359 100.218C286.49 101.342 286.27 102.653 285.738 103.91C285.206 105.165 284.419 106.236 283.521 106.926C282.831 107.456 282.122 107.728 281.456 107.728ZM283.833 98.9333C283.488 98.9333 283.075 99.1046 282.65 99.4306C281.96 99.9607 281.317 100.846 280.889 101.858C280.461 102.871 280.272 103.948 280.373 104.813C280.457 105.532 280.728 106.038 281.118 106.203C281.507 106.369 282.06 106.209 282.634 105.769C283.325 105.239 283.967 104.354 284.395 103.342V103.341C284.824 102.329 285.012 101.252 284.911 100.387C284.828 99.6684 284.556 99.1622 284.167 98.9974C284.066 98.9541 283.953 98.9333 283.833 98.9333Z" fill="#1D3444"/>
<path d="M293.025 105.931C291.367 105.931 289.816 104.4 289.442 102.29C289.25 101.21 289.388 100.129 289.832 99.2474C290.311 98.2954 291.084 97.6804 292.009 97.5166C292.933 97.3505 293.87 97.6638 294.648 98.3936C295.368 99.0689 295.87 100.036 296.061 101.116C296.471 103.425 295.319 105.566 293.494 105.89C293.337 105.918 293.181 105.931 293.025 105.931ZM292.484 98.9328C292.41 98.9328 292.336 98.939 292.263 98.9518C291.803 99.0334 291.402 99.3713 291.135 99.9028C290.831 100.505 290.74 101.262 290.877 102.036C291.141 103.527 292.219 104.634 293.24 104.454C294.255 104.274 294.891 102.862 294.626 101.371C294.489 100.598 294.142 99.9184 293.651 99.4566C293.285 99.1141 292.878 98.9328 292.484 98.9328Z" fill="#1D3444"/>
<path d="M266.796 95.7226C266.796 95.7226 257.28 86.2462 256.147 75.0688C255.015 63.8913 261.323 56.836 266.796 56.4354C272.268 56.0348 278.538 62.2189 280.547 69.8182C282.556 77.4175 279.541 92.4017 276.269 95.7224C276.269 95.7224 273.474 94.8316 266.796 95.7226Z" fill="#D3DDE5"/>
<path d="M305.266 97.7084C305.266 97.7084 295.781 90.701 294.11 73.449C294.11 73.449 292.6 58.2016 299.223 47.3887C305.845 36.5759 312.953 33.7816 319.453 37.0011C325.954 40.2206 331.09 50.0169 331.665 59.8418C332.239 69.6667 330.194 80.1549 326.926 86.3014C323.658 92.4478 322.734 92.7055 322.734 92.7055C322.734 92.7055 311.675 93.0524 305.266 97.7084Z" fill="#D3DDE5"/>
<path d="M318.116 82.2573C321.975 82.2573 325.103 77.321 325.103 71.2318C325.103 65.1425 321.975 60.2062 318.116 60.2062C314.258 60.2062 311.13 65.1425 311.13 71.2318C311.13 77.321 314.258 82.2573 318.116 82.2573Z" fill="#2A86E6"/>
<path d="M271.08 85.9628C273.586 85.9628 275.619 82.4924 275.619 78.2114C275.619 73.9305 273.586 70.4601 271.08 70.4601C268.573 70.4601 266.541 73.9305 266.541 78.2114C266.541 82.4924 268.573 85.9628 271.08 85.9628Z" fill="#2A86E6"/>
<path d="M318.381 35.8469C318.381 35.8469 307.707 47.7735 305.298 62.9195C302.888 78.0656 311.555 93.6007 311.555 93.6007L311.628 94.1634L307.91 96.2289C307.91 96.2289 299.89 86.3105 298.189 72.8331C296.488 59.3558 305.645 36.5149 318.381 35.8469Z" fill="#ABC1D3"/>
<path d="M270.638 57.1426C270.638 57.1426 262.467 62.7905 263.075 76.0774C263.682 89.3645 271.382 95.3386 271.382 95.3386L267.449 96.168C267.449 96.168 248.768 77.0848 266.796 56.4354L270.638 57.1426Z" fill="#ABC1D3"/>
<path d="M319.453 37.0011C319.453 37.0011 329.963 48.9333 328.444 67.6173C326.925 86.3014 321.883 91.7945 321.883 91.7945C321.883 91.7945 324.215 92.285 327.837 83.5329C331.459 74.7807 336.221 47.3279 319.453 37.0011Z" fill="white"/>
<path d="M270.952 58.0193C270.952 58.0193 283.731 74.297 274.375 95.3165C274.375 95.3165 275.956 95.7905 276.907 94.9264C277.858 94.0622 281.26 86.0841 280.936 75.6358C280.612 65.1874 276.521 59.5988 270.952 58.0193Z" fill="white"/>
<path d="M323.479 74.2812C323.686 73.4036 323.142 72.5243 322.265 72.3171C321.387 72.1099 320.508 72.6532 320.301 73.5308C320.093 74.4083 320.637 75.2877 321.514 75.4949C322.392 75.7021 323.271 75.1587 323.479 74.2812Z" fill="#F3FEFF"/>
<path d="M321.182 76.7825C321.182 77.295 320.766 77.7105 320.254 77.7105C319.741 77.7105 319.326 77.295 319.326 76.7825C319.326 76.27 319.741 75.8544 320.254 75.8544C320.766 75.8544 321.182 76.27 321.182 76.7825Z" fill="#F3FEFF"/>
<path d="M275.102 80.3321C275.309 79.4546 274.766 78.5752 273.888 78.368C273.011 78.1608 272.131 78.7042 271.924 79.5817C271.717 80.4593 272.26 81.3386 273.138 81.5458C274.016 81.7531 274.895 81.2096 275.102 80.3321Z" fill="#F3FEFF"/>
<path d="M272.808 82.8355C272.808 83.3481 272.393 83.7635 271.88 83.7635C271.368 83.7635 270.952 83.3481 270.952 82.8355C270.952 82.323 271.368 81.9074 271.88 81.9074C272.393 81.9074 272.808 82.323 272.808 82.8355Z" fill="#F3FEFF"/>
<path d="M328.816 45.9144C325.719 39.3896 321.114 35.5274 315.85 35.0392C315.48 35.005 315.104 34.9874 314.732 34.9874C304.368 34.9874 295.006 48.3863 293.419 65.4911C292.054 80.1992 296.865 93.1873 304.632 97.805C305.056 97.7453 305.479 97.6768 305.9 97.6024C306.029 97.4126 306.181 97.2378 306.348 97.082C298.479 93.3872 293.497 80.4296 294.87 65.6256C296.388 49.2628 305.113 36.445 314.732 36.445C315.059 36.445 315.389 36.4605 315.715 36.4905C320.446 36.9293 324.631 40.4979 327.498 46.5391C330.425 52.7056 331.613 60.6687 330.843 68.9621C329.953 78.5615 326.58 86.9359 322.004 92.223C322.267 92.195 322.53 92.1614 322.792 92.1109C323.173 92.0373 323.474 92.2002 323.658 92.4474C328.153 86.8943 331.417 78.5661 332.295 69.0968C333.089 60.547 331.853 52.314 328.816 45.9144Z" fill="#1D3444"/>
<path d="M300.11 102.077L299.185 100.951C299.838 100.414 315.331 87.865 328.692 92.6882L328.196 94.0597C315.621 89.5176 300.264 101.951 300.11 102.077Z" fill="#1D3444"/>
<path d="M266.789 96.2902C266.609 96.1454 248.891 81.5677 258.079 61.8024C260.23 57.1742 264.316 54.9722 269.011 55.9133C275.073 57.1291 281.421 63.7552 281.826 74.0683C282.48 90.7476 276.642 96.0534 276.393 96.2711L275.433 95.1739C275.486 95.1268 280.992 90.0114 280.369 74.1252C279.994 64.5653 274.227 58.4459 268.725 57.3425C264.677 56.5314 261.278 58.3804 259.402 62.4163C250.7 81.1357 267.533 95.0166 267.703 95.1548L266.789 96.2902Z" fill="#1D3444"/>
<path d="M262.833 99.3034L261.778 98.2973C262.028 98.0358 268.026 91.9383 279.833 95.923L279.367 97.3039C268.43 93.6131 262.888 99.2459 262.833 99.3034Z" fill="#1D3444"/>
<path d="M318.329 83.5331C314.122 83.5331 310.826 78.2899 310.826 71.5965C310.826 64.9029 314.122 59.6597 318.329 59.6597C322.536 59.6597 325.832 64.9029 325.832 71.5965C325.832 78.2899 322.536 83.5331 318.329 83.5331ZM318.329 61.1178C315.052 61.1178 312.284 65.9163 312.284 71.5965C312.284 77.2767 315.052 82.0752 318.329 82.0752C321.606 82.0752 324.374 77.2767 324.374 71.5965C324.374 65.9161 321.606 61.1178 318.329 61.1178Z" fill="#1D3444"/>
<path d="M271.207 87.0302C268.325 87.0302 266.067 83.3052 266.067 78.5504C266.067 73.7952 268.325 70.0701 271.207 70.0701C274.09 70.0701 276.347 73.795 276.347 78.5504C276.347 83.3052 274.09 87.0302 271.207 87.0302ZM271.207 71.5281C269.211 71.5281 267.525 74.7438 267.525 78.5504C267.525 82.3566 269.211 85.5723 271.207 85.5723C273.203 85.5723 274.889 82.3566 274.889 78.5504C274.889 74.7438 273.203 71.5281 271.207 71.5281Z" fill="#1D3444"/>
<path d="M281.989 148.612C281.366 148.612 280.795 148.368 280.337 147.907C278.883 146.442 278.867 143.074 278.87 142.694L278.873 142.394L279.086 142.183C284.444 136.865 296.455 138.255 298.505 138.537C316.376 126.664 317.658 109.613 317.646 104.847C313.556 107.584 298.839 116.974 285.696 119.602C278.683 121.005 273.744 120.638 271.017 118.512C269.216 117.107 269.114 115.43 269.11 115.359L270.566 115.278C270.569 115.324 270.668 116.418 271.968 117.403C273.614 118.651 277.284 119.796 285.41 118.173C300.468 115.161 317.735 103.026 317.908 102.903L318.935 102.176L319.055 103.429C319.076 103.649 320.9 125.577 299.076 139.908L298.841 140.062L298.564 140.019C298.434 139.998 285.691 138.087 280.332 143.009C280.368 144.245 280.659 146.162 281.373 146.881C281.559 147.068 281.754 147.154 281.989 147.154C282.842 147.154 284.423 146.565 286.096 145.941C288.762 144.948 292.072 143.713 294.842 143.917L294.733 145.371C292.294 145.188 289.139 146.364 286.606 147.308C284.727 148.008 283.105 148.612 281.989 148.612Z" fill="#1D3444"/>
<path d="M289.743 136.721L288.328 136.367C290.237 128.733 282.728 119.863 282.651 119.775L283.758 118.825C284.089 119.21 291.835 128.352 289.743 136.721Z" fill="#1D3444"/>
<path d="M288.785 127.604L287.345 127.374L288.178 122.165L288.842 122.209C288.995 122.222 304.166 123.14 310.17 115.442L310.89 114.52L311.401 115.572C311.501 115.778 312.117 117.077 312.439 118.473C313.426 116.686 314.761 112.883 314.562 105.542L316.019 105.502C316.354 117.828 312.482 120.884 312.317 121.009L310.908 122.069L311.157 120.323C311.276 119.492 310.899 118.215 310.534 117.256C304.423 123.779 292.407 123.801 289.41 123.696L288.785 127.604Z" fill="#1D3444"/>
<path d="M284.247 140.058C284.2 139.909 283.108 136.384 283.785 133L284.146 131.2L285.119 132.756C285.208 132.897 287.411 136.253 292.538 135.818C297.603 135.384 298.888 130.501 298.94 130.294L299.291 128.9L300.209 130.004C300.313 130.13 302.767 133.121 303.2 136.45L301.755 136.638C301.519 134.828 300.55 133.07 299.847 131.995C299.001 133.824 296.953 136.903 292.662 137.27C288.809 137.6 286.343 136.059 285.034 134.853C284.934 137.336 285.629 139.593 285.637 139.62L284.247 140.058Z" fill="#1D3444"/>
<path d="M256.43 52.9197L256.278 51.9344C256.258 51.7983 255.778 48.5696 256.791 45.3971C257.815 42.1871 261.373 39.1242 264.559 38.7084C267.743 38.3003 271.194 43.8842 271.577 44.523L271.984 45.2002L256.43 52.9197ZM264.915 40.1436C264.859 40.1436 264.803 40.1469 264.748 40.154C262.106 40.4985 259.037 43.1556 258.179 45.8404C257.596 47.6704 257.572 49.5701 257.629 50.6968L269.903 44.605C268.592 42.6289 266.428 40.1436 264.915 40.1436Z" fill="#1D3444"/>
<path d="M331.369 22.9908L330.522 22.7085C325.818 21.1407 315.394 20.8049 315.289 20.8019L314.249 20.7698L314.634 19.8037C314.763 19.4809 317.863 11.9026 325.086 11.731C326.899 11.6929 328.393 12.2783 329.49 13.4862C332.132 16.3964 331.505 21.8728 331.477 22.1046L331.369 22.9908ZM316.454 19.3892C319.129 19.512 325.92 19.9235 330.088 21.0564C330.145 19.5049 330.045 16.2644 328.408 14.464C327.597 13.5726 326.543 13.1557 325.12 13.1884C320.292 13.3029 317.492 17.4669 316.454 19.3892Z" fill="#1D3444"/>
<defs>
<linearGradient id="paint0_linear_121_746" x1="46.5426" y1="86.9766" x2="167.21" y2="127.137" gradientUnits="userSpaceOnUse">
<stop stop-color="#2377FF"/>
<stop offset="1" stop-color="#DD00AC"/>
</linearGradient>
<linearGradient id="paint1_linear_121_746" x1="78.3438" y1="7.09519" x2="95.846" y2="7.09519" gradientUnits="userSpaceOnUse">
<stop stop-color="#2377FF"/>
<stop offset="1" stop-color="#E958C9"/>
</linearGradient>
<linearGradient id="paint2_linear_121_746" x1="158.258" y1="41.7386" x2="172.633" y2="41.7386" gradientUnits="userSpaceOnUse">
<stop stop-color="#2377FF"/>
<stop offset="1" stop-color="#E64FC5"/>
</linearGradient>
<linearGradient id="paint3_linear_121_746" x1="256.533" y1="45.3925" x2="270.952" y2="45.3925" gradientUnits="userSpaceOnUse">
<stop stop-color="#2377FF"/>
<stop offset="1" stop-color="#E251C2"/>
</linearGradient>
<linearGradient id="paint4_linear_121_746" x1="315.963" y1="17.0839" x2="330.374" y2="17.0839" gradientUnits="userSpaceOnUse">
<stop stop-color="#2377FF"/>
<stop offset="1" stop-color="#E754C6"/>
</linearGradient>
<linearGradient id="paint5_linear_121_746" x1="235.99" y1="119.915" x2="356.024" y2="95.6527" gradientUnits="userSpaceOnUse">
<stop stop-color="#2377FF"/>
<stop offset="1" stop-color="#E555C6"/>
</linearGradient>
</defs>
</svg>
