<svg width="22" height="20" viewBox="0 0 22 20" fill="none" xmlns="http://www.w3.org/2000/svg">
<path d="M8.21422 19.0808C12.7508 19.0808 16.4284 15.4032 16.4284 10.8666C16.4284 6.32998 12.7508 2.65234 8.21422 2.65234C3.67763 2.65234 0 6.32998 0 10.8666C0 15.4032 3.67763 19.0808 8.21422 19.0808Z" fill="#B0EF8F"/>
<path d="M8.30683 17.2156L8.20264 17.0381C6.61117 14.3265 2.38204 8.57221 2.33933 8.51442L2.27832 8.43154L3.71916 7.00759L8.28007 10.1923C11.1517 6.46593 13.8308 3.90646 15.5784 2.41182C17.49 0.776843 18.7344 0.0241514 18.747 0.0169386L18.7753 0H21.2193L20.9859 0.207915C14.9816 5.55591 8.47361 16.9225 8.40879 17.0367L8.30683 17.2156Z" fill="#82AA00"/>
</svg>
