<svg width="400" height="59" viewBox="0 0 400 59" fill="none" xmlns="http://www.w3.org/2000/svg">
<path d="M12.92 56.36L12.6749 56.7958L12.6765 56.7967L12.92 56.36ZM5.68 49.68L5.2603 49.9518L5.26336 49.9564L5.68 49.68ZM1.72 19.96L1.23492 19.8387L1.23426 19.8414L1.72 19.96ZM5.76 10.56L5.34042 10.288L5.33979 10.289L5.76 10.56ZM13.04 3.64L12.789 3.20755L13.04 3.64ZM33.2 2.84L32.9913 3.2944L32.9952 3.29613L33.2 2.84ZM39.68 7.44L39.3086 7.77481L39.3136 7.78022L39.68 7.44ZM43.64 13.32L43.851 13.7733L44.2954 13.5664L44.0974 13.118L43.64 13.32ZM34.36 17.64L33.9415 17.9136L34.1785 18.276L34.571 18.0933L34.36 17.64ZM31.56 14.08L31.197 14.4239L31.2016 14.4287L31.56 14.08ZM28.28 11.76L28.0685 12.2132L28.0806 12.2185L28.28 11.76ZM17.92 12.68L18.2081 13.0887L18.2125 13.0855L17.92 12.68ZM14 17.24L13.5566 17.0089L14 17.24ZM11.88 23.44L12.3712 23.5336L11.88 23.44ZM18.2 47.32L17.9132 47.7296L17.9179 47.7328L18.2 47.32ZM30 46.96L30.317 47.3467L30.3176 47.3461L30 46.96ZM34.4 41.76L34.5758 41.2919L34.1879 41.1462L33.9727 41.5004L34.4 41.76ZM43.88 45.32L44.3336 45.5304L44.5604 45.0414L44.0558 44.8519L43.88 45.32ZM39.36 52.28L39.7348 52.611H39.7348L39.36 52.28ZM32.84 57.12L33.0501 57.5737L32.84 57.12ZM23.96 58.38C19.6768 58.38 16.0854 57.5523 13.1635 55.9233L12.6765 56.7967C15.7812 58.5277 19.5499 59.38 23.96 59.38V58.38ZM13.1651 55.9242C10.2453 54.2818 7.89157 52.109 6.09664 49.4036L5.26336 49.9564C7.14843 52.7977 9.62134 55.0782 12.6749 56.7958L13.1651 55.9242ZM6.09968 49.4082C4.31854 46.6579 3.02007 43.6038 2.20595 40.2423L1.23405 40.4777C2.07327 43.9428 3.41479 47.1021 5.26032 49.9518L6.09968 49.4082ZM2.20595 40.2423C1.38857 36.8673 0.98 33.4535 0.98 30H-0.02C-0.02 33.5332 0.3981 37.026 1.23405 40.4777L2.20595 40.2423ZM0.98 30C0.98 26.7354 1.38803 23.4285 2.20574 20.0786L1.23426 19.8414C0.398634 23.2648 -0.02 26.6513 -0.02 30H0.98ZM2.20507 20.0813C3.04561 16.7191 4.37095 13.6366 6.18021 10.831L5.33979 10.289C3.46905 13.19 2.10105 16.3742 1.23493 19.8387L2.20507 20.0813ZM6.17958 10.8319C8.00318 8.01839 10.3719 5.76654 13.291 4.07244L12.789 3.20755C9.73475 4.98012 7.25016 7.34161 5.34042 10.288L6.17958 10.8319ZM13.291 4.07244C16.1849 2.39292 19.7336 1.54 23.96 1.54V0.539999C19.5998 0.539999 15.8684 1.42041 12.789 3.20755L13.291 4.07244ZM23.96 1.54C27.451 1.54 30.4569 2.1306 32.9914 3.29438L33.4086 2.38561C30.7164 1.14939 27.5623 0.539999 23.96 0.539999V1.54ZM32.9952 3.29613C35.553 4.44455 37.6539 5.93905 39.3086 7.77477L40.0514 7.10523C38.2928 5.15428 36.0736 3.58212 33.4048 2.38386L32.9952 3.29613ZM39.3136 7.78022C41.0142 9.6116 42.3012 11.5258 43.1826 13.522L44.0974 13.118C43.1655 11.0075 41.8125 9.00173 40.0464 7.09977L39.3136 7.78022ZM43.429 12.8667L34.149 17.1867L34.571 18.0933L43.851 13.7733L43.429 12.8667ZM34.7785 17.3664C33.8577 15.958 32.9047 14.7451 31.9184 13.7313L31.2016 14.4287C32.1353 15.3882 33.049 16.5486 33.9415 17.9136L34.7785 17.3664ZM31.923 13.7361C30.9188 12.6761 29.7704 11.8628 28.4794 11.3015L28.0806 12.2185C29.2429 12.7239 30.2812 13.4572 31.197 14.4239L31.923 13.7361ZM28.4914 11.3069C27.2099 10.7089 25.6941 10.42 23.96 10.42V11.42C25.5859 11.42 26.9501 11.6911 28.0686 12.2131L28.4914 11.3069ZM23.96 10.42C21.4762 10.42 19.355 11.0284 17.6275 12.2745L18.2125 13.0855C19.7383 11.9849 21.6439 11.42 23.96 11.42V10.42ZM17.6319 12.2713C15.9354 13.4673 14.5774 15.0501 13.5566 17.0089L14.4434 17.4711C15.396 15.6432 16.6513 14.1861 18.2081 13.0887L17.6319 12.2713ZM13.5566 17.0089C12.5459 18.9484 11.824 21.0618 11.3888 23.3464L12.3712 23.5336C12.7893 21.3382 13.4808 19.3183 14.4434 17.4711L13.5566 17.0089ZM11.3888 23.3464C10.9567 25.6152 10.74 27.8332 10.74 30H11.74C11.74 27.9001 11.95 25.7448 12.3712 23.5336L11.3888 23.3464ZM10.74 30C10.74 32.3023 10.9838 34.5907 11.4711 36.8648L12.4489 36.6552C11.9762 34.4493 11.74 32.2311 11.74 30H10.74ZM11.4711 36.8648C11.9608 39.1502 12.7378 41.2384 13.8047 43.126L14.6753 42.634C13.6622 40.8416 12.9192 38.8498 12.4489 36.6552L11.4711 36.8648ZM13.8047 43.126C14.8783 45.0255 16.2473 46.5634 17.9133 47.7296L18.4867 46.9104C16.9527 45.8366 15.6817 44.4145 14.6753 42.634L13.8047 43.126ZM17.9179 47.7328C19.6134 48.8914 21.6355 49.46 23.96 49.46V48.46C21.8045 48.46 19.9866 47.9352 18.4821 46.9072L17.9179 47.7328ZM23.96 49.46C26.4584 49.46 28.5884 48.7635 30.317 47.3467L29.683 46.5733C28.1582 47.8232 26.2616 48.46 23.96 48.46V49.46ZM30.3176 47.3461C32.0204 45.9455 33.5225 44.1672 34.8273 42.0196L33.9727 41.5004C32.7175 43.5662 31.2863 45.2545 29.6824 46.5739L30.3176 47.3461ZM34.2242 42.2281L43.7042 45.7881L44.0558 44.8519L34.5758 41.2919L34.2242 42.2281ZM43.4264 45.1096C42.2459 47.6543 40.7653 49.9333 38.9852 51.949L39.7348 52.611C41.5813 50.52 43.1141 48.1591 44.3336 45.5304L43.4264 45.1096ZM38.9852 51.949C37.2186 53.9495 35.1017 55.5215 32.6299 56.6663L33.0501 57.5737C35.645 56.3719 37.8748 54.7172 39.7348 52.611L38.9852 51.949ZM32.6299 56.6663C30.1749 57.8033 27.2893 58.38 23.96 58.38V59.38C27.4041 59.38 30.4384 58.7833 33.0501 57.5737L32.6299 56.6663ZM55.8613 53.24L55.4848 53.5691L55.8613 53.24ZM53.1413 26.24L53.5929 26.4545L53.5936 26.4531L53.1413 26.24ZM59.5812 18.8L59.8463 19.224L59.8473 19.2233L59.5812 18.8ZM79.3412 18.76L79.6062 18.336L79.3412 18.76ZM85.7412 26.16L85.2882 26.3714L85.7412 26.16ZM85.7412 49L85.2881 48.7886L85.2867 48.7917L85.7412 49ZM79.3813 56.4L79.6433 56.8258L79.6463 56.824L79.3813 56.4ZM75.7812 46.28L75.3751 45.9884L75.7812 46.28ZM75.7412 28.84L75.3333 29.1292L75.3376 29.135L75.7412 28.84ZM63.1813 28.84L63.5867 29.1326L63.1813 28.84ZM63.1813 46.28L62.7758 46.5726L62.7776 46.575L63.1813 46.28ZM69.5013 58.46C63.8635 58.46 59.4625 56.6001 56.2377 52.9109L55.4848 53.5691C58.9267 57.5066 63.619 59.46 69.5013 59.46V58.46ZM56.2377 52.9109C53.0058 49.2136 51.3613 44.1301 51.3613 37.6H50.3613C50.3613 44.2966 52.0501 49.6397 55.4848 53.5691L56.2377 52.9109ZM51.3613 37.6C51.3613 33.2839 52.1113 29.5737 53.5929 26.4545L52.6896 26.0255C51.1312 29.3063 50.3613 33.1695 50.3613 37.6H51.3613ZM53.5936 26.4531C55.0765 23.3051 57.1617 20.9019 59.8462 19.224L59.3162 18.376C56.4542 20.1648 54.246 22.7216 52.6889 26.0269L53.5936 26.4531ZM59.8473 19.2233C62.556 17.5207 65.7673 16.66 69.5013 16.66V15.66C65.6085 15.66 62.2065 16.5593 59.3152 18.3767L59.8473 19.2233ZM69.5013 16.66C73.2093 16.66 76.3943 17.5078 79.0762 19.184L79.6062 18.336C76.7416 16.5456 73.3665 15.66 69.5013 15.66V16.66ZM79.0762 19.184C81.7611 20.862 83.8323 23.2517 85.2882 26.3714L86.1943 25.9486C84.6636 22.6683 82.4681 20.1246 79.6062 18.336L79.0762 19.184ZM85.2882 26.3714C86.744 29.491 87.4813 33.2156 87.4813 37.56H88.4813C88.4813 33.1044 87.7252 29.229 86.1943 25.9486L85.2882 26.3714ZM87.4813 37.56C87.4813 41.9316 86.7438 45.6693 85.2882 48.7886L86.1943 49.2114C87.7254 45.9307 88.4813 42.0417 88.4813 37.56H87.4813ZM85.2867 48.7917C83.8575 51.9099 81.8003 54.2985 79.1162 55.976L79.6463 56.824C82.5089 55.0349 84.6916 52.4901 86.1958 49.2083L85.2867 48.7917ZM79.1192 55.9742C76.4373 57.6246 73.2381 58.46 69.5013 58.46V59.46C73.3911 59.46 76.7785 58.5888 79.6433 56.8258L79.1192 55.9742ZM69.5013 49.9C72.3458 49.9 74.5946 48.7902 76.1874 46.5716L75.3751 45.9884C73.9813 47.9298 72.0434 48.9 69.5013 48.9V49.9ZM76.1874 46.5716C77.7639 44.3757 78.5212 41.3521 78.5212 37.56H77.5212C77.5212 41.2345 76.7852 44.0243 75.3751 45.9884L76.1874 46.5716ZM78.5212 37.56C78.5212 33.7664 77.75 30.7414 76.145 28.545L75.3376 29.135C76.7725 31.0986 77.5212 33.887 77.5212 37.56H78.5212ZM76.1492 28.5508C74.5585 26.3069 72.3237 25.18 69.5013 25.18V26.18C72.0121 26.18 73.9373 27.1598 75.3333 29.1292L76.1492 28.5508ZM69.5013 25.18C66.6543 25.18 64.3938 26.3049 62.7758 28.5474L63.5867 29.1326C65.0087 27.1617 66.9616 26.18 69.5013 26.18V25.18ZM62.7758 28.5474C61.1727 30.7692 60.4013 33.8058 60.4013 37.6H61.4013C61.4013 33.9275 62.1498 31.1241 63.5867 29.1326L62.7758 28.5474ZM60.4013 37.6C60.4013 41.3427 61.1735 44.3518 62.7758 46.5726L63.5867 45.9874C62.149 43.9948 61.4013 41.2173 61.4013 37.6H60.4013ZM62.7776 46.575C64.3966 48.7906 66.6569 49.9 69.5013 49.9V48.9C66.959 48.9 65.0059 47.9294 63.5849 45.985L62.7776 46.575ZM97.5525 58H97.0525V58.5H97.5525V58ZM97.5525 17.12V16.62H97.0525V17.12H97.5525ZM107.552 17.12H108.052V16.62H107.552V17.12ZM107.552 21.04H107.052V22.4608L107.942 21.3531L107.552 21.04ZM112.232 17.4L112.434 17.8575L112.437 17.8561L112.232 17.4ZM129.073 20.4L128.697 20.7298L128.698 20.7315L129.073 20.4ZM132.792 58V58.5H133.292V58H132.792ZM122.833 58H122.333V58.5H122.833V58ZM121.033 28.08L120.629 28.3757L120.635 28.3832L121.033 28.08ZM109.473 28.08L109.085 27.7637L109.085 27.7645L109.473 28.08ZM107.552 58V58.5H108.052V58H107.552ZM98.0525 58V17.12H97.0525V58H98.0525ZM97.5525 17.62H107.552V16.62H97.5525V17.62ZM107.052 17.12V21.04H108.052V17.12H107.052ZM107.942 21.3531C109.202 19.7855 110.698 18.6234 112.434 17.8575L112.031 16.9425C110.14 17.7766 108.517 19.0411 107.163 20.7269L107.942 21.3531ZM112.437 17.8561C114.203 17.0627 116.225 16.66 118.512 16.66V15.66C116.107 15.66 113.942 16.084 112.028 16.9439L112.437 17.8561ZM118.512 16.66C122.962 16.66 126.332 18.0341 128.697 20.7298L129.448 20.0702C126.853 17.1126 123.183 15.66 118.512 15.66V16.66ZM128.698 20.7315C131.069 23.4085 132.292 27.3122 132.292 32.52H133.292C133.292 27.1678 132.036 22.9915 129.447 20.0685L128.698 20.7315ZM132.292 32.52V58H133.292V32.52H132.292ZM132.792 57.5H122.833V58.5H132.792V57.5ZM123.333 58V35.6H122.333V58H123.333ZM123.333 35.6C123.333 32.1229 122.73 29.4812 121.43 27.7768L120.635 28.3832C121.735 29.8255 122.333 32.1971 122.333 35.6H123.333ZM121.436 27.7843C120.144 26.0225 118.132 25.18 115.512 25.18V26.18C117.906 26.18 119.575 26.9375 120.629 28.3757L121.436 27.7843ZM115.512 25.18C112.693 25.18 110.515 26.013 109.085 27.7637L109.86 28.3963C111.043 26.947 112.892 26.18 115.512 26.18V25.18ZM109.085 27.7645C107.698 29.4685 107.052 32.0601 107.052 35.44H108.052C108.052 32.1532 108.687 29.8382 109.86 28.3955L109.085 27.7645ZM107.052 35.44V58H108.052V35.44H107.052ZM107.552 57.5H97.5525V58.5H107.552V57.5ZM148.324 56.28L148.694 55.9434L148.324 56.28ZM145.884 25.88H146.384V25.38H145.884V25.88ZM139.924 25.88H139.424V26.38H139.924V25.88ZM139.924 17.12V16.62H139.424V17.12H139.924ZM145.884 17.12V17.62H146.384V17.12H145.884ZM145.884 5L145.668 4.54921L145.384 4.68534V5H145.884ZM155.804 0.239994H156.304V-0.554506L155.588 -0.210794L155.804 0.239994ZM155.804 17.12H155.304V17.62H155.804V17.12ZM165.084 17.12H165.584V16.62H165.084V17.12ZM165.084 25.88V26.38H165.584V25.88H165.084ZM155.804 25.88V25.38H155.304V25.88H155.804ZM156.564 49.32L156.179 49.6385L156.187 49.6481L156.564 49.32ZM165.524 48.4L166.02 48.4659L166.147 47.5103L165.293 47.9569L165.524 48.4ZM164.364 57.12L164.588 57.5672L164.825 57.4487L164.86 57.1859L164.364 57.12ZM160.364 58.48L160.265 57.99L160.256 57.9919L160.364 58.48ZM155.644 58.46C152.481 58.46 150.196 57.5935 148.694 55.9434L147.955 56.6166C149.706 58.5399 152.301 59.46 155.644 59.46V58.46ZM148.694 55.9434C147.183 54.2838 146.384 51.7594 146.384 48.28H145.384C145.384 51.8939 146.212 54.7029 147.955 56.6166L148.694 55.9434ZM146.384 48.28V25.88H145.384V48.28H146.384ZM145.884 25.38H139.924V26.38H145.884V25.38ZM140.424 25.88V17.12H139.424V25.88H140.424ZM139.924 17.62H145.884V16.62H139.924V17.62ZM146.384 17.12V5H145.384V17.12H146.384ZM146.101 5.45079L156.021 0.690784L155.588 -0.210794L145.668 4.54921L146.101 5.45079ZM155.304 0.239994V17.12H156.304V0.239994H155.304ZM155.804 17.62H165.084V16.62H155.804V17.62ZM164.584 17.12V25.88H165.584V17.12H164.584ZM165.084 25.38H155.804V26.38H165.084V25.38ZM155.304 25.88V46.48H156.304V25.88H155.304ZM155.304 46.48C155.304 47.8101 155.565 48.8951 156.179 49.6384L156.95 49.0016C156.551 48.5182 156.304 47.7099 156.304 46.48H155.304ZM156.187 49.6481C156.847 50.4074 157.837 50.74 159.044 50.74V49.74C158.012 49.74 157.348 49.4593 156.942 48.9919L156.187 49.6481ZM159.044 50.74C161.121 50.74 163.361 50.0949 165.756 48.8431L165.293 47.9569C162.994 49.1584 160.914 49.74 159.044 49.74V50.74ZM165.029 48.3341L163.869 57.0541L164.86 57.1859L166.02 48.4659L165.029 48.3341ZM164.141 56.6728C162.956 57.2652 161.665 57.7049 160.265 57.9901L160.464 58.9699C161.944 58.6685 163.319 58.2015 164.588 57.5672L164.141 56.6728ZM160.256 57.9919C158.857 58.3029 157.32 58.46 155.644 58.46V59.46C157.382 59.46 158.992 59.2971 160.473 58.9681L160.256 57.9919ZM176.22 55.36L175.878 55.7247L175.882 55.7283L176.22 55.36ZM174.34 38.52L173.925 38.2414L173.924 38.2426L174.34 38.52ZM179.98 33.84L180.187 34.295L180.19 34.294L179.98 33.84ZM193.62 32.68L193.517 33.1694L193.526 33.1712L193.62 32.68ZM198.02 34.08L197.8 34.5291L198.52 34.8813V34.08H198.02ZM196.06 26.36L195.722 26.7287L195.73 26.7358L196.06 26.36ZM184.22 25.68L184.058 25.2069L184.22 25.68ZM177.82 28.88L177.353 29.0579L177.574 29.6386L178.094 29.2984L177.82 28.88ZM174.82 21L174.545 20.5825L174.21 20.8032L174.353 21.1779L174.82 21ZM182.66 17.44L182.798 17.9206L182.802 17.9194L182.66 17.44ZM203.7 20.08L203.354 20.4406L203.355 20.4423L203.7 20.08ZM207.78 58V58.5H208.28V58H207.78ZM198.02 58H197.52V58.5H198.02V58ZM198.02 54.72H198.52V53.5129L197.666 54.3664L198.02 54.72ZM193.06 57.88L192.884 57.4118L192.882 57.4127L193.06 57.88ZM193.9 49.56L194.094 50.0208L194.098 50.0192L193.9 49.56ZM198.02 46.76L198.374 47.1136L198.52 46.9671V46.76H198.02ZM198.02 41.92H198.52V41.6077L198.239 41.4707L198.02 41.92ZM194.18 40.64L194.068 41.1273L194.078 41.1296L194.18 40.64ZM184.14 41.6L184.416 42.0172L184.417 42.016L184.14 41.6ZM186.82 58.46C182.459 58.46 179.057 57.2869 176.558 54.9917L175.882 55.7283C178.609 58.2331 182.275 59.46 186.82 59.46V58.46ZM176.562 54.9953C174.093 52.679 172.84 49.5401 172.84 45.52H171.84C171.84 49.7665 173.174 53.1877 175.878 55.7247L176.562 54.9953ZM172.84 45.52C172.84 42.9408 173.483 40.7064 174.756 38.7973L173.924 38.2426C172.53 40.3336 171.84 42.7658 171.84 45.52H172.84ZM174.755 38.7986C176.059 36.8551 177.865 35.3531 180.187 34.295L179.773 33.385C177.295 34.5135 175.341 36.1316 173.925 38.2414L174.755 38.7986ZM180.19 34.294C182.538 33.2099 185.291 32.66 188.46 32.66V31.66C185.176 31.66 182.275 32.2301 179.77 33.386L180.19 34.294ZM188.46 32.66C190.214 32.66 191.9 32.8302 193.517 33.1694L193.723 32.1906C192.034 31.8365 190.279 31.66 188.46 31.66V32.66ZM193.526 33.1712C195.172 33.4846 196.595 33.9392 197.8 34.5291L198.24 33.6309C196.939 32.9942 195.428 32.5154 193.714 32.1888L193.526 33.1712ZM198.52 34.08V31.52H197.52V34.08H198.52ZM198.52 31.52C198.52 29.1314 197.837 27.2538 196.39 25.9842L195.73 26.7358C196.897 27.7596 197.52 29.3219 197.52 31.52H198.52ZM196.398 25.9914C194.992 24.7026 192.957 24.1 190.38 24.1V25.1C192.817 25.1 194.568 25.6707 195.722 26.7286L196.398 25.9914ZM190.38 24.1C188.319 24.1 186.211 24.4711 184.058 25.2069L184.382 26.1531C186.442 25.4489 188.441 25.1 190.38 25.1V24.1ZM184.058 25.2069C181.906 25.9423 179.736 27.029 177.546 28.4616L178.094 29.2984C180.224 27.9044 182.32 26.8577 184.382 26.1531L184.058 25.2069ZM178.287 28.7021L175.287 20.8221L174.353 21.1779L177.353 29.0579L178.287 28.7021ZM175.095 21.4175C177.397 19.9005 179.963 18.7342 182.798 17.9206L182.522 16.9594C179.597 17.7991 176.936 19.0062 174.545 20.5825L175.095 21.4175ZM182.802 17.9194C185.637 17.0794 188.496 16.66 191.38 16.66V15.66C188.397 15.66 185.443 16.0939 182.518 16.9606L182.802 17.9194ZM191.38 16.66C196.803 16.66 200.762 17.9504 203.354 20.4405L204.046 19.7194C201.198 16.9829 196.944 15.66 191.38 15.66V16.66ZM203.355 20.4423C205.944 22.9037 207.28 26.6179 207.28 31.68H208.28C208.28 26.4488 206.896 22.4296 204.045 19.7177L203.355 20.4423ZM207.28 31.68V58H208.28V31.68H207.28ZM207.78 57.5H198.02V58.5H207.78V57.5ZM198.52 58V54.72H197.52V58H198.52ZM197.666 54.3664C196.333 55.7003 194.741 56.7157 192.884 57.4118L193.236 58.3482C195.219 57.6043 196.934 56.513 198.374 55.0736L197.666 54.3664ZM192.882 57.4127C191.052 58.1087 189.033 58.46 186.82 58.46V59.46C189.14 59.46 191.281 59.0914 193.238 58.3474L192.882 57.4127ZM189.14 51.02C190.86 51.02 192.512 50.6867 194.094 50.0208L193.706 49.0992C192.248 49.7133 190.727 50.02 189.14 50.02V51.02ZM194.098 50.0192C195.703 49.3273 197.129 48.3579 198.374 47.1136L197.666 46.4064C196.511 47.5621 195.19 48.4594 193.702 49.1008L194.098 50.0192ZM198.52 46.76V41.92H197.52V46.76H198.52ZM198.239 41.4707C197.051 40.8902 195.73 40.4511 194.282 40.1504L194.078 41.1296C195.456 41.4155 196.696 41.8298 197.801 42.3693L198.239 41.4707ZM194.292 40.1528C192.87 39.8245 191.445 39.66 190.02 39.66V40.66C191.368 40.66 192.717 40.8155 194.068 41.1272L194.292 40.1528ZM190.02 39.66C187.482 39.66 185.413 40.1503 183.863 41.184L184.417 42.016C185.747 41.1297 187.598 40.66 190.02 40.66V39.66ZM183.864 41.1828C182.312 42.2077 181.52 43.6704 181.52 45.52H182.52C182.52 44.0096 183.141 42.8589 184.416 42.0172L183.864 41.1828ZM181.52 45.52C181.52 47.2509 182.222 48.6326 183.613 49.6092L184.187 48.7908C183.072 48.0074 182.52 46.9357 182.52 45.52H181.52ZM183.613 49.6092C184.981 50.5699 186.842 51.02 189.14 51.02V50.02C186.958 50.02 185.326 49.5901 184.187 48.7908L183.613 49.6092ZM226.102 56.36L225.835 56.7828L226.102 56.36ZM219.742 49L219.289 49.2114L219.289 49.2129L219.742 49ZM219.742 26.2L219.29 25.9855L219.289 25.9886L219.742 26.2ZM226.182 18.8L226.447 19.224L226.45 19.2222L226.182 18.8ZM246.542 19.12L246.254 19.5287L246.258 19.5318L246.542 19.12ZM252.662 27.8L252.822 28.2737L253.291 28.1154L253.137 27.6449L252.662 27.8ZM243.182 31L242.714 31.1756L242.884 31.6284L243.342 31.4737L243.182 31ZM240.382 27.08L240.079 27.478L240.085 27.4821L240.382 27.08ZM229.942 28.88L229.537 28.5865L229.535 28.5899L229.942 28.88ZM229.902 46.24L230.311 45.9533L229.902 46.24ZM240.502 47.92L240.192 47.528L240.188 47.5312L240.502 47.92ZM243.342 43.48L243.486 43.0012L243.013 42.859L242.865 43.3297L243.342 43.48ZM252.782 46.32L253.263 46.4578L253.398 45.9834L252.926 45.8412L252.782 46.32ZM246.662 55.8L246.959 56.2022L246.959 56.2018L246.662 55.8ZM235.862 58.46C232.181 58.46 229.024 57.6125 226.369 55.9372L225.835 56.7828C228.674 58.5741 232.023 59.46 235.862 59.46V58.46ZM226.369 55.9372C223.709 54.2588 221.65 51.8814 220.194 48.7871L219.289 49.2129C220.82 52.4653 223.001 54.9946 225.835 56.7828L226.369 55.9372ZM220.195 48.7886C218.739 45.669 218.002 41.9444 218.002 37.6H217.002C217.002 42.0556 217.758 45.931 219.289 49.2114L220.195 48.7886ZM218.002 37.6C218.002 33.2556 218.739 29.531 220.195 26.4114L219.289 25.9886C217.758 29.269 217.002 33.1444 217.002 37.6H218.002ZM220.194 26.4145C221.676 23.2933 223.761 20.9025 226.447 19.224L225.917 18.376C223.056 20.1641 220.848 22.7067 219.29 25.9855L220.194 26.4145ZM226.45 19.2222C229.132 17.5201 232.303 16.66 235.982 16.66V15.66C232.141 15.66 228.779 16.56 225.914 18.3778L226.45 19.2222ZM235.982 16.66C240.144 16.66 243.556 17.6276 246.254 19.5287L246.83 18.7113C243.927 16.6657 240.3 15.66 235.982 15.66V16.66ZM246.258 19.5318C248.979 21.4057 250.961 24.2003 252.187 27.9551L253.137 27.6449C251.856 23.7197 249.758 20.7276 246.825 18.7082L246.258 19.5318ZM252.502 27.3263L243.022 30.5263L243.342 31.4737L252.822 28.2737L252.502 27.3263ZM243.65 30.8244C242.983 29.0452 241.997 27.6524 240.679 26.6779L240.085 27.4821C241.22 28.321 242.101 29.5415 242.714 31.1756L243.65 30.8244ZM240.685 26.6821C239.367 25.6799 237.847 25.18 236.142 25.18V26.18C237.637 26.18 238.943 26.6135 240.079 27.4779L240.685 26.6821ZM236.142 25.18C233.391 25.18 231.176 26.3263 229.537 28.5865L230.347 29.1735C231.801 27.167 233.719 26.18 236.142 26.18V25.18ZM229.535 28.5899C227.934 30.836 227.162 33.8568 227.162 37.6H228.162C228.162 33.9832 228.909 31.1907 230.349 29.1701L229.535 28.5899ZM227.162 37.6C227.162 41.2902 227.921 44.2822 229.492 46.5267L230.311 45.9533C228.896 43.9311 228.162 41.1632 228.162 37.6H227.162ZM229.492 46.5267C231.076 48.7893 233.24 49.94 235.942 49.94V48.94C233.577 48.94 231.714 47.9574 230.311 45.9533L229.492 46.5267ZM235.942 49.94C237.83 49.94 239.464 49.402 240.816 48.3088L240.188 47.5312C239.033 48.4647 237.627 48.94 235.942 48.94V49.94ZM240.812 48.312C242.188 47.2226 243.183 45.6484 243.819 43.6303L242.865 43.3297C242.274 45.2049 241.375 46.5907 240.192 47.528L240.812 48.312ZM243.198 43.9588L252.638 46.7988L252.926 45.8412L243.486 43.0012L243.198 43.9588ZM252.301 46.1822C251.125 50.2865 249.138 53.3435 246.364 55.3982L246.959 56.2018C249.946 53.9898 252.039 50.7268 253.263 46.4578L252.301 46.1822ZM246.365 55.3978C243.615 57.4277 240.126 58.46 235.862 58.46V59.46C240.291 59.46 244.002 58.3856 246.959 56.2022L246.365 55.3978ZM267.152 56.28L267.522 55.9434L267.152 56.28ZM264.712 25.88H265.212V25.38H264.712V25.88ZM258.753 25.88H258.253V26.38H258.753V25.88ZM258.753 17.12V16.62H258.253V17.12H258.753ZM264.712 17.12V17.62H265.212V17.12H264.712ZM264.712 5L264.496 4.54921L264.212 4.68534V5H264.712ZM274.633 0.239994H275.133V-0.554506L274.416 -0.210794L274.633 0.239994ZM274.633 17.12H274.133V17.62H274.633V17.12ZM283.913 17.12H284.413V16.62H283.913V17.12ZM283.913 25.88V26.38H284.413V25.88H283.913ZM274.633 25.88V25.38H274.133V25.88H274.633ZM275.392 49.32L275.007 49.6385L275.015 49.6481L275.392 49.32ZM284.353 48.4L284.848 48.4659L284.975 47.5103L284.121 47.9569L284.353 48.4ZM283.193 57.12L283.416 57.5672L283.653 57.4487L283.688 57.1859L283.193 57.12ZM279.193 58.48L279.093 57.99L279.084 57.9919L279.193 58.48ZM274.473 58.46C271.309 58.46 269.025 57.5935 267.522 55.9434L266.783 56.6166C268.534 58.5399 271.129 59.46 274.473 59.46V58.46ZM267.522 55.9434C266.011 54.2838 265.212 51.7594 265.212 48.28H264.212C264.212 51.8939 265.04 54.7029 266.783 56.6166L267.522 55.9434ZM265.212 48.28V25.88H264.212V48.28H265.212ZM264.712 25.38H258.753V26.38H264.712V25.38ZM259.253 25.88V17.12H258.253V25.88H259.253ZM258.753 17.62H264.712V16.62H258.753V17.62ZM265.212 17.12V5H264.212V17.12H265.212ZM264.929 5.45079L274.849 0.690784L274.416 -0.210794L264.496 4.54921L264.929 5.45079ZM274.133 0.239994V17.12H275.133V0.239994H274.133ZM274.633 17.62H283.913V16.62H274.633V17.62ZM283.413 17.12V25.88H284.413V17.12H283.413ZM283.913 25.38H274.633V26.38H283.913V25.38ZM274.133 25.88V46.48H275.133V25.88H274.133ZM274.133 46.48C274.133 47.8101 274.393 48.8951 275.007 49.6384L275.778 49.0016C275.379 48.5182 275.133 47.7099 275.133 46.48H274.133ZM275.015 49.6481C275.675 50.4074 276.665 50.74 277.872 50.74V49.74C276.84 49.74 276.176 49.4593 275.77 48.9919L275.015 49.6481ZM277.872 50.74C279.949 50.74 282.189 50.0949 284.584 48.8431L284.121 47.9569C281.822 49.1584 279.742 49.74 277.872 49.74V50.74ZM283.857 48.3341L282.697 57.0541L283.688 57.1859L284.848 48.4659L283.857 48.3341ZM282.969 56.6728C281.784 57.2652 280.493 57.7049 279.093 57.9901L279.292 58.9699C280.772 58.6685 282.148 58.2015 283.416 57.5672L282.969 56.6728ZM279.084 57.9919C277.685 58.3029 276.148 58.46 274.473 58.46V59.46C276.21 59.46 277.82 59.2971 279.301 58.9681L279.084 57.9919ZM324.159 56.36L323.924 56.8014L323.928 56.8036L324.159 56.36ZM316.559 48.72L316.115 48.9507L316.117 48.9535L316.559 48.72ZM313.959 2V1.5H313.459V2H313.959ZM324.319 2H324.819V1.5H324.319V2ZM327.159 46L326.796 46.3437L327.159 46ZM342.759 47.76L342.546 47.3074L342.759 47.76ZM346.719 43.8L347.169 44.0183L347.17 44.0157L346.719 43.8ZM348.039 2V1.5H347.539V2H348.039ZM358.439 2H358.939V1.5H358.439V2ZM356.679 46.8L356.217 46.6083L356.215 46.612L356.679 46.8ZM351.879 53.76L352.209 54.1351L352.21 54.1348L351.879 53.76ZM344.799 57.72L344.945 58.198L344.95 58.1966L344.799 57.72ZM336.199 58.46C331.566 58.46 327.636 57.6046 324.389 55.9164L323.928 56.8036C327.348 58.5821 331.445 59.46 336.199 59.46V58.46ZM324.394 55.9186C321.176 54.206 318.715 51.732 317.001 48.4865L316.117 48.9535C317.923 52.3747 320.528 54.994 323.924 56.8014L324.394 55.9186ZM317.002 48.4893C315.314 45.2432 314.459 41.2998 314.459 36.64H313.459C313.459 41.4202 314.336 45.5302 316.115 48.9507L317.002 48.4893ZM314.459 36.64V2H313.459V36.64H314.459ZM313.959 2.5H324.319V1.5H313.959V2.5ZM323.819 2V36.64H324.819V2H323.819ZM323.819 36.64C323.819 40.9409 324.777 44.2116 326.796 46.3437L327.522 45.6563C325.754 43.7884 324.819 40.819 324.819 36.64H323.819ZM326.796 46.3437C328.822 48.4842 331.997 49.5 336.199 49.5V48.5C332.134 48.5 329.282 47.5158 327.522 45.6563L326.796 46.3437ZM336.199 49.5C338.862 49.5 341.126 49.0793 342.971 48.2126L342.546 47.3074C340.871 48.0941 338.763 48.5 336.199 48.5V49.5ZM342.971 48.2126C344.839 47.3354 346.241 45.9305 347.169 44.0183L346.269 43.5817C345.437 45.2962 344.199 46.5313 342.546 47.3074L342.971 48.2126ZM347.17 44.0157C348.093 42.0855 348.539 39.6176 348.539 36.64H347.539C347.539 39.529 347.105 41.8345 346.268 43.5843L347.17 44.0157ZM348.539 36.64V2H347.539V36.64H348.539ZM348.039 2.5H358.439V1.5H348.039V2.5ZM357.939 2V36.64H358.939V2H357.939ZM357.939 36.64C357.939 40.5391 357.359 43.8572 356.217 46.6083L357.141 46.9917C358.345 44.0894 358.939 40.6342 358.939 36.64H357.939ZM356.215 46.612C355.094 49.3753 353.537 51.6287 351.548 53.3852L352.21 54.1348C354.327 52.2647 355.97 49.8781 357.142 46.988L356.215 46.612ZM351.548 53.3849C349.576 55.1235 347.278 56.41 344.648 57.2434L344.95 58.1966C347.706 57.3233 350.128 55.9698 352.209 54.1351L351.548 53.3849ZM344.652 57.242C342.01 58.053 339.193 58.46 336.199 58.46V59.46C339.285 59.46 342.201 59.0404 344.945 58.198L344.652 57.242ZM374.369 56.92L374.157 57.3729L374.158 57.3736L374.369 56.92ZM367.449 51.44L367.127 51.0574L366.766 51.3607L367.048 51.7385L367.449 51.44ZM374.009 45.92L374.372 45.5767L374.048 45.2334L373.687 45.5374L374.009 45.92ZM378.729 49.36L378.513 49.8112L378.519 49.8138L378.729 49.36ZM388.529 49.6L388.789 50.027L388.797 50.0223L388.529 49.6ZM389.369 44.6L388.977 44.9104L388.984 44.9194L388.991 44.9281L389.369 44.6ZM386.649 42.68L386.421 43.1254L386.429 43.129L386.649 42.68ZM381.129 40.4L380.957 40.8695L380.96 40.8705L381.129 40.4ZM371.369 34.96L371.01 35.3087L371.013 35.3111L371.369 34.96ZM372.569 19.32L372.872 19.7172L372.875 19.7153L372.569 19.32ZM391.449 17.84L391.245 18.2965L391.247 18.2973L391.449 17.84ZM397.969 22.76L398.288 23.1451L398.675 22.824L398.352 22.4385L397.969 22.76ZM391.449 28.16L391.093 28.5116L391.415 28.8371L391.768 28.5451L391.449 28.16ZM379.129 25.44L379.384 25.8699L379.393 25.8646L379.129 25.44ZM379.369 30.48L379.089 30.8946L379.094 30.8975L379.369 30.48ZM385.889 33.2L385.733 33.6752L385.739 33.6771L385.889 33.2ZM393.529 36.56L393.258 36.9804L393.261 36.9821L393.529 36.56ZM397.849 40.92L397.41 41.1604L397.413 41.1658L397.849 40.92ZM395.049 55.68L394.741 55.2859L394.739 55.2874L395.049 55.68ZM383.569 58.46C380.442 58.46 377.447 57.7962 374.579 56.4664L374.158 57.3736C377.157 58.7638 380.295 59.46 383.569 59.46V58.46ZM374.581 56.4671C371.74 55.1378 369.501 53.3607 367.85 51.1415L367.048 51.7385C368.809 54.1059 371.185 55.9822 374.157 57.3729L374.581 56.4671ZM367.771 51.8226L374.331 46.3026L373.687 45.5374L367.127 51.0574L367.771 51.8226ZM373.645 46.2633C375.048 47.7481 376.671 48.9313 378.513 49.8112L378.944 48.9088C377.213 48.082 375.69 46.9719 374.372 45.5767L373.645 46.2633ZM378.519 49.8138C380.358 50.6646 382.136 51.1 383.849 51.1V50.1C382.308 50.1 380.673 49.7087 378.939 48.9062L378.519 49.8138ZM383.849 51.1C385.919 51.1 387.584 50.7616 388.789 50.0269L388.268 49.1731C387.287 49.7717 385.832 50.1 383.849 50.1V51.1ZM388.797 50.0223C390.025 49.2433 390.669 48.129 390.669 46.72H389.669C389.669 47.7643 389.219 48.57 388.261 49.1777L388.797 50.0223ZM390.669 46.72C390.669 45.7973 390.357 44.9746 389.746 44.2719L388.991 44.9281C389.447 45.452 389.669 46.0427 389.669 46.72H390.669ZM389.761 44.2896C389.185 43.5619 388.198 42.882 386.869 42.231L386.429 43.129C387.713 43.758 388.54 44.3581 388.977 44.9104L389.761 44.2896ZM386.876 42.2346C385.542 41.5539 383.679 40.7857 381.298 39.9295L380.96 40.8705C383.325 41.721 385.142 42.4727 386.422 43.1254L386.876 42.2346ZM381.301 39.9305C376.737 38.259 373.567 36.4766 371.725 34.6089L371.013 35.3111C373.011 37.3367 376.347 39.181 380.957 40.8695L381.301 39.9305ZM371.727 34.6113C369.907 32.7406 368.989 30.3766 368.989 27.48H367.989C367.989 30.6101 368.991 33.2328 371.01 35.3087L371.727 34.6113ZM368.989 27.48C368.989 24.2792 370.273 21.7047 372.872 19.7172L372.265 18.9228C369.424 21.0953 367.989 23.9608 367.989 27.48H368.989ZM372.875 19.7153C375.486 17.6931 378.916 16.66 383.209 16.66V15.66C378.755 15.66 375.092 16.7336 372.263 18.9247L372.875 19.7153ZM383.209 16.66C386.131 16.66 388.808 17.2076 391.245 18.2965L391.653 17.3835C389.076 16.2324 386.259 15.66 383.209 15.66V16.66ZM391.247 18.2973C393.709 19.3858 395.821 20.9789 397.586 23.0815L398.352 22.4385C396.49 20.2211 394.255 18.5341 391.651 17.3827L391.247 18.2973ZM397.65 22.3749L391.13 27.7749L391.768 28.5451L398.288 23.1451L397.65 22.3749ZM391.804 27.8084C389.317 25.2938 386.392 24.02 383.049 24.02V25.02C386.106 25.02 388.78 26.1729 391.093 28.5116L391.804 27.8084ZM383.049 24.02C381.365 24.02 379.956 24.3368 378.865 25.0154L379.393 25.8646C380.274 25.3165 381.48 25.02 383.049 25.02V24.02ZM378.873 25.0102C377.759 25.6727 377.149 26.624 377.149 27.84H378.149C378.149 27.0293 378.525 26.3806 379.384 25.8698L378.873 25.0102ZM377.149 27.84C377.149 29.0542 377.865 30.0688 379.089 30.8945L379.648 30.0655C378.579 29.3445 378.149 28.5991 378.149 27.84H377.149ZM379.094 30.8975C380.328 31.7113 382.559 32.635 385.733 33.6751L386.044 32.7249C382.871 31.685 380.756 30.7954 379.644 30.0625L379.094 30.8975ZM385.739 33.6771C388.86 34.6555 391.361 35.7591 393.258 36.9804L393.799 36.1396C391.803 34.8542 389.211 33.7178 386.038 32.7229L385.739 33.6771ZM393.261 36.9821C395.18 38.2009 396.553 39.5967 397.41 41.1604L398.287 40.6796C397.331 38.9366 395.824 37.4258 393.797 36.1379L393.261 36.9821ZM397.413 41.1658C398.299 42.7343 398.749 44.5541 398.749 46.64H399.749C399.749 44.4059 399.265 42.4124 398.284 40.6742L397.413 41.1658ZM398.749 46.64C398.749 50.3404 397.409 53.2025 394.741 55.2859L395.357 56.0741C398.289 53.7842 399.749 50.6196 399.749 46.64H398.749ZM394.739 55.2874C392.082 57.3822 388.379 58.46 383.569 58.46V59.46C388.519 59.46 392.469 58.3512 395.358 56.0726L394.739 55.2874Z" fill="#18252E"/>
</svg>
