<svg width="174" height="22" viewBox="0 0 174 22" fill="none" xmlns="http://www.w3.org/2000/svg">
<path d="M38.278 15.14C36.766 15.14 35.6087 14.734 34.806 13.922C34.0033 13.1007 33.602 11.9853 33.602 10.576C33.602 9.08267 33.9893 7.92067 34.764 7.09C35.548 6.25933 36.7147 5.844 38.264 5.844C38.8053 5.844 39.2907 5.886 39.72 5.97C40.1587 6.04467 40.5693 6.152 40.952 6.292V7.944C40.1587 7.61733 39.3093 7.454 38.404 7.454C37.3773 7.454 36.64 7.71067 36.192 8.224C35.744 8.73733 35.52 9.52133 35.52 10.576C35.52 12.5547 36.4907 13.544 38.432 13.544C38.8707 13.544 39.3047 13.5067 39.734 13.432C40.1633 13.348 40.574 13.2267 40.966 13.068V14.734C40.5833 14.8553 40.1727 14.9533 39.734 15.028C39.3047 15.1027 38.8193 15.14 38.278 15.14ZM42.2765 15V8.364H44.0265L44.1105 9.05C44.4092 8.86333 44.7778 8.69533 45.2165 8.546C45.6645 8.38733 46.1032 8.28 46.5325 8.224V9.652C46.2805 9.68933 46.0052 9.74533 45.7065 9.82C45.4078 9.89467 45.1232 9.97867 44.8525 10.072C44.5818 10.1653 44.3532 10.2633 44.1665 10.366V15H42.2765ZM50.6837 15.14C49.5357 15.14 48.6257 14.8553 47.9537 14.286C47.2817 13.7073 46.9457 12.8347 46.9457 11.668C46.9457 10.6133 47.2257 9.778 47.7857 9.162C48.3551 8.53667 49.1997 8.224 50.3197 8.224C51.3464 8.224 52.1304 8.49467 52.6717 9.036C53.2224 9.568 53.4977 10.268 53.4977 11.136V12.34H48.6957C48.7984 12.872 49.0411 13.236 49.4237 13.432C49.8157 13.628 50.3664 13.726 51.0757 13.726C51.4304 13.726 51.7897 13.6933 52.1537 13.628C52.5271 13.5627 52.8444 13.4787 53.1057 13.376V14.72C52.7977 14.86 52.4384 14.9627 52.0277 15.028C51.6171 15.1027 51.1691 15.14 50.6837 15.14ZM48.6957 11.178H51.8457V10.814C51.8457 10.4313 51.7337 10.1327 51.5097 9.918C51.2857 9.694 50.9077 9.582 50.3757 9.582C49.7504 9.582 49.3117 9.708 49.0597 9.96C48.8171 10.212 48.6957 10.618 48.6957 11.178ZM56.8996 15.14C56.4796 15.14 56.0876 15.0653 55.7236 14.916C55.369 14.7573 55.0796 14.5287 54.8556 14.23C54.641 13.922 54.5336 13.5393 54.5336 13.082C54.5336 12.4287 54.7623 11.906 55.2196 11.514C55.6863 11.122 56.3723 10.926 57.2776 10.926H59.2376V10.744C59.2376 10.3333 59.121 10.044 58.8876 9.876C58.6636 9.708 58.2063 9.624 57.5156 9.624C56.7596 9.624 56.0316 9.74067 55.3316 9.974V8.644C55.6396 8.52267 56.013 8.42467 56.4516 8.35C56.8996 8.266 57.385 8.224 57.9076 8.224C58.9063 8.224 59.6763 8.42933 60.2176 8.84C60.7683 9.24133 61.0436 9.89 61.0436 10.786V15H59.4056L59.3076 14.398C59.0463 14.6313 58.7243 14.8133 58.3416 14.944C57.959 15.0747 57.4783 15.14 56.8996 15.14ZM57.4176 13.894C57.8376 13.894 58.2016 13.824 58.5096 13.684C58.8176 13.544 59.0603 13.3667 59.2376 13.152V12.102H57.3196C56.5823 12.102 56.2136 12.4053 56.2136 13.012C56.2136 13.6 56.615 13.894 57.4176 13.894ZM65.1976 15.14C64.4322 15.14 63.8629 14.9393 63.4896 14.538C63.1256 14.1367 62.9436 13.5907 62.9436 12.9V9.82H62.0056V8.364H62.9436V6.936L64.8336 6.376V8.364H66.5136L66.4016 9.82H64.8336V12.774C64.8336 13.138 64.9176 13.39 65.0856 13.53C65.2536 13.6607 65.5149 13.726 65.8696 13.726C66.1309 13.726 66.4016 13.6793 66.6816 13.586V14.888C66.4762 14.972 66.2522 15.0327 66.0096 15.07C65.7669 15.1167 65.4962 15.14 65.1976 15.14ZM71.1095 15.14C69.9615 15.14 69.0515 14.8553 68.3795 14.286C67.7075 13.7073 67.3715 12.8347 67.3715 11.668C67.3715 10.6133 67.6515 9.778 68.2115 9.162C68.7808 8.53667 69.6255 8.224 70.7455 8.224C71.7722 8.224 72.5562 8.49467 73.0975 9.036C73.6482 9.568 73.9235 10.268 73.9235 11.136V12.34H69.1215C69.2242 12.872 69.4668 13.236 69.8495 13.432C70.2415 13.628 70.7922 13.726 71.5015 13.726C71.8562 13.726 72.2155 13.6933 72.5795 13.628C72.9528 13.5627 73.2702 13.4787 73.5315 13.376V14.72C73.2235 14.86 72.8642 14.9627 72.4535 15.028C72.0428 15.1027 71.5948 15.14 71.1095 15.14ZM69.1215 11.178H72.2715V10.814C72.2715 10.4313 72.1595 10.1327 71.9355 9.918C71.7115 9.694 71.3335 9.582 70.8015 9.582C70.1762 9.582 69.7375 9.708 69.4855 9.96C69.2428 10.212 69.1215 10.618 69.1215 11.178ZM79.7856 15L78.0356 8.364H79.9256L80.9336 12.676L82.0396 9.218V8.364H83.4816L84.7416 12.676L85.7216 8.364H87.5976L85.8616 15H84.1256L82.8516 11.122L81.5496 15H79.7856ZM88.8811 7.146V5.662H90.9391V7.146H88.8811ZM89.0351 15V9.764H88.0411L88.2091 8.364H90.9251V15H89.0351ZM95.1663 15.14C94.401 15.14 93.8317 14.9393 93.4583 14.538C93.0943 14.1367 92.9123 13.5907 92.9123 12.9V9.82H91.9743V8.364H92.9123V6.936L94.8023 6.376V8.364H96.4823L96.3703 9.82H94.8023V12.774C94.8023 13.138 94.8863 13.39 95.0543 13.53C95.2223 13.6607 95.4837 13.726 95.8383 13.726C96.0997 13.726 96.3703 13.6793 96.6503 13.586V14.888C96.445 14.972 96.221 15.0327 95.9783 15.07C95.7357 15.1167 95.465 15.14 95.1663 15.14ZM97.6203 15V5.564H99.5103V8.924C99.7809 8.71867 100.112 8.55067 100.504 8.42C100.896 8.28933 101.321 8.224 101.778 8.224C102.656 8.224 103.295 8.42933 103.696 8.84C104.098 9.25067 104.298 9.88533 104.298 10.744V15H102.408V10.842C102.408 10.394 102.315 10.0767 102.128 9.89C101.951 9.70333 101.615 9.61 101.12 9.61C100.831 9.61 100.537 9.67533 100.238 9.806C99.9489 9.93667 99.7063 10.1 99.5103 10.296V15H97.6203ZM111.545 15.14C110.78 15.14 110.211 14.9393 109.837 14.538C109.473 14.1367 109.291 13.5907 109.291 12.9V9.82H108.353V8.364H109.291V6.936L111.181 6.376V8.364H112.861L112.749 9.82H111.181V12.774C111.181 13.138 111.265 13.39 111.433 13.53C111.601 13.6607 111.863 13.726 112.217 13.726C112.479 13.726 112.749 13.6793 113.029 13.586V14.888C112.824 14.972 112.6 15.0327 112.357 15.07C112.115 15.1167 111.844 15.14 111.545 15.14ZM113.999 15V5.564H115.889V8.924C116.16 8.71867 116.491 8.55067 116.883 8.42C117.275 8.28933 117.7 8.224 118.157 8.224C119.035 8.224 119.674 8.42933 120.075 8.84C120.477 9.25067 120.677 9.88533 120.677 10.744V15H118.787V10.842C118.787 10.394 118.694 10.0767 118.507 9.89C118.33 9.70333 117.994 9.61 117.499 9.61C117.21 9.61 116.916 9.67533 116.617 9.806C116.328 9.93667 116.085 10.1 115.889 10.296V15H113.999ZM122.678 7.146V5.662H124.736V7.146H122.678ZM122.832 15V9.764H121.838L122.006 8.364H124.722V15H122.832ZM128.669 15.14C128.175 15.14 127.703 15.1027 127.255 15.028C126.807 14.9627 126.448 14.8787 126.177 14.776V13.208C126.504 13.3387 126.873 13.4413 127.283 13.516C127.694 13.5813 128.072 13.614 128.417 13.614C128.884 13.614 129.211 13.586 129.397 13.53C129.593 13.474 129.691 13.348 129.691 13.152C129.691 12.928 129.542 12.7647 129.243 12.662C128.954 12.5593 128.52 12.4147 127.941 12.228C127.335 12.0227 126.868 11.7753 126.541 11.486C126.215 11.1967 126.051 10.7673 126.051 10.198C126.051 9.56333 126.28 9.078 126.737 8.742C127.204 8.39667 127.951 8.224 128.977 8.224C129.388 8.224 129.775 8.25667 130.139 8.322C130.503 8.378 130.811 8.448 131.063 8.532V10.086C130.811 9.96467 130.522 9.876 130.195 9.82C129.869 9.75467 129.565 9.722 129.285 9.722C128.884 9.722 128.562 9.75 128.319 9.806C128.086 9.862 127.969 9.98333 127.969 10.17C127.969 10.3753 128.095 10.52 128.347 10.604C128.609 10.688 129.01 10.814 129.551 10.982C130.083 11.1407 130.499 11.3133 130.797 11.5C131.096 11.6867 131.306 11.9107 131.427 12.172C131.549 12.424 131.609 12.7413 131.609 13.124C131.609 14.468 130.629 15.14 128.669 15.14ZM135.997 15V5.984H137.901L140.547 11.402L143.193 5.984H145.083V15H143.193V9.134L141.093 13.446H140.001L137.887 9.134V15H135.997ZM149.993 15.14C148.752 15.14 147.842 14.8413 147.263 14.244C146.684 13.6373 146.395 12.7833 146.395 11.682C146.395 10.5807 146.684 9.73133 147.263 9.134C147.851 8.52733 148.761 8.224 149.993 8.224C151.234 8.224 152.144 8.52733 152.723 9.134C153.311 9.73133 153.605 10.5807 153.605 11.682C153.605 12.7833 153.316 13.6373 152.737 14.244C152.158 14.8413 151.244 15.14 149.993 15.14ZM149.993 13.53C150.6 13.53 151.034 13.3947 151.295 13.124C151.556 12.844 151.687 12.3633 151.687 11.682C151.687 11.0007 151.556 10.5247 151.295 10.254C151.034 9.974 150.6 9.834 149.993 9.834C149.396 9.834 148.966 9.974 148.705 10.254C148.444 10.5247 148.313 11.0007 148.313 11.682C148.313 12.3633 148.444 12.844 148.705 13.124C148.966 13.3947 149.396 13.53 149.993 13.53ZM157.691 15.14C157.103 15.14 156.576 15.0373 156.109 14.832C155.652 14.6173 155.292 14.272 155.031 13.796C154.77 13.3107 154.639 12.6713 154.639 11.878C154.639 11.0847 154.784 10.4173 155.073 9.876C155.362 9.33467 155.75 8.924 156.235 8.644C156.72 8.364 157.252 8.224 157.831 8.224C158.559 8.224 159.18 8.392 159.693 8.728V5.564H161.583V15H159.959L159.847 14.384C159.558 14.636 159.24 14.8273 158.895 14.958C158.559 15.0793 158.158 15.14 157.691 15.14ZM158.209 13.754C158.797 13.754 159.292 13.5533 159.693 13.152V10.128C159.301 9.78267 158.844 9.61 158.321 9.61C157.145 9.61 156.557 10.366 156.557 11.878C156.557 12.5873 156.702 13.0773 156.991 13.348C157.28 13.6187 157.686 13.754 158.209 13.754ZM166.498 15.14C165.35 15.14 164.44 14.8553 163.768 14.286C163.096 13.7073 162.76 12.8347 162.76 11.668C162.76 10.6133 163.04 9.778 163.6 9.162C164.17 8.53667 165.014 8.224 166.134 8.224C167.161 8.224 167.945 8.49467 168.486 9.036C169.037 9.568 169.312 10.268 169.312 11.136V12.34H164.51C164.613 12.872 164.856 13.236 165.238 13.432C165.63 13.628 166.181 13.726 166.89 13.726C167.245 13.726 167.604 13.6933 167.968 13.628C168.342 13.5627 168.659 13.4787 168.92 13.376V14.72C168.612 14.86 168.253 14.9627 167.842 15.028C167.432 15.1027 166.984 15.14 166.498 15.14ZM164.51 11.178H167.66V10.814C167.66 10.4313 167.548 10.1327 167.324 9.918C167.1 9.694 166.722 9.582 166.19 9.582C165.565 9.582 165.126 9.708 164.874 9.96C164.632 10.212 164.51 10.618 164.51 11.178ZM172.476 15.14C171.832 15.14 171.361 14.9907 171.062 14.692C170.773 14.3933 170.628 13.9173 170.628 13.264V5.564H172.518V13.11C172.518 13.3433 172.565 13.5067 172.658 13.6C172.751 13.684 172.887 13.726 173.064 13.726C173.307 13.726 173.526 13.6933 173.722 13.628V14.93C173.367 15.07 172.952 15.14 172.476 15.14Z" fill="url(#paint0_linear_121_1060)"/>
<path d="M2.05293 19.6562C1.90694 19.6562 1.76272 19.6242 1.6304 19.5625C1.49809 19.5008 1.38088 19.4108 1.287 19.299C1.19313 19.1872 1.12486 19.0562 1.08698 18.9152C1.04911 18.7742 1.04256 18.6266 1.06777 18.4828L1.79512 14.3609C1.83057 14.1596 1.92698 13.974 2.07129 13.8293L12.4006 3.50039C12.4563 3.44466 12.5224 3.40045 12.5952 3.37029C12.668 3.34013 12.746 3.32461 12.8248 3.32461C12.9036 3.32461 12.9816 3.34013 13.0544 3.37029C13.1272 3.40045 13.1933 3.44466 13.249 3.50039L17.2088 7.46016C17.2645 7.51586 17.3087 7.58199 17.3389 7.65478C17.369 7.72757 17.3846 7.80558 17.3846 7.88437C17.3846 7.96316 17.369 8.04118 17.3389 8.11397C17.3087 8.18676 17.2645 8.25289 17.2088 8.30859L6.88145 18.6359C6.73653 18.7814 6.55012 18.8784 6.34785 18.9137L2.22675 19.641C2.16936 19.6511 2.1112 19.6562 2.05293 19.6562ZM2.96621 14.6316L2.2994 18.4094L6.07792 17.7426L15.9361 7.88437L12.8248 4.77304L2.96621 14.6316Z" fill="url(#paint1_linear_121_1060)"/>
<path d="M16.7844 8.48438C16.7056 8.48448 16.6275 8.469 16.5547 8.43883C16.4819 8.40866 16.4158 8.3644 16.3602 8.3086L12.4004 4.34881C12.3447 4.29311 12.3005 4.22697 12.2703 4.15418C12.2401 4.08139 12.2246 4.00338 12.2246 3.92459C12.2246 3.84579 12.2401 3.76778 12.2703 3.69499C12.3005 3.6222 12.3447 3.55606 12.4004 3.50037L14.9461 0.954661C15.2889 0.62728 15.7447 0.444603 16.2188 0.444603C16.6928 0.444603 17.1486 0.62728 17.4914 0.954661L19.7543 3.21761C20.0912 3.55544 20.2804 4.01306 20.2805 4.49018C20.2806 4.9673 20.0915 5.42498 19.7547 5.76292L17.2086 8.30862C17.1529 8.36442 17.0868 8.40868 17.014 8.43884C16.9412 8.469 16.8632 8.48448 16.7844 8.48438ZM13.673 3.92461L16.7844 7.03594L18.9059 4.91446C19.0181 4.80179 19.0811 4.64925 19.0811 4.49024C19.0811 4.33123 19.0181 4.17869 18.9059 4.06602L16.643 1.80313C16.5287 1.69407 16.3769 1.63321 16.2189 1.63321C16.061 1.63321 15.9091 1.69407 15.7949 1.80313L13.673 3.92461Z" fill="url(#paint2_linear_121_1060)"/>
<path d="M19.0003 22H1.40029C1.24116 22 1.08855 21.9368 0.976029 21.8243C0.863507 21.7117 0.800293 21.5591 0.800293 21.4C0.800293 21.2409 0.863507 21.0883 0.976029 20.9757C1.08855 20.8632 1.24116 20.8 1.40029 20.8H19.0003C19.1594 20.8 19.312 20.8632 19.4246 20.9757C19.5371 21.0883 19.6003 21.2409 19.6003 21.4C19.6003 21.5591 19.5371 21.7117 19.4246 21.8243C19.312 21.9368 19.1594 22 19.0003 22Z" fill="url(#paint3_linear_121_1060)"/>
<path d="M2.2001 4.4C2.04098 4.39996 1.88839 4.33673 1.77588 4.22422C1.66337 4.1117 1.60014 3.95912 1.6001 3.8V0.6C1.6001 0.44087 1.66331 0.288258 1.77583 0.175736C1.88836 0.063214 2.04097 0 2.2001 0C2.35923 0 2.51184 0.063214 2.62436 0.175736C2.73688 0.288258 2.8001 0.44087 2.8001 0.6V3.8C2.80006 3.95912 2.73683 4.1117 2.62431 4.22422C2.5118 4.33673 2.35921 4.39996 2.2001 4.4Z" fill="url(#paint4_linear_121_1060)"/>
<path d="M3.8 2.8H0.6C0.44087 2.8 0.288258 2.73678 0.175736 2.62426C0.063214 2.51174 0 2.35913 0 2.2C0 2.04087 0.063214 1.88826 0.175736 1.77573C0.288258 1.66321 0.44087 1.6 0.6 1.6H3.8C3.95913 1.6 4.11174 1.66321 4.22426 1.77573C4.33679 1.88826 4.4 2.04087 4.4 2.2C4.4 2.35913 4.33679 2.51174 4.22426 2.62426C4.11174 2.73678 3.95913 2.8 3.8 2.8Z" fill="url(#paint5_linear_121_1060)"/>
<path d="M7.8002 6C7.64108 5.99996 7.48849 5.93673 7.37598 5.82422C7.26347 5.7117 7.20024 5.55912 7.2002 5.4V2.2C7.2002 2.04087 7.26341 1.88826 7.37593 1.77573C7.48845 1.66321 7.64107 1.6 7.8002 1.6C7.95933 1.6 8.11194 1.66321 8.22446 1.77573C8.33698 1.88826 8.4002 2.04087 8.4002 2.2V5.4C8.40015 5.55912 8.33693 5.7117 8.22441 5.82422C8.1119 5.93673 7.95931 5.99996 7.8002 6Z" fill="url(#paint6_linear_121_1060)"/>
<path d="M9.4001 4.4H6.2001C6.04097 4.4 5.88836 4.33679 5.77583 4.22427C5.66331 4.11175 5.6001 3.95913 5.6001 3.8C5.6001 3.64087 5.66331 3.48826 5.77583 3.37574C5.88836 3.26322 6.04097 3.2 6.2001 3.2H9.4001C9.55923 3.2 9.71184 3.26322 9.82436 3.37574C9.93688 3.48826 10.0001 3.64087 10.0001 3.8C10.0001 3.95913 9.93688 4.11175 9.82436 4.22427C9.71184 4.33679 9.55923 4.4 9.4001 4.4Z" fill="url(#paint7_linear_121_1060)"/>
<path d="M15.8002 19.6C15.6411 19.6 15.4885 19.5367 15.376 19.4242C15.2635 19.3117 15.2002 19.1591 15.2002 19V15.8C15.2002 15.6409 15.2634 15.4883 15.3759 15.3757C15.4885 15.2632 15.6411 15.2 15.8002 15.2C15.9593 15.2 16.1119 15.2632 16.2245 15.3757C16.337 15.4883 16.4002 15.6409 16.4002 15.8V19C16.4002 19.1591 16.3369 19.3117 16.2244 19.4242C16.1119 19.5367 15.9593 19.6 15.8002 19.6Z" fill="url(#paint8_linear_121_1060)"/>
<path d="M17.3996 18H14.1996C14.0405 18 13.8879 17.9368 13.7753 17.8243C13.6628 17.7117 13.5996 17.5591 13.5996 17.4C13.5996 17.2409 13.6628 17.0883 13.7753 16.9757C13.8879 16.8632 14.0405 16.8 14.1996 16.8H17.3996C17.5587 16.8 17.7114 16.8632 17.8239 16.9757C17.9364 17.0883 17.9996 17.2409 17.9996 17.4C17.9996 17.5591 17.9364 17.7117 17.8239 17.8243C17.7114 17.9368 17.5587 18 17.3996 18Z" fill="url(#paint9_linear_121_1060)"/>
<path d="M19.8002 14.8C19.6411 14.7999 19.4885 14.7367 19.376 14.6242C19.2635 14.5117 19.2002 14.3591 19.2002 14.2V11C19.2002 10.8409 19.2634 10.6882 19.3759 10.5757C19.4885 10.4632 19.6411 10.4 19.8002 10.4C19.9593 10.4 20.1119 10.4632 20.2245 10.5757C20.337 10.6882 20.4002 10.8409 20.4002 11V14.2C20.4002 14.3591 20.3369 14.5117 20.2244 14.6242C20.1119 14.7367 19.9593 14.7999 19.8002 14.8Z" fill="url(#paint10_linear_121_1060)"/>
<path d="M21.4001 13.2H18.2001C18.041 13.2 17.8884 13.1368 17.7758 13.0243C17.6633 12.9117 17.6001 12.7591 17.6001 12.6C17.6001 12.4409 17.6633 12.2883 17.7758 12.1757C17.8884 12.0632 18.041 12 18.2001 12H21.4001C21.5592 12 21.7118 12.0632 21.8244 12.1757C21.9369 12.2883 22.0001 12.4409 22.0001 12.6C22.0001 12.7591 21.9369 12.9117 21.8244 13.0243C21.7118 13.1368 21.5592 13.2 21.4001 13.2Z" fill="url(#paint11_linear_121_1060)"/>
<defs>
<linearGradient id="paint0_linear_121_1060" x1="15.375" y1="-1.37919e-06" x2="127.968" y2="116.733" gradientUnits="userSpaceOnUse">
<stop stop-color="#DD00AC"/>
<stop offset="1" stop-color="#7064E9"/>
</linearGradient>
<linearGradient id="paint1_linear_121_1060" x1="9.21865" y1="3.32461" x2="9.21865" y2="19.6562" gradientUnits="userSpaceOnUse">
<stop stop-color="#DD00AC"/>
<stop offset="1" stop-color="#7064E9"/>
</linearGradient>
<linearGradient id="paint2_linear_121_1060" x1="16.2526" y1="0.444603" x2="16.2526" y2="8.48438" gradientUnits="userSpaceOnUse">
<stop stop-color="#DD00AC"/>
<stop offset="1" stop-color="#7064E9"/>
</linearGradient>
<linearGradient id="paint3_linear_121_1060" x1="10.2003" y1="20.8" x2="10.2003" y2="22" gradientUnits="userSpaceOnUse">
<stop stop-color="#DD00AC"/>
<stop offset="1" stop-color="#7064E9"/>
</linearGradient>
<linearGradient id="paint4_linear_121_1060" x1="2.2001" y1="0" x2="2.2001" y2="4.4" gradientUnits="userSpaceOnUse">
<stop stop-color="#DD00AC"/>
<stop offset="1" stop-color="#7064E9"/>
</linearGradient>
<linearGradient id="paint5_linear_121_1060" x1="2.2" y1="1.6" x2="2.2" y2="2.8" gradientUnits="userSpaceOnUse">
<stop stop-color="#DD00AC"/>
<stop offset="1" stop-color="#7064E9"/>
</linearGradient>
<linearGradient id="paint6_linear_121_1060" x1="7.8002" y1="1.6" x2="7.8002" y2="6" gradientUnits="userSpaceOnUse">
<stop stop-color="#DD00AC"/>
<stop offset="1" stop-color="#7064E9"/>
</linearGradient>
<linearGradient id="paint7_linear_121_1060" x1="7.8001" y1="3.2" x2="7.8001" y2="4.4" gradientUnits="userSpaceOnUse">
<stop stop-color="#DD00AC"/>
<stop offset="1" stop-color="#7064E9"/>
</linearGradient>
<linearGradient id="paint8_linear_121_1060" x1="15.8002" y1="15.2" x2="15.8002" y2="19.6" gradientUnits="userSpaceOnUse">
<stop stop-color="#DD00AC"/>
<stop offset="1" stop-color="#7064E9"/>
</linearGradient>
<linearGradient id="paint9_linear_121_1060" x1="15.7996" y1="16.8" x2="15.7996" y2="18" gradientUnits="userSpaceOnUse">
<stop stop-color="#DD00AC"/>
<stop offset="1" stop-color="#7064E9"/>
</linearGradient>
<linearGradient id="paint10_linear_121_1060" x1="19.8002" y1="10.4" x2="19.8002" y2="14.8" gradientUnits="userSpaceOnUse">
<stop stop-color="#DD00AC"/>
<stop offset="1" stop-color="#7064E9"/>
</linearGradient>
<linearGradient id="paint11_linear_121_1060" x1="19.8001" y1="12" x2="19.8001" y2="13.2" gradientUnits="userSpaceOnUse">
<stop stop-color="#DD00AC"/>
<stop offset="1" stop-color="#7064E9"/>
</linearGradient>
</defs>
</svg>
