<svg width="19" height="18" viewBox="0 0 19 18" fill="none" xmlns="http://www.w3.org/2000/svg">
<path d="M1.77301 15.8821C1.64692 15.8821 1.52236 15.8562 1.40809 15.8064C1.29381 15.7565 1.19258 15.6839 1.11151 15.5935C1.03043 15.5032 0.971469 15.3973 0.93876 15.2834C0.906052 15.1695 0.900389 15.0502 0.922169 14.934L1.55035 11.6036C1.58097 11.4409 1.66423 11.291 1.78887 11.174L10.7098 2.82831C10.7579 2.78328 10.8151 2.74756 10.8779 2.72319C10.9408 2.69882 11.0082 2.68628 11.0762 2.68628C11.1443 2.68628 11.2117 2.69882 11.2745 2.72319C11.3374 2.74756 11.3945 2.78328 11.4426 2.82831L14.8625 6.02778C14.9106 6.07278 14.9488 6.12622 14.9748 6.18503C15.0009 6.24384 15.0143 6.30688 15.0143 6.37054C15.0143 6.4342 15.0009 6.49724 14.9748 6.55605C14.9488 6.61487 14.9106 6.6683 14.8625 6.7133L5.94319 15.0577C5.81803 15.1753 5.65704 15.2537 5.48234 15.2821L1.92313 15.8698C1.87356 15.878 1.82334 15.8821 1.77301 15.8821ZM2.56177 11.8223L1.98587 14.8747L5.24922 14.3359L13.7633 6.37054L11.0762 3.85661L2.56177 11.8223Z" fill="white"/>
<path d="M14.4957 6.85534C14.4276 6.85542 14.3602 6.84291 14.2974 6.81854C14.2345 6.79416 14.1774 6.7584 14.1293 6.71331L10.7094 3.51382C10.6613 3.46882 10.6231 3.41538 10.5971 3.35657C10.571 3.29776 10.5576 3.23472 10.5576 3.17106C10.5576 3.10739 10.571 3.04436 10.5971 2.98554C10.6231 2.92673 10.6613 2.87329 10.7094 2.82829L12.908 0.771377C13.2041 0.506854 13.5978 0.359253 14.0072 0.359253C14.4166 0.359253 14.8102 0.506854 15.1063 0.771377L17.0607 2.59982C17.3517 2.87279 17.5151 3.24255 17.5152 3.62805C17.5152 4.01356 17.3519 4.38337 17.061 4.65642L14.8621 6.71333C14.814 6.75842 14.7569 6.79417 14.694 6.81855C14.6312 6.84292 14.5638 6.85542 14.4957 6.85534ZM11.8086 3.17108L14.4957 5.68501L16.3279 3.97087C16.4248 3.87983 16.4792 3.75658 16.4792 3.6281C16.4792 3.49962 16.4248 3.37637 16.3279 3.28534L14.3736 1.45694C14.2749 1.36881 14.1438 1.31964 14.0074 1.31964C13.871 1.31964 13.7398 1.36881 13.6411 1.45694L11.8086 3.17108Z" fill="white"/>
<path d="M16.41 17.7759H1.2096C1.07217 17.7759 0.940362 17.7248 0.843182 17.6339C0.746002 17.543 0.691406 17.4196 0.691406 17.2911C0.691406 17.1625 0.746002 17.0392 0.843182 16.9483C0.940362 16.8574 1.07217 16.8063 1.2096 16.8063H16.41C16.5474 16.8063 16.6792 16.8574 16.7764 16.9483C16.8736 17.0392 16.9282 17.1625 16.9282 17.2911C16.9282 17.4196 16.8736 17.543 16.7764 17.6339C16.6792 17.7248 16.5474 17.7759 16.41 17.7759Z" fill="white"/>
<path d="M1.90003 3.55517C1.76261 3.55514 1.63082 3.50405 1.53365 3.41314C1.43648 3.32223 1.38187 3.19894 1.38184 3.07038V0.484796C1.38184 0.35622 1.43643 0.23291 1.53361 0.141993C1.63079 0.0510765 1.7626 0 1.90003 0C2.03746 0 2.16927 0.0510765 2.26645 0.141993C2.36363 0.23291 2.41823 0.35622 2.41823 0.484796V3.07038C2.41819 3.19894 2.36358 3.32223 2.26641 3.41314C2.16924 3.50405 2.03745 3.55514 1.90003 3.55517Z" fill="white"/>
<path d="M3.2819 2.26244H0.518195C0.380761 2.26244 0.248956 2.21136 0.151776 2.12045C0.0545953 2.02953 0 1.90622 0 1.77764C0 1.64907 0.0545953 1.52576 0.151776 1.43484C0.248956 1.34392 0.380761 1.29285 0.518195 1.29285H3.2819C3.41933 1.29285 3.55114 1.34392 3.64832 1.43484C3.7455 1.52576 3.80009 1.64907 3.80009 1.77764C3.80009 1.90622 3.7455 2.02953 3.64832 2.12045C3.55114 2.21136 3.41933 2.26244 3.2819 2.26244Z" fill="white"/>
<path d="M6.73694 4.84802C6.59952 4.84799 6.46774 4.7969 6.37057 4.70599C6.27339 4.61508 6.21879 4.49179 6.21875 4.36322V1.77764C6.21875 1.64907 6.27335 1.52576 6.37053 1.43484C6.46771 1.34392 6.59951 1.29285 6.73694 1.29285C6.87438 1.29285 7.00618 1.34392 7.10336 1.43484C7.20054 1.52576 7.25514 1.64907 7.25514 1.77764V4.36322C7.2551 4.49179 7.2005 4.61508 7.10332 4.70599C7.00615 4.7969 6.87437 4.84799 6.73694 4.84802Z" fill="white"/>
<path d="M8.11881 3.55516H5.35511C5.21768 3.55516 5.08587 3.50409 4.98869 3.41317C4.89151 3.32225 4.83691 3.19894 4.83691 3.07037C4.83691 2.94179 4.89151 2.81848 4.98869 2.72756C5.08587 2.63665 5.21768 2.58557 5.35511 2.58557H8.11881C8.25625 2.58557 8.38805 2.63665 8.48523 2.72756C8.58241 2.81848 8.63701 2.94179 8.63701 3.07037C8.63701 3.19894 8.58241 3.32225 8.48523 3.41317C8.38805 3.50409 8.25625 3.55516 8.11881 3.55516Z" fill="white"/>
<path d="M13.6461 15.8367C13.5087 15.8366 13.3769 15.7855 13.2797 15.6946C13.1826 15.6037 13.128 15.4804 13.1279 15.3519V12.7663C13.1279 12.6377 13.1825 12.5144 13.2797 12.4235C13.3769 12.3326 13.5087 12.2815 13.6461 12.2815C13.7836 12.2815 13.9154 12.3326 14.0125 12.4235C14.1097 12.5144 14.1643 12.6377 14.1643 12.7663V15.3519C14.1643 15.4804 14.1097 15.6037 14.0125 15.6946C13.9153 15.7855 13.7835 15.8366 13.6461 15.8367Z" fill="white"/>
<path d="M15.028 14.5439H12.2643C12.1269 14.5439 11.995 14.4929 11.8979 14.4019C11.8007 14.311 11.7461 14.1877 11.7461 14.0591C11.7461 13.9306 11.8007 13.8073 11.8979 13.7163C11.995 13.6254 12.1269 13.5743 12.2643 13.5743H15.028C15.1654 13.5743 15.2972 13.6254 15.3944 13.7163C15.4916 13.8073 15.5462 13.9306 15.5462 14.0591C15.5462 14.1877 15.4916 14.311 15.3944 14.4019C15.2972 14.4929 15.1654 14.5439 15.028 14.5439Z" fill="white"/>
<path d="M17.1002 11.9582C16.9628 11.9582 16.831 11.9071 16.7338 11.8162C16.6367 11.7253 16.5821 11.602 16.582 11.4735V8.88787C16.582 8.7593 16.6366 8.63599 16.7338 8.54507C16.831 8.45415 16.9628 8.40308 17.1002 8.40308C17.2377 8.40308 17.3695 8.45415 17.4666 8.54507C17.5638 8.63599 17.6184 8.7593 17.6184 8.88787V11.4735C17.6184 11.602 17.5638 11.7253 17.4666 11.8162C17.3694 11.9071 17.2376 11.9582 17.1002 11.9582Z" fill="white"/>
<path d="M18.4821 10.6655H15.7184C15.581 10.6655 15.4492 10.6144 15.352 10.5235C15.2548 10.4326 15.2002 10.3093 15.2002 10.1807C15.2002 10.0521 15.2548 9.92883 15.352 9.83792C15.4492 9.747 15.581 9.69592 15.7184 9.69592H18.4821C18.6195 9.69592 18.7513 9.747 18.8485 9.83792C18.9457 9.92883 19.0003 10.0521 19.0003 10.1807C19.0003 10.3093 18.9457 10.4326 18.8485 10.5235C18.7513 10.6144 18.6195 10.6655 18.4821 10.6655Z" fill="white"/>
</svg>
