<svg width="17" height="17" viewBox="0 0 17 17" fill="none" xmlns="http://www.w3.org/2000/svg">
        <g clip-path="url(#clip0_5_61173)">
        <path d="M13.9747 3.62507C12.9944 3.17529 11.9432 2.84391 10.8442 2.65412C10.8242 2.65045 10.8042 2.65961 10.7939 2.67792C10.6587 2.91836 10.5089 3.23204 10.4041 3.4786C9.22194 3.30162 8.04589 3.30162 6.88802 3.4786C6.78313 3.22656 6.62795 2.91836 6.49215 2.67792C6.48184 2.66022 6.46184 2.65106 6.44183 2.65412C5.34337 2.8433 4.2922 3.17468 3.31134 3.62507C3.30285 3.62873 3.29557 3.63484 3.29074 3.64277C1.29689 6.62154 0.750688 9.5271 1.01863 12.3966C1.01985 12.4107 1.02773 12.4241 1.03864 12.4326C2.35413 13.3987 3.6284 13.9852 4.87901 14.3739C4.89903 14.38 4.92023 14.3727 4.93297 14.3562C5.2288 13.9522 5.49251 13.5263 5.71861 13.0783C5.73196 13.0521 5.71922 13.0209 5.69195 13.0106C5.27366 12.8519 4.87537 12.6584 4.49224 12.4387C4.46194 12.421 4.45951 12.3777 4.48739 12.3569C4.56802 12.2965 4.64866 12.2337 4.72565 12.1702C4.73958 12.1586 4.75898 12.1562 4.77536 12.1635C7.29235 13.3127 10.0173 13.3127 12.5046 12.1635C12.521 12.1556 12.5404 12.158 12.5549 12.1696C12.6319 12.2331 12.7125 12.2965 12.7938 12.3569C12.8216 12.3777 12.8198 12.421 12.7895 12.4387C12.4064 12.6627 12.0081 12.8519 11.5892 13.01C11.5619 13.0203 11.5498 13.0521 11.5632 13.0783C11.7941 13.5256 12.0578 13.9516 12.3482 14.3556C12.3603 14.3727 12.3821 14.38 12.4021 14.3739C13.6588 13.9852 14.9331 13.3987 16.2486 12.4326C16.2601 12.4241 16.2674 12.4113 16.2686 12.3972C16.5893 9.07974 15.7315 6.19801 13.9947 3.64338C13.9904 3.63484 13.9832 3.62873 13.9747 3.62507ZM6.09449 10.6494C5.3367 10.6494 4.7123 9.95368 4.7123 9.09928C4.7123 8.24488 5.32459 7.54918 6.09449 7.54918C6.87043 7.54918 7.48878 8.25099 7.47665 9.09928C7.47665 9.95368 6.86436 10.6494 6.09449 10.6494ZM11.2049 10.6494C10.4471 10.6494 9.82271 9.95368 9.82271 9.09928C9.82271 8.24488 10.435 7.54918 11.2049 7.54918C11.9808 7.54918 12.5992 8.25099 12.5871 9.09928C12.5871 9.95368 11.9808 10.6494 11.2049 10.6494Z" fill="#384854"></path>
        </g>
        <defs>
        <clipPath id="clip0_5_61173">
        <rect width="15.3797" height="15.3797" fill="white" transform="translate(0.955078 0.961914)"></rect>
        </clipPath>
        </defs>
        </svg>