<svg width="18" height="18" viewBox="0 0 18 18" fill="none" xmlns="http://www.w3.org/2000/svg">
    <g clip-path="url(#clip0_5_61169)">
        <path d="M17.0886 8.54429C17.0886 3.82541 13.2632 0 8.5443 0C3.82541 0 0 3.82541 0 8.54429C0 12.8089 3.12451 16.3438 7.20925 16.9848V11.0141H5.0398V8.54429H7.20925V6.66188C7.20925 4.52047 8.48489 3.33762 10.4366 3.33762C11.3711 3.33762 12.3492 3.5045 12.3492 3.5045V5.60719H11.2718C10.2104 5.60719 9.87934 6.26587 9.87934 6.94224V8.54429H12.249L11.8702 11.0141H9.87934V16.9848C13.9641 16.3438 17.0886 12.8089 17.0886 8.54429Z" fill="#384854"></path>
    </g>
    <defs>
        <clipPath id="clip0_5_61169">
        <rect width="17.0886" height="17.0886" fill="white"></rect>
        </clipPath>
    </defs>
</svg>