<svg width="17" height="17" viewBox="0 0 17 17" fill="none" xmlns="http://www.w3.org/2000/svg">
<g clip-path="url(#clip0_5_61189)">
<path d="M8.11708 1.46171C10.2859 1.46171 10.5427 1.47122 11.3956 1.50927C12.1883 1.54415 12.6164 1.67732 12.9017 1.78829C13.279 1.93415 13.5517 2.11171 13.8339 2.3939C14.1193 2.67927 14.2937 2.94878 14.4395 3.3261C14.5505 3.61147 14.6837 4.04269 14.7186 4.8322C14.7566 5.6883 14.7661 5.94513 14.7661 8.11074C14.7661 10.2795 14.7566 10.5364 14.7186 11.3893C14.6837 12.182 14.5505 12.61 14.4395 12.8954C14.2937 13.2727 14.1161 13.5454 13.8339 13.8276C13.5485 14.1129 13.279 14.2873 12.9017 14.4332C12.6164 14.5442 12.1851 14.6773 11.3956 14.7122C10.5395 14.7503 10.2827 14.7598 8.11708 14.7598C5.9483 14.7598 5.69147 14.7503 4.83854 14.7122C4.04586 14.6773 3.61781 14.5442 3.33244 14.4332C2.95512 14.2873 2.68244 14.1098 2.40025 13.8276C2.11488 13.5422 1.94049 13.2727 1.79464 12.8954C1.68366 12.61 1.55049 12.1788 1.51561 11.3893C1.47756 10.5332 1.46805 10.2764 1.46805 8.11074C1.46805 5.94196 1.47756 5.68513 1.51561 4.8322C1.55049 4.03952 1.68366 3.61147 1.79464 3.3261C1.94049 2.94878 2.11805 2.6761 2.40025 2.3939C2.68561 2.10854 2.95512 1.93415 3.33244 1.78829C3.61781 1.67732 4.04903 1.54415 4.83854 1.50927C5.69147 1.47122 5.9483 1.46171 8.11708 1.46171ZM8.11708 0C5.91342 0 5.63757 0.0095122 4.77196 0.047561C3.90952 0.0856098 3.31659 0.225122 2.80293 0.424878C2.26708 0.634147 1.81366 0.910001 1.36342 1.36342C0.910001 1.81366 0.634147 2.26708 0.424878 2.79976C0.225122 3.31659 0.0856098 3.90634 0.047561 4.76878C0.0095122 5.63757 0 5.91342 0 8.11708C0 10.3207 0.0095122 10.5966 0.047561 11.4622C0.0856098 12.3246 0.225122 12.9176 0.424878 13.4312C0.634147 13.9671 0.910001 14.4205 1.36342 14.8707C1.81366 15.321 2.26708 15.6 2.79976 15.8061C3.31659 16.0059 3.90635 16.1454 4.76878 16.1834C5.6344 16.2215 5.91025 16.231 8.11391 16.231C10.3176 16.231 10.5934 16.2215 11.459 16.1834C12.3215 16.1454 12.9144 16.0059 13.4281 15.8061C13.9607 15.6 14.4142 15.321 14.8644 14.8707C15.3146 14.4205 15.5937 13.9671 15.7998 13.4344C15.9995 12.9176 16.139 12.3278 16.1771 11.4654C16.2151 10.5998 16.2246 10.3239 16.2246 8.12025C16.2246 5.91659 16.2151 5.64074 16.1771 4.77513C16.139 3.91269 15.9995 3.31976 15.7998 2.8061C15.6 2.26708 15.3242 1.81366 14.8707 1.36342C14.4205 0.913172 13.9671 0.634147 13.4344 0.428049C12.9176 0.228293 12.3278 0.0887806 11.4654 0.0507318C10.5966 0.00951221 10.3207 0 8.11708 0Z" fill="#384854"></path>
<path d="M8.11709 3.94775C5.81513 3.94775 3.94757 5.81532 3.94757 8.11727C3.94757 10.4192 5.81513 12.2868 8.11709 12.2868C10.419 12.2868 12.2866 10.4192 12.2866 8.11727C12.2866 5.81532 10.419 3.94775 8.11709 3.94775ZM8.11709 10.8219C6.62367 10.8219 5.41245 9.61069 5.41245 8.11727C5.41245 6.62385 6.62367 5.41263 8.11709 5.41263C9.6105 5.41263 10.8217 6.62385 10.8217 8.11727C10.8217 9.61069 9.6105 10.8219 8.11709 10.8219Z" fill="#384854"></path>
<path d="M13.4249 3.7825C13.4249 4.32152 12.9874 4.75592 12.4515 4.75592C11.9125 4.75592 11.4781 4.31835 11.4781 3.7825C11.4781 3.24347 11.9156 2.80908 12.4515 2.80908C12.9874 2.80908 13.4249 3.24664 13.4249 3.7825Z" fill="#384854"></path>
</g>
<defs>
<clipPath id="clip0_5_61189">
<rect width="16.2342" height="16.2342" fill="white"></rect>
</clipPath>
</defs>
</svg>