<?xml version="1.0" encoding="UTF-8"?> <svg xmlns="http://www.w3.org/2000/svg" width="162" height="51" viewBox="0 0 162 51" fill="none"><rect x="0.955017" y="1.1001" width="159.79" height="49" rx="13.5" fill="#0B0F17"></rect><path d="M33.1996 25.0233L22.5531 36.3233C22.5535 36.3257 22.5543 36.3276 22.5547 36.33C22.8812 37.5569 24.0019 38.4604 25.332 38.4604C25.8637 38.4604 26.3629 38.3167 26.791 38.0643L26.825 38.0444L38.809 31.1292L33.1996 25.0233Z" fill="#EA4335"></path><path d="M43.9707 23.099L43.9605 23.092L38.7867 20.0927L32.9578 25.2795L38.807 31.1279L43.9535 28.1584C44.8558 27.6713 45.4683 26.7201 45.4683 25.6232C45.4683 24.5342 44.864 23.5877 43.9707 23.099Z" fill="#FBBC04"></path><path d="M22.5527 14.8763C22.4887 15.1123 22.455 15.3595 22.455 15.6162V35.5838C22.455 35.84 22.4883 36.0881 22.5531 36.3232L33.566 25.3123L22.5527 14.8763Z" fill="#4285F4"></path><path d="M33.2781 25.6001L38.7887 20.0911L26.8183 13.1509C26.3832 12.8903 25.8754 12.7399 25.332 12.7399C24.0019 12.7399 22.8797 13.645 22.5531 14.8735C22.5527 14.8747 22.5527 14.8755 22.5527 14.8766L33.2781 25.6001Z" fill="#34A853"></path><path d="M57.3944 18.1691C56.9768 18.1691 56.5882 18.0916 56.2287 17.9366C55.8745 17.7815 55.5653 17.5677 55.3009 17.295C55.0419 17.017 54.8383 16.6909 54.6903 16.3167C54.5423 15.9425 54.4683 15.5308 54.4683 15.0818C54.4683 14.638 54.5396 14.2291 54.6824 13.8548C54.8304 13.4753 55.0366 13.1492 55.3009 12.8765C55.5653 12.5985 55.8745 12.3847 56.2287 12.235C56.5829 12.08 56.9715 12.0024 57.3944 12.0024C57.8121 12.0024 58.1848 12.0746 58.5126 12.219C58.8456 12.3633 59.1258 12.5531 59.3532 12.7883C59.5805 13.0182 59.7444 13.2695 59.8448 13.5421L59.0042 13.9431C58.8774 13.6223 58.6738 13.363 58.3936 13.1652C58.1187 12.9621 57.7857 12.8605 57.3944 12.8605C57.0032 12.8605 56.657 12.954 56.3556 13.1411C56.0543 13.3283 55.819 13.5875 55.6498 13.919C55.4859 14.2505 55.404 14.638 55.404 15.0818C55.404 15.5255 55.4859 15.9157 55.6498 16.2525C55.819 16.584 56.0543 16.8433 56.3556 17.0304C56.657 17.2122 57.0032 17.303 57.3944 17.303C57.7857 17.303 58.1187 17.2041 58.3936 17.0063C58.6738 16.8085 58.8774 16.5493 59.0042 16.2285L59.8448 16.6294C59.7444 16.8967 59.5805 17.148 59.3532 17.3832C59.1258 17.6185 58.8456 17.8082 58.5126 17.9526C58.1848 18.0969 57.8121 18.1691 57.3944 18.1691Z" fill="url(#paint0_linear_2288_27472)"></path><path d="M63.6778 18.1691C63.2495 18.1691 62.8504 18.0916 62.4803 17.9366C62.1155 17.7815 61.7931 17.565 61.5129 17.287C61.238 17.009 61.0212 16.6829 60.8626 16.3087C60.7093 15.9345 60.6326 15.5255 60.6326 15.0818C60.6326 14.638 60.7093 14.2291 60.8626 13.8548C61.0212 13.4753 61.238 13.1492 61.5129 12.8765C61.7878 12.5985 62.1103 12.3847 62.4803 12.235C62.8504 12.08 63.2495 12.0024 63.6778 12.0024C64.1113 12.0024 64.5104 12.08 64.8752 12.235C65.2453 12.3847 65.5678 12.5985 65.8427 12.8765C66.1229 13.1545 66.3396 13.4806 66.4929 13.8548C66.6462 14.2291 66.7229 14.638 66.7229 15.0818C66.7229 15.5255 66.6436 15.9345 66.485 16.3087C66.3317 16.6829 66.1176 17.009 65.8427 17.287C65.5678 17.565 65.2453 17.7815 64.8752 17.9366C64.5051 18.0916 64.106 18.1691 63.6778 18.1691ZM63.6778 17.303C63.9844 17.303 64.2646 17.2469 64.5183 17.1346C64.7774 17.0224 65.0021 16.8673 65.1924 16.6695C65.3827 16.4664 65.5307 16.2312 65.6365 15.9639C65.7422 15.6912 65.7951 15.3972 65.7951 15.0818C65.7951 14.7663 65.7422 14.475 65.6365 14.2077C65.5307 13.9404 65.3827 13.7052 65.1924 13.502C65.0021 13.2989 64.7774 13.1411 64.5183 13.0289C64.2646 12.9166 63.9844 12.8605 63.6778 12.8605C63.3711 12.8605 63.0883 12.9166 62.8292 13.0289C62.5755 13.1411 62.3534 13.2989 62.1631 13.502C61.9728 13.7052 61.8248 13.9404 61.719 14.2077C61.6186 14.475 61.5684 14.7663 61.5684 15.0818C61.5684 15.3972 61.6186 15.6912 61.719 15.9639C61.8248 16.2312 61.9728 16.4664 62.1631 16.6695C62.3534 16.8673 62.5781 17.0224 62.8372 17.1346C63.0962 17.2469 63.3764 17.303 63.6778 17.303Z" fill="url(#paint1_linear_2288_27472)"></path><path d="M67.7691 18.0729V12.0987H68.6414L70.8618 15.2101H70.4257L72.6064 12.0987H73.4787V18.0729H72.5509V13.2133L72.8998 13.3096L70.6715 16.3889H70.5763L68.3956 13.3096L68.7048 13.2133V18.0729H67.7691Z" fill="url(#paint2_linear_2288_27472)"></path><path d="M74.7001 18.0729V12.0987H75.6359V18.0729H74.7001Z" fill="url(#paint3_linear_2288_27472)"></path><path d="M76.8608 18.0729V12.0987H77.6141L80.9289 16.7257L80.572 16.7818V12.0987H81.4998V18.0729H80.7465L77.4555 13.4138L77.7965 13.3496V18.0729H76.8608Z" fill="url(#paint4_linear_2288_27472)"></path><path d="M85.4907 18.1691C85.073 18.1691 84.6845 18.0916 84.325 17.9366C83.9708 17.7815 83.6588 17.5677 83.3892 17.295C83.1249 17.017 82.9187 16.6909 82.7707 16.3167C82.6227 15.9425 82.5486 15.5308 82.5486 15.0818C82.5486 14.638 82.62 14.2291 82.7628 13.8548C82.9108 13.4753 83.117 13.1492 83.3813 12.8765C83.6456 12.5985 83.9549 12.3847 84.3091 12.235C84.6633 12.08 85.0519 12.0024 85.4748 12.0024C85.8925 12.0024 86.2652 12.0746 86.593 12.219C86.926 12.3633 87.2062 12.5531 87.4335 12.7883C87.6609 13.0182 87.8248 13.2695 87.9252 13.5421L87.0926 13.9511C86.971 13.625 86.7701 13.363 86.4899 13.1652C86.2097 12.9621 85.8713 12.8605 85.4748 12.8605C85.0836 12.8605 84.7373 12.954 84.436 13.1411C84.1347 13.3283 83.8994 13.5875 83.7302 13.919C83.5663 14.2505 83.4844 14.638 83.4844 15.0818C83.4844 15.5255 83.569 15.9157 83.7381 16.2525C83.9126 16.584 84.1505 16.8433 84.4519 17.0304C84.7532 17.2122 85.0995 17.303 85.4907 17.303C85.8185 17.303 86.1172 17.2362 86.3868 17.1026C86.6617 16.9636 86.8811 16.7711 87.045 16.5252C87.2089 16.2739 87.2908 15.9826 87.2908 15.6511V15.2421L87.7111 15.6271H85.4748V14.8252H88.2186V15.3865C88.2186 15.8249 88.1446 16.2178 87.9966 16.5653C87.8486 16.9074 87.6477 17.1988 87.3939 17.4394C87.1401 17.6799 86.8494 17.8617 86.5216 17.9847C86.1938 18.1076 85.8502 18.1691 85.4907 18.1691Z" fill="url(#paint5_linear_2288_27472)"></path><path d="M92.6299 18.1691C92.2599 18.1691 91.9162 18.0996 91.599 17.9606C91.2818 17.8163 91.0122 17.6211 90.7902 17.3752C90.5681 17.1293 90.4043 16.846 90.2985 16.5252L91.0915 16.1884C91.2343 16.5573 91.4431 16.8406 91.718 17.0384C91.9929 17.2362 92.3101 17.3351 92.6696 17.3351C92.8811 17.3351 93.0661 17.303 93.2247 17.2389C93.3833 17.1694 93.5049 17.0732 93.5895 16.9502C93.6794 16.8273 93.7243 16.6856 93.7243 16.5252C93.7243 16.306 93.6635 16.1323 93.5419 16.004C93.4203 15.8757 93.2406 15.7741 93.0027 15.6992L91.8925 15.3464C91.4484 15.2074 91.11 14.9962 90.8774 14.7129C90.6448 14.4242 90.5285 14.0874 90.5285 13.7025C90.5285 13.3657 90.6104 13.0717 90.7743 12.8204C90.9382 12.5638 91.1629 12.3633 91.4484 12.219C91.7391 12.0746 92.0696 12.0024 92.4396 12.0024C92.7938 12.0024 93.1163 12.0666 93.4071 12.1949C93.6979 12.3179 93.9463 12.4889 94.1525 12.7081C94.364 12.9273 94.5173 13.1812 94.6125 13.4699L93.8353 13.8148C93.719 13.4993 93.5366 13.2561 93.2881 13.085C93.045 12.9139 92.7621 12.8284 92.4396 12.8284C92.244 12.8284 92.0722 12.8632 91.9242 12.9327C91.7762 12.9968 91.6598 13.093 91.5753 13.2213C91.496 13.3443 91.4563 13.4886 91.4563 13.6544C91.4563 13.8468 91.5171 14.0179 91.6387 14.1676C91.7603 14.3173 91.9453 14.4295 92.1938 14.5044L93.2247 14.8332C93.6952 14.9775 94.0494 15.186 94.2873 15.4587C94.5252 15.726 94.6442 16.0601 94.6442 16.461C94.6442 16.7925 94.5569 17.0865 94.3825 17.3431C94.2133 17.5998 93.9781 17.8029 93.6767 17.9526C93.3754 18.0969 93.0265 18.1691 92.6299 18.1691Z" fill="url(#paint6_linear_2288_27472)"></path><path d="M98.5653 18.1691C98.1371 18.1691 97.7379 18.0916 97.3678 17.9366C97.0031 17.7815 96.6806 17.565 96.4004 17.287C96.1255 17.009 95.9087 16.6829 95.7501 16.3087C95.5968 15.9345 95.5201 15.5255 95.5201 15.0818C95.5201 14.638 95.5968 14.2291 95.7501 13.8548C95.9087 13.4753 96.1255 13.1492 96.4004 12.8765C96.6753 12.5985 96.9978 12.3847 97.3678 12.235C97.7379 12.08 98.1371 12.0024 98.5653 12.0024C98.9988 12.0024 99.3979 12.08 99.7627 12.235C100.133 12.3847 100.455 12.5985 100.73 12.8765C101.01 13.1545 101.227 13.4806 101.38 13.8548C101.534 14.2291 101.61 14.638 101.61 15.0818C101.61 15.5255 101.531 15.9345 101.373 16.3087C101.219 16.6829 101.005 17.009 100.73 17.287C100.455 17.565 100.133 17.7815 99.7627 17.9366C99.3926 18.0916 98.9935 18.1691 98.5653 18.1691ZM98.5653 17.303C98.8719 17.303 99.1521 17.2469 99.4059 17.1346C99.6649 17.0224 99.8896 16.8673 100.08 16.6695C100.27 16.4664 100.418 16.2312 100.524 15.9639C100.63 15.6912 100.683 15.3972 100.683 15.0818C100.683 14.7663 100.63 14.475 100.524 14.2077C100.418 13.9404 100.27 13.7052 100.08 13.502C99.8896 13.2989 99.6649 13.1411 99.4059 13.0289C99.1521 12.9166 98.8719 12.8605 98.5653 12.8605C98.2586 12.8605 97.9758 12.9166 97.7168 13.0289C97.463 13.1411 97.241 13.2989 97.0506 13.502C96.8603 13.7052 96.7123 13.9404 96.6066 14.2077C96.5061 14.475 96.4559 14.7663 96.4559 15.0818C96.4559 15.3972 96.5061 15.6912 96.6066 15.9639C96.7123 16.2312 96.8603 16.4664 97.0506 16.6695C97.241 16.8673 97.4656 17.0224 97.7247 17.1346C97.9837 17.2469 98.2639 17.303 98.5653 17.303Z" fill="url(#paint7_linear_2288_27472)"></path><path d="M105.527 18.1691C105.099 18.1691 104.7 18.0916 104.33 17.9366C103.965 17.7815 103.643 17.565 103.362 17.287C103.087 17.009 102.871 16.6829 102.712 16.3087C102.559 15.9345 102.482 15.5255 102.482 15.0818C102.482 14.638 102.559 14.2291 102.712 13.8548C102.871 13.4753 103.087 13.1492 103.362 12.8765C103.637 12.5985 103.96 12.3847 104.33 12.235C104.7 12.08 105.099 12.0024 105.527 12.0024C105.961 12.0024 106.36 12.08 106.725 12.235C107.095 12.3847 107.417 12.5985 107.692 12.8765C107.972 13.1545 108.189 13.4806 108.342 13.8548C108.496 14.2291 108.572 14.638 108.572 15.0818C108.572 15.5255 108.493 15.9345 108.335 16.3087C108.181 16.6829 107.967 17.009 107.692 17.287C107.417 17.565 107.095 17.7815 106.725 17.9366C106.355 18.0916 105.956 18.1691 105.527 18.1691ZM105.527 17.303C105.834 17.303 106.114 17.2469 106.368 17.1346C106.627 17.0224 106.852 16.8673 107.042 16.6695C107.232 16.4664 107.38 16.2312 107.486 15.9639C107.592 15.6912 107.645 15.3972 107.645 15.0818C107.645 14.7663 107.592 14.475 107.486 14.2077C107.38 13.9404 107.232 13.7052 107.042 13.502C106.852 13.2989 106.627 13.1411 106.368 13.0289C106.114 12.9166 105.834 12.8605 105.527 12.8605C105.221 12.8605 104.938 12.9166 104.679 13.0289C104.425 13.1411 104.203 13.2989 104.013 13.502C103.822 13.7052 103.674 13.9404 103.569 14.2077C103.468 14.475 103.418 14.7663 103.418 15.0818C103.418 15.3972 103.468 15.6912 103.569 15.9639C103.674 16.2312 103.822 16.4664 104.013 16.6695C104.203 16.8673 104.428 17.0224 104.687 17.1346C104.946 17.2469 105.226 17.303 105.527 17.303Z" fill="url(#paint8_linear_2288_27472)"></path><path d="M109.619 18.0729V12.0987H110.372L113.687 16.7257L113.33 16.7818V12.0987H114.258V18.0729H113.504L110.213 13.4138L110.554 13.3496V18.0729H109.619Z" fill="url(#paint9_linear_2288_27472)"></path><path d="M119.738 18.1691C119.31 18.1691 118.91 18.0916 118.54 17.9366C118.176 17.7815 117.853 17.565 117.573 17.287C117.298 17.009 117.081 16.6829 116.923 16.3087C116.769 15.9345 116.693 15.5255 116.693 15.0818C116.693 14.638 116.769 14.2291 116.923 13.8548C117.081 13.4753 117.298 13.1492 117.573 12.8765C117.848 12.5985 118.17 12.3847 118.54 12.235C118.91 12.08 119.31 12.0024 119.738 12.0024C120.171 12.0024 120.571 12.08 120.935 12.235C121.305 12.3847 121.628 12.5985 121.903 12.8765C122.183 13.1545 122.4 13.4806 122.553 13.8548C122.706 14.2291 122.783 14.638 122.783 15.0818C122.783 15.5255 122.704 15.9345 122.545 16.3087C122.392 16.6829 122.178 17.009 121.903 17.287C121.628 17.565 121.305 17.7815 120.935 17.9366C120.565 18.0916 120.166 18.1691 119.738 18.1691ZM119.738 17.303C120.044 17.303 120.325 17.2469 120.578 17.1346C120.837 17.0224 121.062 16.8673 121.252 16.6695C121.443 16.4664 121.591 16.2312 121.697 15.9639C121.802 15.6912 121.855 15.3972 121.855 15.0818C121.855 14.7663 121.802 14.475 121.697 14.2077C121.591 13.9404 121.443 13.7052 121.252 13.502C121.062 13.2989 120.837 13.1411 120.578 13.0289C120.325 12.9166 120.044 12.8605 119.738 12.8605C119.431 12.8605 119.148 12.9166 118.889 13.0289C118.636 13.1411 118.414 13.2989 118.223 13.502C118.033 13.7052 117.885 13.9404 117.779 14.2077C117.679 14.475 117.628 14.7663 117.628 15.0818C117.628 15.3972 117.679 15.6912 117.779 15.9639C117.885 16.2312 118.033 16.4664 118.223 16.6695C118.414 16.8673 118.638 17.0224 118.897 17.1346C119.156 17.2469 119.437 17.303 119.738 17.303Z" fill="url(#paint10_linear_2288_27472)"></path><path d="M123.829 18.0729V12.0987H124.583L127.897 16.7257L127.54 16.7818V12.0987H128.468V18.0729H127.715L124.424 13.4138L124.765 13.3496V18.0729H123.829Z" fill="url(#paint11_linear_2288_27472)"></path><path d="M120.363 35.1218H122.229V22.6202H120.363V35.1218ZM137.17 27.1238L135.031 32.5437H134.967L132.747 27.1238H130.737L134.067 34.6988L132.168 38.9128H134.114L139.245 27.1238H137.17ZM126.587 33.7019C125.977 33.7019 125.124 33.396 125.124 32.6402C125.124 31.6753 126.186 31.3054 127.102 31.3054C127.922 31.3054 128.309 31.482 128.807 31.7234C128.662 32.8816 127.665 33.7019 126.587 33.7019ZM126.813 26.8503C125.462 26.8503 124.063 27.4456 123.484 28.7644L125.14 29.4558C125.494 28.7644 126.153 28.5394 126.845 28.5394C127.81 28.5394 128.791 29.1179 128.807 30.1476V30.2761C128.469 30.0831 127.745 29.7937 126.861 29.7937C125.075 29.7937 123.258 30.7745 123.258 32.6081C123.258 34.2808 124.722 35.3585 126.362 35.3585C127.616 35.3585 128.309 34.7956 128.742 34.1359H128.807V35.1015H130.609V30.3081C130.609 28.0886 128.951 26.8503 126.813 26.8503ZM115.281 28.6456H112.627V24.3605H115.281C116.676 24.3605 117.468 25.5152 117.468 26.503C117.468 27.4718 116.676 28.6456 115.281 28.6456ZM115.233 22.6202H110.762V35.1218H112.627V30.3855H115.233C117.301 30.3855 119.334 28.8886 119.334 26.503C119.334 24.1179 117.301 22.6202 115.233 22.6202ZM90.8515 33.7042C89.5624 33.7042 88.4835 32.6245 88.4835 31.1429C88.4835 29.6441 89.5624 28.5491 90.8515 28.5491C92.1242 28.5491 93.123 29.6441 93.123 31.1429C93.123 32.6245 92.1242 33.7042 90.8515 33.7042ZM92.9941 27.8238H92.9296C92.5109 27.3245 91.705 26.8734 90.6906 26.8734C88.5636 26.8734 86.6144 28.7425 86.6144 31.1429C86.6144 33.5269 88.5636 35.3796 90.6906 35.3796C91.705 35.3796 92.5109 34.9284 92.9296 34.4132H92.9941V35.0249C92.9941 36.6527 92.1242 37.5222 90.7226 37.5222C89.5792 37.5222 88.8703 36.7007 88.58 36.0082L86.9531 36.6847C87.4199 37.8121 88.6601 39.198 90.7226 39.198C92.914 39.198 94.7667 37.9089 94.7667 34.7671V27.1312H92.9941V27.8238ZM96.0558 35.1218H97.9238V22.6202H96.0558V35.1218ZM100.679 30.9976C100.631 29.3542 101.952 28.5167 102.902 28.5167C103.644 28.5167 104.271 28.8874 104.482 29.4187L100.679 30.9976ZM106.478 29.5796C106.124 28.6296 105.045 26.8734 102.838 26.8734C100.646 26.8734 98.8261 28.5972 98.8261 31.1265C98.8261 33.5109 100.631 35.3796 103.047 35.3796C104.996 35.3796 106.124 34.1878 106.592 33.4948L105.142 32.528C104.658 33.237 103.998 33.7042 103.047 33.7042C102.097 33.7042 101.42 33.2691 100.985 32.4152L106.672 30.0632L106.478 29.5796ZM61.1707 28.1784V29.9827H65.4882C65.3593 30.9976 65.021 31.7386 64.5054 32.2542C63.8769 32.8823 62.8941 33.5753 61.1707 33.5753C58.5124 33.5753 56.4343 31.4327 56.4343 28.7745C56.4343 26.1163 58.5124 23.9734 61.1707 23.9734C62.6046 23.9734 63.6515 24.5374 64.4249 25.2624L65.698 23.9894C64.6183 22.9585 63.1847 22.1691 61.1707 22.1691C57.5292 22.1691 54.4683 25.1335 54.4683 28.7745C54.4683 32.4152 57.5292 35.3796 61.1707 35.3796C63.1359 35.3796 64.6183 34.7351 65.7781 33.5269C66.9703 32.3347 67.341 30.6593 67.341 29.3058C67.341 28.8874 67.3085 28.5007 67.2441 28.1784H61.1707ZM72.2496 33.7042C70.9605 33.7042 69.8488 32.6409 69.8488 31.1265C69.8488 29.596 70.9605 28.5491 72.2496 28.5491C73.5382 28.5491 74.6499 29.596 74.6499 31.1265C74.6499 32.6409 73.5382 33.7042 72.2496 33.7042ZM72.2496 26.8734C69.8968 26.8734 67.98 28.6616 67.98 31.1265C67.98 33.5753 69.8968 35.3796 72.2496 35.3796C74.6015 35.3796 76.5187 33.5753 76.5187 31.1265C76.5187 28.6616 74.6015 26.8734 72.2496 26.8734ZM81.5624 33.7042C80.2742 33.7042 79.1621 32.6409 79.1621 31.1265C79.1621 29.596 80.2742 28.5491 81.5624 28.5491C82.8515 28.5491 83.9628 29.596 83.9628 31.1265C83.9628 32.6409 82.8515 33.7042 81.5624 33.7042ZM81.5624 26.8734C79.2105 26.8734 77.2937 28.6616 77.2937 31.1265C77.2937 33.5753 79.2105 35.3796 81.5624 35.3796C83.9152 35.3796 85.832 33.5753 85.832 31.1265C85.832 28.6616 83.9152 26.8734 81.5624 26.8734Z" fill="white"></path><rect x="0.955017" y="1.1001" width="159.79" height="49" rx="13.5" stroke="url(#paint12_linear_2288_27472)"></rect><defs><linearGradient id="paint0_linear_2288_27472" x1="22.6483" y1="12.0024" x2="48.4349" y2="-36.8948" gradientUnits="userSpaceOnUse"><stop offset="0.0001" stop-color="#FA5560"></stop><stop offset="0.499028" stop-color="#B14BF4"></stop><stop offset="1" stop-color="#4D91FF"></stop></linearGradient><linearGradient id="paint1_linear_2288_27472" x1="22.6483" y1="12.0024" x2="48.4349" y2="-36.8948" gradientUnits="userSpaceOnUse"><stop offset="0.0001" stop-color="#FA5560"></stop><stop offset="0.499028" stop-color="#B14BF4"></stop><stop offset="1" stop-color="#4D91FF"></stop></linearGradient><linearGradient id="paint2_linear_2288_27472" x1="22.6483" y1="12.0024" x2="48.4349" y2="-36.8948" gradientUnits="userSpaceOnUse"><stop offset="0.0001" stop-color="#FA5560"></stop><stop offset="0.499028" stop-color="#B14BF4"></stop><stop offset="1" stop-color="#4D91FF"></stop></linearGradient><linearGradient id="paint3_linear_2288_27472" x1="22.6483" y1="12.0024" x2="48.4349" y2="-36.8948" gradientUnits="userSpaceOnUse"><stop offset="0.0001" stop-color="#FA5560"></stop><stop offset="0.499028" stop-color="#B14BF4"></stop><stop offset="1" stop-color="#4D91FF"></stop></linearGradient><linearGradient id="paint4_linear_2288_27472" x1="22.6483" y1="12.0024" x2="48.4349" y2="-36.8948" gradientUnits="userSpaceOnUse"><stop offset="0.0001" stop-color="#FA5560"></stop><stop offset="0.499028" stop-color="#B14BF4"></stop><stop offset="1" stop-color="#4D91FF"></stop></linearGradient><linearGradient id="paint5_linear_2288_27472" x1="22.6483" y1="12.0024" x2="48.4349" y2="-36.8948" gradientUnits="userSpaceOnUse"><stop offset="0.0001" stop-color="#FA5560"></stop><stop offset="0.499028" stop-color="#B14BF4"></stop><stop offset="1" stop-color="#4D91FF"></stop></linearGradient><linearGradient id="paint6_linear_2288_27472" x1="22.6483" y1="12.0024" x2="48.4349" y2="-36.8948" gradientUnits="userSpaceOnUse"><stop offset="0.0001" stop-color="#FA5560"></stop><stop offset="0.499028" stop-color="#B14BF4"></stop><stop offset="1" stop-color="#4D91FF"></stop></linearGradient><linearGradient id="paint7_linear_2288_27472" x1="22.6483" y1="12.0024" x2="48.4349" y2="-36.8948" gradientUnits="userSpaceOnUse"><stop offset="0.0001" stop-color="#FA5560"></stop><stop offset="0.499028" stop-color="#B14BF4"></stop><stop offset="1" stop-color="#4D91FF"></stop></linearGradient><linearGradient id="paint8_linear_2288_27472" x1="22.6483" y1="12.0024" x2="48.4349" y2="-36.8948" gradientUnits="userSpaceOnUse"><stop offset="0.0001" stop-color="#FA5560"></stop><stop offset="0.499028" stop-color="#B14BF4"></stop><stop offset="1" stop-color="#4D91FF"></stop></linearGradient><linearGradient id="paint9_linear_2288_27472" x1="22.6483" y1="12.0024" x2="48.4349" y2="-36.8948" gradientUnits="userSpaceOnUse"><stop offset="0.0001" stop-color="#FA5560"></stop><stop offset="0.499028" stop-color="#B14BF4"></stop><stop offset="1" stop-color="#4D91FF"></stop></linearGradient><linearGradient id="paint10_linear_2288_27472" x1="22.6483" y1="12.0024" x2="48.4349" y2="-36.8948" gradientUnits="userSpaceOnUse"><stop offset="0.0001" stop-color="#FA5560"></stop><stop offset="0.499028" stop-color="#B14BF4"></stop><stop offset="1" stop-color="#4D91FF"></stop></linearGradient><linearGradient id="paint11_linear_2288_27472" x1="22.6483" y1="12.0024" x2="48.4349" y2="-36.8948" gradientUnits="userSpaceOnUse"><stop offset="0.0001" stop-color="#FA5560"></stop><stop offset="0.499028" stop-color="#B14BF4"></stop><stop offset="1" stop-color="#4D91FF"></stop></linearGradient><linearGradient id="paint12_linear_2288_27472" x1="-68.6846" y1="0.600088" x2="135.966" y2="-103.394" gradientUnits="userSpaceOnUse"><stop offset="0.0001" stop-color="#FA5560"></stop><stop offset="0.499028" stop-color="#B14BF4"></stop><stop offset="1" stop-color="#4D91FF"></stop></linearGradient></defs></svg> 