<?xml version="1.0" encoding="UTF-8"?>
<!DOCTYPE svg PUBLIC "-//W3C//DTD SVG 1.1//EN" "http://www.w3.org/Graphics/SVG/1.1/DTD/svg11.dtd">
<svg xmlns="http://www.w3.org/2000/svg" version="1.1" width="2767px" height="728px" style="shape-rendering:geometricPrecision; text-rendering:geometricPrecision; image-rendering:optimizeQuality; fill-rule:evenodd; clip-rule:evenodd" xmlns:xlink="http://www.w3.org/1999/xlink">
<g><path style="opacity:0.99" fill="#fefffe" d="M 1474.5,-0.5 C 1513.83,-0.5 1553.17,-0.5 1592.5,-0.5C 1592.33,149.5 1592.5,299.5 1593,449.5C 1634.53,399.609 1675.69,349.443 1716.5,299C 1767.83,298.333 1819.17,298.333 1870.5,299C 1812.65,359.349 1754.98,419.849 1697.5,480.5C 1759.5,557.167 1821.5,633.833 1883.5,710.5C 1831.84,711.667 1780.17,711.833 1728.5,711C 1683.33,652.5 1638.17,594 1593,535.5C 1592.5,594.166 1592.33,652.832 1592.5,711.5C 1553.17,711.5 1513.83,711.5 1474.5,711.5C 1474.5,474.167 1474.5,236.833 1474.5,-0.5 Z"/></g>
<g><path style="opacity:0.984" fill="#e0309c" d="M 2766.5,118.5 C 2766.5,123.5 2766.5,128.5 2766.5,133.5C 2759.69,172.635 2736.36,193.635 2696.5,196.5C 2658.45,194.28 2635.28,174.613 2627,137.5C 2623.88,105.25 2636.04,80.7502 2663.5,64C 2703.97,47.7126 2735.8,57.8792 2759,94.5C 2762.45,102.328 2764.95,110.328 2766.5,118.5 Z"/></g>
<g><path style="opacity:0.989" fill="#fefffe" d="M 217.5,727.5 C 203.167,727.5 188.833,727.5 174.5,727.5C 129.801,723.214 90.801,706.047 57.5,676C 34.5133,654.875 15.18,631.042 -0.5,604.5C -0.5,604.167 -0.5,603.833 -0.5,603.5C 26.4114,577.758 53.2448,551.758 80,525.5C 95.5128,568.679 124.679,598.179 167.5,614C 206.719,624.616 237.886,613.449 261,580.5C 274.833,555.172 278.166,528.506 271,500.5C 266.643,487.809 259.476,476.976 249.5,468C 234.829,456.323 218.829,446.656 201.5,439C 165.995,426.061 131.995,410.061 99.5,391C 54.2143,363.668 29.3809,323.501 25,270.5C 19.8514,206.677 40.018,152.51 85.5,108C 136.403,65.4443 194.403,51.7776 259.5,67C 297.728,76.2864 332.728,92.2864 364.5,115C 370.983,120.316 376.983,126.149 382.5,132.5C 362.804,161.03 343.304,189.696 324,218.5C 311.282,201.443 295.782,187.609 277.5,177C 255.1,166.268 231.767,163.602 207.5,169C 174.199,179.454 155.866,201.954 152.5,236.5C 153.432,255.863 161.432,271.696 176.5,284C 185.296,290.789 194.63,296.789 204.5,302C 228.05,312.608 251.716,322.942 275.5,333C 307.197,346.75 335.364,365.584 360,389.5C 381.597,413.031 394.93,440.698 400,472.5C 407.512,521.9 401.512,569.567 382,615.5C 347.8,683.025 292.967,720.358 217.5,727.5 Z"/></g>
<g><path style="opacity:0.986" fill="#fefffe" d="M 477.5,159.5 C 517.073,159.17 556.573,159.503 596,160.5C 596.5,206.499 596.667,252.499 596.5,298.5C 620.5,298.5 644.5,298.5 668.5,298.5C 668.5,331.833 668.5,365.167 668.5,398.5C 644.5,398.5 620.5,398.5 596.5,398.5C 596.667,502.501 596.5,606.501 596,710.5C 556.573,711.497 517.073,711.83 477.5,711.5C 477.5,607.167 477.5,502.833 477.5,398.5C 464.167,398.5 450.833,398.5 437.5,398.5C 437.5,365.167 437.5,331.833 437.5,298.5C 450.833,298.5 464.167,298.5 477.5,298.5C 477.5,252.167 477.5,205.833 477.5,159.5 Z"/></g>
<g><path style="opacity:0.988" fill="#fefffe" d="M 834.5,285.5 C 886.441,281.417 930.274,298.083 966,335.5C 966.5,323.171 966.667,310.838 966.5,298.5C 1005.17,298.333 1043.83,298.5 1082.5,299C 1083.14,301.746 1083.48,304.579 1083.5,307.5C 1083.07,441.76 1082.91,576.093 1083,710.5C 1044.24,711.496 1005.41,711.83 966.5,711.5C 966.667,698.829 966.5,686.162 966,673.5C 940.468,703.352 907.968,720.186 868.5,724C 805.837,727.909 754.67,705.742 715,657.5C 679.911,612.234 662.745,560.734 663.5,503C 663.383,440.989 683.55,386.822 724,340.5C 754.26,308.953 791.093,290.62 834.5,285.5 Z M 879.5,389.5 C 909.332,390.832 933.499,403.166 952,426.5C 978.536,463.909 984.869,504.576 971,548.5C 961.586,575.2 944.753,595.7 920.5,610C 878.401,628.012 842.235,619.846 812,585.5C 783.734,547.573 776.734,505.907 791,460.5C 801.272,432.11 819.772,410.944 846.5,397C 857.197,392.558 868.197,390.058 879.5,389.5 Z"/></g>
<g><path style="opacity:0.985" fill="#fefffe" d="M 1372.5,285.5 C 1394.8,284.115 1416.47,287.115 1437.5,294.5C 1433.08,331.547 1428.24,368.547 1423,405.5C 1400.05,390.294 1375.22,386.127 1348.5,393C 1323.42,399.745 1306.25,415.245 1297,439.5C 1290.64,457.631 1286.97,476.297 1286,495.5C 1285.67,567.167 1285.33,638.833 1285,710.5C 1245.57,711.497 1206.07,711.83 1166.5,711.5C 1166.5,573.833 1166.5,436.167 1166.5,298.5C 1206.17,298.5 1245.83,298.5 1285.5,298.5C 1285.33,312.504 1285.5,326.504 1286,340.5C 1306.88,309.645 1335.71,291.311 1372.5,285.5 Z"/></g>
<g><path style="opacity:0.99" fill="#e0309c" d="M 2299.5,285.5 C 2350.7,281.838 2394.2,298.171 2430,334.5C 2430.5,322.505 2430.67,310.505 2430.5,298.5C 2469.5,298.5 2508.5,298.5 2547.5,298.5C 2547.5,436.167 2547.5,573.833 2547.5,711.5C 2508.83,711.667 2470.17,711.5 2431.5,711C 2430.68,698.575 2430.18,686.075 2430,673.5C 2413.31,694.282 2392.14,708.782 2366.5,717C 2283.88,736.912 2218.05,712.412 2169,643.5C 2137.35,594.572 2124.02,540.905 2129,482.5C 2132.81,430.244 2151.48,384.244 2185,344.5C 2215.92,310.623 2254.09,290.957 2299.5,285.5 Z M 2343.5,389.5 C 2371.86,390.761 2395.36,402.094 2414,423.5C 2439.17,455.33 2447.84,491.33 2440,531.5C 2432.81,566.43 2413.97,592.93 2383.5,611C 2340.61,628.069 2304.44,618.903 2275,583.5C 2247.75,545.496 2241.41,504.163 2256,459.5C 2267.15,430.019 2286.98,408.519 2315.5,395C 2324.74,391.964 2334.07,390.131 2343.5,389.5 Z"/></g>
<g><path style="opacity:0.993" fill="#e0309c" d="M 2637.5,298.5 C 2676.83,298.5 2716.17,298.5 2755.5,298.5C 2755.5,436.167 2755.5,573.833 2755.5,711.5C 2716.17,711.5 2676.83,711.5 2637.5,711.5C 2637.5,573.833 2637.5,436.167 2637.5,298.5 Z"/></g>
<g><path style="opacity:0.984" fill="#e0309c" d="M 2006.5,727.5 C 1999.17,727.5 1991.83,727.5 1984.5,727.5C 1951.6,720.775 1930.77,701.109 1922,668.5C 1915.87,628.932 1930.7,600.432 1966.5,583C 2006.97,570.154 2038.8,581.321 2062,616.5C 2078.92,656.338 2070.42,689.505 2036.5,716C 2027.12,721.733 2017.12,725.566 2006.5,727.5 Z"/></g>
</svg>
