<svg width="19" height="18" viewBox="0 0 19 18" fill="none" xmlns="http://www.w3.org/2000/svg">
        <g clip-path="url(#clip0_5_61185)">
        <path fill-rule="evenodd" clip-rule="evenodd" d="M18.0456 8.89195C18.0456 13.6108 14.2202 17.4362 9.50133 17.4362C4.78244 17.4362 0.957031 13.6108 0.957031 8.89195C0.957031 4.17307 4.78244 0.347656 9.50133 0.347656C14.2202 0.347656 18.0456 4.17307 18.0456 8.89195ZM9.80752 6.65543C8.97646 7.0011 7.31551 7.71654 4.82467 8.80175C4.4202 8.9626 4.20832 9.11995 4.18903 9.27381C4.15643 9.53384 4.48206 9.63623 4.92548 9.77566C4.9858 9.79463 5.04829 9.81428 5.11236 9.83511C5.54862 9.97692 6.13546 10.1428 6.44054 10.1494C6.71727 10.1554 7.02614 10.0413 7.36713 9.80715C9.6944 8.23618 10.8957 7.44213 10.9712 7.42502C11.0244 7.41294 11.0981 7.39775 11.1481 7.44216C11.198 7.48657 11.1931 7.57066 11.1878 7.59322C11.1556 7.73074 9.87735 8.91909 9.21588 9.53405C9.00968 9.72576 8.8634 9.86174 8.8335 9.8928C8.76652 9.96237 8.69825 10.0282 8.63264 10.0914C8.22735 10.4821 7.92342 10.7751 8.64947 11.2536C8.99838 11.4835 9.27758 11.6736 9.55612 11.8633C9.86031 12.0705 10.1637 12.2771 10.5563 12.5344C10.6563 12.6 10.7518 12.6681 10.8448 12.7344C11.1988 12.9868 11.5169 13.2135 11.9098 13.1774C12.1381 13.1564 12.374 12.9417 12.4937 12.3014C12.7768 10.7882 13.3332 7.50952 13.4618 6.15847C13.473 6.0401 13.4589 5.88861 13.4475 5.82211C13.4361 5.75561 13.4123 5.66086 13.3259 5.59072C13.2235 5.50765 13.0655 5.49014 12.9948 5.49138C12.6734 5.49704 12.1804 5.66849 9.80752 6.65543Z" fill="#384854"></path>
        </g>
        <defs>
        <clipPath id="clip0_5_61185">
        <rect width="17.0886" height="17.0886" fill="white" transform="translate(0.957031 0.347656)"></rect>
        </clipPath>
        </defs>
        </svg>