<svg width="18" height="18" viewBox="0 0 18 18" fill="none" xmlns="http://www.w3.org/2000/svg">
    <g clip-path="url(#clip0_5_61177)">
    <path d="M5.3759 15.4866C11.8228 15.4866 15.35 10.144 15.35 5.51242C15.35 5.36223 15.3467 5.2087 15.34 5.05851C16.0262 4.5623 16.6183 3.94767 17.0886 3.24351C16.4496 3.52783 15.7711 3.71351 15.0763 3.79422C15.8079 3.35574 16.3556 2.6669 16.618 1.8554C15.9298 2.26324 15.1772 2.55094 14.3925 2.70616C13.8637 2.14433 13.1646 1.77234 12.4032 1.64769C11.6419 1.52304 10.8606 1.65267 10.1803 2.01655C9.50004 2.38043 8.95855 2.95828 8.6396 3.66077C8.32064 4.36326 8.24199 5.15125 8.4158 5.90293C7.02234 5.833 5.65913 5.47101 4.41454 4.84044C3.16995 4.20987 2.07177 3.32478 1.19119 2.24256C0.743638 3.0142 0.606685 3.9273 0.80817 4.79629C1.00965 5.66528 1.53446 6.42494 2.27592 6.9209C1.71927 6.90322 1.17482 6.75335 0.687549 6.48367V6.52706C0.68705 7.33684 0.966999 8.1218 1.47981 8.74851C1.99262 9.37522 2.70664 9.80501 3.50049 9.9648C2.98485 10.1059 2.44366 10.1264 1.9188 10.0249C2.14281 10.7213 2.57865 11.3304 3.1655 11.7672C3.75235 12.204 4.46092 12.4466 5.19233 12.4613C3.95061 13.4367 2.41674 13.9658 0.837741 13.9633C0.55772 13.9628 0.277974 13.9457 0 13.9119C1.60409 14.941 3.47007 15.4875 5.3759 15.4866Z" fill="#384854"></path>
    </g>
    <defs>
    <clipPath id="clip0_5_61177">
    <rect width="17.0886" height="17.0886" fill="white"></rect>
    </clipPath>
    </defs>
    </svg>