<svg width="20" height="20" viewBox="0 0 20 20" fill="none" xmlns="http://www.w3.org/2000/svg">
<path d="M9.65572 19.3114C14.9884 19.3114 19.3114 14.9884 19.3114 9.65572C19.3114 4.32301 14.9884 0 9.65572 0C4.32301 0 0 4.32301 0 9.65572C0 14.9884 4.32301 19.3114 9.65572 19.3114Z" fill="#FFA59F"/>
<path d="M13.5439 12.0562L6.78887 5.3008C6.49426 5.00618 6.01663 5.00618 5.72248 5.3008L5.36646 5.65628C5.07186 5.951 5.07186 6.42866 5.36646 6.72282L12.1215 13.4782C12.4162 13.7729 12.8939 13.7729 13.188 13.4782L13.5435 13.1228C13.8386 12.8286 13.8386 12.3509 13.5439 12.0562Z" fill="#F44336"/>
<path d="M12.1215 5.30098L5.36646 12.0564C5.07186 12.351 5.07186 12.8288 5.36646 13.1229L5.72193 13.4784C6.01663 13.773 6.49426 13.773 6.78841 13.4784L13.5439 6.72345C13.8386 6.42883 13.8386 5.95117 13.5439 5.65701L13.1885 5.30153C12.8939 5.00635 12.4162 5.00635 12.1215 5.30098Z" fill="#F44336"/>
</svg>
