<svg width="18" height="18" viewBox="0 0 18 18" fill="none" xmlns="http://www.w3.org/2000/svg">
        <g clip-path="url(#clip0_5_61181)">
        <path d="M16.9184 5.12653C16.9184 5.12653 16.7515 3.94835 16.2375 3.43102C15.5867 2.75015 14.8591 2.74681 14.5253 2.70676C12.1356 2.5332 8.54763 2.5332 8.54763 2.5332H8.54096C8.54096 2.5332 4.95302 2.5332 2.56329 2.70676C2.22953 2.74681 1.50193 2.75015 0.851092 3.43102C0.337099 3.94835 0.173556 5.12653 0.173556 5.12653C0.173556 5.12653 0 6.51164 0 7.89341V9.18841C0 10.5702 0.170218 11.9553 0.170218 11.9553C0.170218 11.9553 0.337099 13.1335 0.847754 13.6508C1.49859 14.3317 2.35302 14.3083 2.73351 14.3817C4.10193 14.5119 8.5443 14.552 8.5443 14.552C8.5443 14.552 12.1356 14.5453 14.5253 14.3751C14.8591 14.335 15.5867 14.3317 16.2375 13.6508C16.7515 13.1335 16.9184 11.9553 16.9184 11.9553C16.9184 11.9553 17.0886 10.5735 17.0886 9.18841V7.89341C17.0886 6.51164 16.9184 5.12653 16.9184 5.12653ZM6.7787 10.7604V5.9576L11.3946 8.36735L6.7787 10.7604Z" fill="#384854"></path>
        </g>
        <defs>
        <clipPath id="clip0_5_61181">
        <rect width="17.0886" height="17.0886" fill="white"></rect>
        </clipPath>
        </defs>
        </svg>