<?xml version="1.0" encoding="UTF-8"?>
<!DOCTYPE svg PUBLIC "-//W3C//DTD SVG 1.1//EN" "http://www.w3.org/Graphics/SVG/1.1/DTD/svg11.dtd">
<svg xmlns="http://www.w3.org/2000/svg" version="1.1" width="154px" height="39px" style="shape-rendering:geometricPrecision; text-rendering:geometricPrecision; image-rendering:optimizeQuality; fill-rule:evenodd; clip-rule:evenodd" xmlns:xlink="http://www.w3.org/1999/xlink">
<g><path style="opacity:0.82" fill="#fefffe" d="M 82.5,-0.5 C 84.5,-0.5 86.5,-0.5 88.5,-0.5C 88.5,9.5 88.5,19.5 88.5,29.5C 83.4884,29.9199 78.4884,30.0866 73.5,30C 71,28.8333 69.1667,27 68,24.5C 65.9701,13.3645 70.4701,8.69785 81.5,10.5C 82.4892,6.89272 82.8226,3.22605 82.5,-0.5 Z M 75.5,15.5 C 81.7502,15.8821 83.4168,18.7154 80.5,24C 73.413,24.5578 71.7463,21.7245 75.5,15.5 Z"/></g>
<g><path style="opacity:0.892" fill="#f87186" d="M 153.5,1.5 C 153.5,3.5 153.5,5.5 153.5,7.5C 151.5,7.5 149.5,7.5 147.5,7.5C 147.5,5.5 147.5,3.5 147.5,1.5C 149.5,1.5 151.5,1.5 153.5,1.5 Z"/></g>
<g><path style="opacity:0.773" fill="#fefffe" d="M -0.5,22.5 C -0.5,20.8333 -0.5,19.1667 -0.5,17.5C 1.97648,11.1588 6.64315,8.65876 13.5,10C 19.3795,11.5665 19.8795,14.0665 15,17.5C 10.7908,14.344 7.62418,15.1773 5.5,20C 7.16717,24.5573 10.3338,25.724 15,23.5C 19.6339,25.7939 19.4673,27.9605 14.5,30C 7.0152,31.9211 2.0152,29.4211 -0.5,22.5 Z"/></g>
<g><path style="opacity:0.83" fill="#fefffe" d="M 28.5,9.5 C 32.81,10.0802 37.1434,10.4135 41.5,10.5C 41.5,16.8333 41.5,23.1667 41.5,29.5C 37.9726,29.5037 34.4726,29.8371 31,30.5C 22.7886,29.4317 19.4553,24.7651 21,16.5C 22.211,12.6664 24.711,10.333 28.5,9.5 Z M 29.5,15.5 C 34.1725,15.4882 36.0058,17.8215 35,22.5C 31.2494,25.5839 28.4161,24.9172 26.5,20.5C 27.2599,18.6396 28.2599,16.973 29.5,15.5 Z"/></g>
<g><path style="opacity:0.796" fill="#fefffe" d="M 49.5,9.5 C 63.4008,9.09849 68.4008,15.7652 64.5,29.5C 62.5,29.5 60.5,29.5 58.5,29.5C 58.6655,25.4862 58.4988,21.4862 58,17.5C 56.2111,15.771 54.0444,15.1043 51.5,15.5C 51.5,20.1667 51.5,24.8333 51.5,29.5C 49.1667,29.5 46.8333,29.5 44.5,29.5C 44.3338,23.4908 44.5005,17.4908 45,11.5C 46.6225,10.9011 48.1225,10.2344 49.5,9.5 Z"/></g>
<g><path style="opacity:0.804" fill="#fefffe" d="M 101.5,38.5 C 99.1667,38.5 96.8333,38.5 94.5,38.5C 95.4178,35.4965 96.7511,32.6632 98.5,30C 95.9796,23.7903 93.3129,17.6236 90.5,11.5C 92.8333,10.1667 95.1667,10.1667 97.5,11.5C 98.7426,14.9824 100.243,18.3157 102,21.5C 103.309,17.9009 104.809,14.4009 106.5,11C 108.833,10.3333 111.167,10.3333 113.5,11C 109.356,20.1189 105.356,29.2856 101.5,38.5 Z"/></g>
<g><path style="opacity:0.938" fill="#f97087" d="M 129.5,9.5 C 133.81,10.0802 138.143,10.4135 142.5,10.5C 142.5,16.8333 142.5,23.1667 142.5,29.5C 137.828,30.0027 133.161,30.1694 128.5,30C 122.317,26.4572 120.484,21.2906 123,14.5C 124.805,12.1743 126.972,10.5077 129.5,9.5 Z M 130.5,15.5 C 136.643,16.0262 137.976,18.8595 134.5,24C 129.504,24.6643 127.67,22.4977 129,17.5C 129.717,16.9558 130.217,16.2891 130.5,15.5 Z"/></g>
<g><path style="opacity:0.957" fill="#f87087" d="M 153.5,10.5 C 153.5,16.8333 153.5,23.1667 153.5,29.5C 151.5,29.5 149.5,29.5 147.5,29.5C 147.995,24.1391 147.329,18.9724 145.5,14C 145.735,13.1268 146.069,12.2935 146.5,11.5C 148.743,10.5258 151.076,10.1924 153.5,10.5 Z"/></g>
<g><path style="opacity:0.989" fill="#f97286" d="M 111.5,23.5 C 114.167,23.5 116.833,23.5 119.5,23.5C 119.5,25.5 119.5,27.5 119.5,29.5C 116.833,29.5 114.167,29.5 111.5,29.5C 111.5,27.5 111.5,25.5 111.5,23.5 Z"/></g>
</svg>
