<svg class="brxe-svg" id="brxe-gstbsu" xmlns="http://www.w3.org/2000/svg" width="965" height="453" viewBox="0 0 965 453" fill="none"><path opacity="0.6" fill-rule="evenodd" clip-rule="evenodd" d="M-382.763 452.703L964.363 -203.201L963.554 -203.595L805.465 -126.623L727.032 -164.812L885.12 -241.784L884.311 -242.178L726.223 -165.206L647.789 -203.394L805.877 -280.366L805.068 -280.76L646.98 -203.788L568.546 -241.977L726.635 -318.949L725.826 -319.343L567.737 -242.371L489.304 -280.56L647.392 -357.532L646.583 -357.926L488.494 -280.954L410.061 -319.142L568.15 -396.114L567.341 -396.508L409.252 -319.536L330.818 -357.725L488.907 -434.697L488.098 -435.091L330.009 -358.119L251.575 -396.308L409.664 -473.28L408.854 -473.674L250.766 -396.702L172.332 -434.89L330.421 -511.862L329.611 -512.256L171.523 -435.284L93.09 -473.473L251.179 -550.445L250.37 -550.839L92.2808 -473.867L13.8471 -512.055L171.936 -589.027L171.126 -589.421L13.0379 -512.449L-65.3952 -550.638L92.6939 -627.61L91.8847 -628.004L-66.2045 -551.032L-144.638 -589.221L13.4508 -666.193L12.6416 -666.587L-145.447 -589.614L-223.881 -627.803L-65.7931 -704.775L-66.6023 -705.169L-224.69 -628.197L-303.124 -666.386L-145.035 -743.358L-145.844 -743.752L-303.933 -666.78L-382.367 -704.969L-224.278 -781.941L-225.087 -782.335L-383.176 -705.363L-461.609 -743.551L-303.52 -820.523L-304.329 -820.917L-462.418 -743.945L-540.852 -782.134L-382.763 -859.106L-383.572 -859.5L-1730.7 -203.596L-1729.89 -203.202L-1571.81 -280.17L-1493.38 -241.981L-1651.46 -165.013L-1650.65 -164.619L-1492.57 -241.587L-1414.13 -203.399L-1572.21 -126.43L-1571.4 -126.036L-1413.32 -203.005L-1334.89 -164.816L-1492.97 -87.8476L-1492.16 -87.4535L-1334.08 -164.422L-1255.65 -126.233L-1413.73 -49.2649L-1412.92 -48.8709L-1254.84 -125.839L-1176.4 -87.6504L-1334.49 -10.6822L-1333.68 -10.2882L-1175.59 -87.2565L-1097.16 -49.0678L-1255.24 27.9003L-1254.43 28.2942L-1096.35 -48.6738L-1017.92 -10.4854L-1176 66.4829L-1175.19 66.8769L-1017.11 -10.0914L-938.676 28.0973L-1096.76 105.065L-1095.95 105.459L-937.867 28.4913L-859.434 66.6797L-1017.52 143.648L-1016.71 144.042L-858.625 67.0737L-780.191 105.262L-938.272 182.231L-937.463 182.625L-779.382 105.656L-700.948 143.845L-859.029 220.813L-858.219 221.207L-700.139 144.239L-621.705 182.428L-779.786 259.396L-778.977 259.79L-620.896 182.822L-542.463 221.01L-700.544 297.979L-699.735 298.373L-541.653 221.404L-463.22 259.593L-621.301 336.561L-620.492 336.955L-462.411 259.987L-383.977 298.176L-542.059 375.144L-541.25 375.538L-383.168 298.569L-304.734 336.758L-462.816 413.726L-462.006 414.12L-303.925 337.152L-225.492 375.341L-383.573 452.309L-382.763 452.703ZM-541.661 -781.74L-620.095 -743.551L-541.661 -705.362L-463.228 -743.551L-541.661 -781.74ZM-462.418 -743.157L-540.852 -704.969L-462.419 -666.78L-383.985 -704.969L-462.418 -743.157ZM-383.176 -704.575L-461.61 -666.386L-383.176 -628.197L-304.742 -666.386L-383.176 -704.575ZM-303.933 -665.992L-382.367 -627.803L-303.933 -589.615L-225.5 -627.803L-303.933 -665.992ZM-224.691 -627.409L-303.124 -589.221L-224.69 -551.032L-146.256 -589.22L-224.691 -627.409ZM-145.447 -588.827L-223.881 -550.638L-145.447 -512.449L-67.0137 -550.638L-145.447 -588.827ZM-66.2045 -550.244L-144.638 -512.055L-66.2049 -473.867L12.2287 -512.055L-66.2045 -550.244ZM13.0379 -511.661L-65.3957 -473.473L13.038 -435.284L91.4715 -473.473L13.0379 -511.661ZM92.2807 -473.079L13.8472 -434.89L92.2803 -396.702L170.714 -434.89L92.2807 -473.079ZM171.523 -434.496L93.0896 -396.308L171.523 -358.119L249.957 -396.308L171.523 -434.496ZM250.766 -395.914L172.332 -357.725L250.766 -319.536L329.2 -357.725L250.766 -395.914ZM330.009 -357.331L251.576 -319.142L330.009 -280.954L408.443 -319.142L330.009 -357.331ZM409.252 -318.748L330.818 -280.56L409.252 -242.371L487.685 -280.56L409.252 -318.748ZM488.494 -280.166L410.061 -241.977L488.494 -203.788L566.928 -241.977L488.494 -280.166ZM567.737 -241.583L489.303 -203.395L567.737 -165.206L646.171 -203.394L567.737 -241.583ZM646.98 -203L568.546 -164.812L646.98 -126.623L725.413 -164.812L646.98 -203ZM726.222 -164.418L647.789 -126.229L726.223 -88.0405L804.656 -126.229L726.222 -164.418ZM646.98 -125.835L725.413 -87.6465L646.98 -49.4579L568.546 -87.6466L646.98 -125.835ZM567.737 -164.418L646.171 -126.229L567.737 -88.0406L489.303 -126.229L567.737 -164.418ZM488.494 -203.001L566.928 -164.812L488.494 -126.623L410.061 -164.812L488.494 -203.001ZM409.252 -241.583L487.685 -203.394L409.252 -165.206L330.818 -203.394L409.252 -241.583ZM330.009 -280.166L408.442 -241.977L330.009 -203.788L251.576 -241.977L330.009 -280.166ZM250.766 -318.748L329.2 -280.56L250.766 -242.371L172.333 -280.56L250.766 -318.748ZM171.523 -357.331L249.957 -319.142L171.524 -280.954L93.0895 -319.143L171.523 -357.331ZM92.2803 -395.914L170.714 -357.725L92.2805 -319.536L13.8469 -357.725L92.2803 -395.914ZM13.038 -434.496L91.4711 -396.308L13.0377 -358.119L-65.3956 -396.308L13.038 -434.496ZM-66.2049 -473.079L12.2288 -434.89L-66.2046 -396.702L-144.638 -434.89L-66.2049 -473.079ZM-145.447 -511.661L-67.0142 -473.473L-145.448 -435.284L-223.881 -473.473L-145.447 -511.661ZM-224.69 -550.244L-146.257 -512.055L-224.69 -473.867L-303.123 -512.055L-224.69 -550.244ZM-303.933 -588.827L-225.499 -550.638L-303.933 -512.449L-382.367 -550.638L-303.933 -588.827ZM-383.176 -627.409L-304.742 -589.221L-383.176 -551.032L-461.609 -589.221L-383.176 -627.409ZM-462.419 -665.992L-383.985 -627.803L-462.418 -589.615L-540.852 -627.803L-462.419 -665.992ZM-541.661 -704.574L-463.228 -666.386L-541.661 -628.197L-620.095 -666.386L-541.661 -704.574ZM-620.904 -743.157L-542.47 -704.969L-620.904 -666.78L-699.337 -704.969L-620.904 -743.157ZM-700.147 -704.575L-778.58 -666.386L-700.147 -628.197L-621.713 -666.386L-700.147 -704.575ZM-620.904 -665.992L-699.337 -627.803L-620.904 -589.615L-542.471 -627.803L-620.904 -665.992ZM-541.661 -627.409L-620.095 -589.221L-541.661 -551.032L-463.228 -589.221L-541.661 -627.409ZM-462.418 -588.827L-540.852 -550.638L-462.419 -512.449L-383.985 -550.638L-462.418 -588.827ZM-383.176 -550.244L-461.61 -512.056L-383.175 -473.867L-304.742 -512.055L-383.176 -550.244ZM-303.933 -511.661L-382.366 -473.473L-303.933 -435.284L-225.499 -473.473L-303.933 -511.661ZM-224.69 -473.079L-303.123 -434.89L-224.69 -396.702L-146.257 -434.89L-224.69 -473.079ZM-145.448 -434.496L-223.881 -396.308L-145.448 -358.119L-67.014 -396.308L-145.448 -434.496ZM-66.2048 -395.914L-144.638 -357.725L-66.2053 -319.536L12.2285 -357.725L-66.2048 -395.914ZM13.0376 -357.331L-65.3961 -319.142L13.0377 -280.954L91.4713 -319.142L13.0376 -357.331ZM92.2803 -318.749L13.8467 -280.56L92.2809 -242.371L170.715 -280.56L92.2803 -318.749ZM171.524 -280.166L93.0901 -241.977L171.524 -203.788L249.957 -241.977L171.524 -280.166ZM250.766 -241.583L172.333 -203.394L250.766 -165.206L329.2 -203.394L250.766 -241.583ZM330.009 -203L251.575 -164.812L330.009 -126.623L408.442 -164.812L330.009 -203ZM409.252 -164.418L330.818 -126.229L409.252 -88.0406L487.685 -126.229L409.252 -164.418ZM488.494 -125.835L410.061 -87.6467L488.494 -49.458L566.928 -87.6466L488.494 -125.835ZM567.737 -87.2527L489.303 -49.064L567.737 -10.8753L646.171 -49.0639L567.737 -87.2527ZM488.494 -48.6701L566.928 -10.4813L488.495 27.7072L410.061 -10.4815L488.494 -48.6701ZM409.251 -87.2527L487.685 -49.064L409.252 -10.8755L330.818 -49.0641L409.251 -87.2527ZM330.009 -125.835L408.442 -87.6467L330.009 -49.4581L251.575 -87.6467L330.009 -125.835ZM250.766 -164.418L329.2 -126.229L250.766 -88.0407L172.333 -126.229L250.766 -164.418ZM171.524 -203L249.957 -164.812L171.524 -126.623L93.0901 -164.812L171.524 -203ZM92.2809 -241.583L170.714 -203.394L92.281 -165.206L13.8475 -203.394L92.2809 -241.583ZM13.0376 -280.166L91.4717 -241.977L13.0383 -203.788L-65.3959 -241.977L13.0376 -280.166ZM-66.2051 -318.749L12.2285 -280.56L-66.205 -242.371L-144.639 -280.56L-66.2051 -318.749ZM-145.447 -357.331L-67.0143 -319.142L-145.448 -280.954L-223.881 -319.142L-145.447 -357.331ZM-224.69 -395.914L-146.257 -357.725L-224.69 -319.536L-303.124 -357.725L-224.69 -395.914ZM-303.933 -434.496L-225.5 -396.308L-303.933 -358.119L-382.366 -396.307L-303.933 -434.496ZM-383.175 -473.079L-304.742 -434.89L-383.175 -396.701L-461.609 -434.89L-383.175 -473.079ZM-462.419 -511.662L-383.985 -473.473L-462.418 -435.284L-540.852 -473.473L-462.419 -511.662ZM-541.661 -550.244L-463.228 -512.056L-541.661 -473.867L-620.095 -512.056L-541.661 -550.244ZM-620.904 -588.827L-542.47 -550.638L-620.904 -512.45L-699.338 -550.638L-620.904 -588.827ZM-700.147 -627.409L-621.713 -589.221L-700.147 -551.032L-778.58 -589.221L-700.147 -627.409ZM-779.389 -665.992L-700.956 -627.803L-779.389 -589.615L-857.823 -627.804L-779.389 -665.992ZM-858.632 -627.409L-937.066 -589.221L-858.632 -551.032L-780.198 -589.221L-858.632 -627.409ZM-779.389 -588.827L-857.823 -550.638L-779.389 -512.45L-700.956 -550.638L-779.389 -588.827ZM-700.147 -550.244L-778.58 -512.056L-700.147 -473.867L-621.713 -512.056L-700.147 -550.244ZM-620.904 -511.662L-699.337 -473.473L-620.904 -435.284L-542.471 -473.473L-620.904 -511.662ZM-541.661 -473.079L-620.095 -434.89L-541.661 -396.701L-463.227 -434.89L-541.661 -473.079ZM-462.418 -434.496L-540.851 -396.308L-462.418 -358.119L-383.985 -396.307L-462.418 -434.496ZM-383.175 -395.913L-461.609 -357.725L-383.176 -319.536L-304.742 -357.725L-383.175 -395.913ZM-303.933 -357.331L-382.367 -319.142L-303.933 -280.954L-225.499 -319.142L-303.933 -357.331ZM-224.69 -318.748L-303.124 -280.56L-224.69 -242.371L-146.257 -280.56L-224.69 -318.748ZM-145.448 -280.166L-223.881 -241.977L-145.448 -203.789L-67.0143 -241.977L-145.448 -280.166ZM-66.2051 -241.583L-144.639 -203.395L-66.2044 -165.206L12.2291 -203.394L-66.2051 -241.583ZM13.0383 -203L-65.3953 -164.812L13.0383 -126.623L91.4717 -164.812L13.0383 -203ZM92.2809 -164.418L13.8475 -126.229L92.2809 -88.0407L170.714 -126.229L92.2809 -164.418ZM171.524 -125.835L93.0901 -87.6467L171.523 -49.4582L249.957 -87.6467L171.524 -125.835ZM250.766 -87.2527L172.333 -49.0642L250.766 -10.8755L329.2 -49.0641L250.766 -87.2527ZM330.009 -48.6702L251.575 -10.4816L330.009 27.7071L408.442 -10.4815L330.009 -48.6702ZM409.252 -10.0875L330.818 28.1011L409.252 66.2898L487.685 28.1012L409.252 -10.0875ZM330.009 28.4951L408.443 66.6838L330.009 104.872L251.575 66.6837L330.009 28.4951ZM250.766 -10.0876L329.2 28.1011L250.766 66.2898L172.332 28.1011L250.766 -10.0876ZM171.523 -48.6702L249.957 -10.4815L171.523 27.7071L93.0898 -10.4815L171.523 -48.6702ZM92.2809 -87.2527L170.714 -49.0642L92.2806 -10.8755L13.8472 -49.0641L92.2809 -87.2527ZM13.0383 -125.835L91.4717 -87.6467L13.038 -49.4581L-65.3955 -87.6466L13.0383 -125.835ZM-66.2045 -164.418L12.2291 -126.229L-66.2047 -88.0406L-144.638 -126.229L-66.2045 -164.418ZM-145.448 -203.001L-67.0136 -164.812L-145.447 -126.623L-223.881 -164.812L-145.448 -203.001ZM-224.691 -241.583L-146.257 -203.395L-224.691 -165.206L-303.124 -203.395L-224.691 -241.583ZM-303.933 -280.166L-225.5 -241.977L-303.933 -203.789L-382.367 -241.977L-303.933 -280.166ZM-383.176 -318.748L-304.742 -280.56L-383.176 -242.371L-461.609 -280.56L-383.176 -318.748ZM-462.418 -357.331L-383.985 -319.143L-462.419 -280.954L-540.852 -319.142L-462.418 -357.331ZM-541.661 -395.914L-463.227 -357.725L-541.661 -319.536L-620.094 -357.725L-541.661 -395.914ZM-620.904 -434.496L-542.47 -396.308L-620.903 -358.119L-699.338 -396.308L-620.904 -434.496ZM-700.147 -473.079L-621.713 -434.89L-700.147 -396.702L-778.58 -434.89L-700.147 -473.079ZM-779.39 -511.662L-700.956 -473.473L-779.389 -435.284L-857.823 -473.473L-779.39 -511.662ZM-858.632 -550.244L-780.199 -512.056L-858.632 -473.867L-937.065 -512.055L-858.632 -550.244ZM-937.875 -588.827L-859.441 -550.638L-937.875 -512.449L-1016.31 -550.638L-937.875 -588.827ZM-1017.12 -550.244L-1095.54 -512.059L-1017.11 -473.871L-938.684 -512.055L-1017.12 -550.244ZM-937.875 -511.661L-1016.3 -473.477L-937.867 -435.288L-859.441 -473.473L-937.875 -511.661ZM-858.632 -473.079L-937.058 -434.894L-858.625 -396.705L-780.199 -434.89L-858.632 -473.079ZM-779.389 -434.496L-857.815 -396.311L-779.382 -358.123L-700.956 -396.308L-779.389 -434.496ZM-700.147 -395.914L-778.573 -357.729L-700.139 -319.54L-621.713 -357.725L-700.147 -395.914ZM-620.904 -357.331L-699.329 -319.146L-620.896 -280.957L-542.47 -319.142L-620.904 -357.331ZM-541.661 -318.748L-620.087 -280.563L-541.654 -242.375L-463.228 -280.56L-541.661 -318.748ZM-462.419 -280.166L-540.844 -241.981L-462.411 -203.792L-383.985 -241.977L-462.419 -280.166ZM-383.176 -241.583L-461.602 -203.398L-383.168 -165.21L-304.743 -203.395L-383.176 -241.583ZM-303.933 -203.001L-382.359 -164.816L-303.926 -126.627L-225.5 -164.812L-303.933 -203.001ZM-224.691 -164.418L-303.116 -126.233L-224.682 -88.0443L-146.256 -126.229L-224.691 -164.418ZM-145.447 -125.835L-223.873 -87.6504L-145.44 -49.4617L-67.0137 -87.6466L-145.447 -125.835ZM-66.2047 -87.2526L-144.63 -49.0678L-66.1971 -10.8792L12.2289 -49.064L-66.2047 -87.2526ZM13.038 -48.6701L-65.3879 -10.4852L13.0456 27.7033L91.4714 -10.4815L13.038 -48.6701ZM92.2806 -10.0875L13.8548 28.0974L92.2883 66.286L170.714 28.1011L92.2806 -10.0875ZM171.523 28.4951L93.0974 66.6799L171.531 104.869L249.957 66.6838L171.523 28.4951ZM250.766 67.0777L172.34 105.263L250.774 143.451L329.2 105.266L250.766 67.0777ZM171.531 105.657L249.965 143.845L171.531 182.034L93.0974 143.845L171.531 105.657ZM92.2882 67.0739L170.722 105.263L92.2884 143.451L13.8547 105.263L92.2882 67.0739ZM13.0456 28.4913L91.4791 66.68L13.0456 104.869L-65.388 66.68L13.0456 28.4913ZM-66.1971 -10.0912L12.2364 28.0974L-66.1972 66.286L-144.631 28.0974L-66.1971 -10.0912ZM-145.44 -48.6738L-67.0063 -10.4852L-145.44 27.7034L-223.873 -10.4852L-145.44 -48.6738ZM-224.682 -87.2563L-146.249 -49.0678L-224.682 -10.8791L-303.116 -49.0677L-224.682 -87.2563ZM-303.926 -125.839L-225.492 -87.6503L-303.925 -49.4617L-382.359 -87.6506L-303.926 -125.839ZM-383.168 -164.422L-304.735 -126.233L-383.168 -88.0446L-461.602 -126.233L-383.168 -164.422ZM-462.411 -203.004L-383.978 -164.816L-462.411 -126.627L-540.844 -164.816L-462.411 -203.004ZM-541.654 -241.587L-463.22 -203.398L-541.653 -165.21L-620.087 -203.398L-541.654 -241.587ZM-620.896 -280.169L-542.463 -241.981L-620.896 -203.792L-699.329 -241.981L-620.896 -280.169ZM-700.139 -318.752L-621.705 -280.563L-700.139 -242.375L-778.572 -280.563L-700.139 -318.752ZM-779.382 -357.335L-700.948 -319.146L-779.381 -280.957L-857.816 -319.146L-779.382 -357.335ZM-858.625 -395.917L-780.191 -357.729L-858.625 -319.54L-937.058 -357.729L-858.625 -395.917ZM-937.867 -434.5L-859.434 -396.311L-937.867 -358.123L-1016.3 -396.312L-937.867 -434.5ZM-1017.11 -473.083L-938.677 -434.894L-1017.11 -396.705L-1095.54 -434.894L-1017.11 -473.083ZM-1096.35 -511.665L-1017.92 -473.477L-1096.35 -435.288L-1174.79 -473.477L-1096.35 -511.665ZM-1175.6 -473.083L-1254.03 -434.894L-1175.6 -396.705L-1097.16 -434.894L-1175.6 -473.083ZM-1096.35 -434.5L-1174.79 -396.311L-1096.35 -358.123L-1017.92 -396.312L-1096.35 -434.5ZM-1017.11 -395.918L-1095.54 -357.729L-1017.11 -319.54L-938.676 -357.729L-1017.11 -395.918ZM-937.867 -357.335L-1016.3 -319.146L-937.867 -280.958L-859.434 -319.146L-937.867 -357.335ZM-858.625 -318.752L-937.058 -280.564L-858.624 -242.375L-780.19 -280.563L-858.625 -318.752ZM-779.381 -280.169L-857.815 -241.981L-779.381 -203.792L-700.948 -241.981L-779.381 -280.169ZM-700.139 -241.587L-778.572 -203.398L-700.139 -165.21L-621.706 -203.398L-700.139 -241.587ZM-620.896 -203.004L-699.33 -164.816L-620.896 -126.627L-542.463 -164.816L-620.896 -203.004ZM-541.654 -164.422L-620.087 -126.233L-541.654 -88.0447L-463.22 -126.233L-541.654 -164.422ZM-462.411 -125.839L-540.845 -87.6507L-462.411 -49.462L-383.978 -87.6506L-462.411 -125.839ZM-383.168 -87.2566L-461.602 -49.0681L-383.168 -10.8791L-304.734 -49.0677L-383.168 -87.2566ZM-303.925 -48.6738L-382.359 -10.4852L-303.925 27.7034L-225.492 -10.4852L-303.925 -48.6738ZM-224.682 -10.0912L-303.116 28.0974L-224.682 66.286L-146.249 28.0974L-224.682 -10.0912ZM-145.44 28.4914L-223.873 66.68L-145.44 104.869L-67.0064 66.6799L-145.44 28.4914ZM-66.1972 67.0739L-144.631 105.263L-66.1972 143.451L12.2364 105.263L-66.1972 67.0739ZM13.0455 105.657L-65.388 143.845L13.0457 182.034L91.4792 143.845L13.0455 105.657ZM92.2883 144.239L13.8548 182.428L92.2886 220.617L170.722 182.428L92.2883 144.239ZM13.0456 182.822L91.4794 221.011L12.5308 259.45L-65.9031 221.261L13.0456 182.822ZM-66.1972 144.239L12.2365 182.428L-66.7121 220.867L-145.146 182.678L-66.1972 144.239ZM-145.44 105.657L-67.0064 143.845L-145.955 182.285L-224.389 144.096L-145.44 105.657ZM-224.683 67.074L-146.249 105.263L-225.198 143.702L-303.631 105.513L-224.683 67.074ZM-303.925 28.4914L-225.492 66.68L-304.44 105.119L-382.874 66.9308L-303.925 28.4914ZM-383.168 -10.0912L-304.734 28.0975L-383.683 66.5368L-462.116 28.3482L-383.168 -10.0912ZM-462.411 -48.6741L-383.977 -10.4851L-462.925 27.9543L-541.36 -10.2347L-462.411 -48.6741ZM-541.654 -87.2567L-463.22 -49.068L-542.169 -10.6287L-620.602 -48.8174L-541.654 -87.2567ZM-620.896 -125.839L-542.463 -87.6506L-621.412 -49.2113L-699.845 -87.3997L-620.896 -125.839ZM-700.139 -164.422L-621.705 -126.233L-700.654 -87.7937L-779.088 -125.982L-700.139 -164.422ZM-779.381 -203.004L-700.948 -164.816L-779.897 -126.376L-858.33 -164.565L-779.381 -203.004ZM-858.624 -241.587L-780.191 -203.398L-859.139 -164.959L-937.573 -203.148L-858.624 -241.587ZM-937.867 -280.17L-859.433 -241.981L-938.382 -203.541L-1016.82 -241.73L-937.867 -280.17ZM-1017.11 -318.752L-938.677 -280.564L-1017.63 -242.124L-1096.06 -280.313L-1017.11 -318.752ZM-1096.35 -357.335L-1017.92 -319.146L-1096.87 -280.707L-1175.3 -318.896L-1096.35 -357.335ZM-1175.6 -395.917L-1097.16 -357.729L-1176.11 -319.29L-1254.54 -357.478L-1175.6 -395.917ZM-1254.84 -434.5L-1176.4 -396.311L-1255.35 -357.872L-1333.79 -396.061L-1254.84 -434.5ZM-1334.6 -395.667L-1412.51 -357.729L-1334.08 -319.54L-1256.16 -357.478L-1334.6 -395.667ZM-1255.35 -357.084L-1333.27 -319.146L-1254.84 -280.958L-1176.92 -318.896L-1255.35 -357.084ZM-1176.11 -318.502L-1254.03 -280.564L-1175.6 -242.375L-1097.68 -280.313L-1176.11 -318.502ZM-1096.87 -279.919L-1174.79 -241.981L-1096.35 -203.792L-1018.43 -241.73L-1096.87 -279.919ZM-1017.63 -241.336L-1095.54 -203.398L-1017.11 -165.21L-939.191 -203.147L-1017.63 -241.336ZM-938.382 -202.754L-1016.3 -164.816L-937.867 -126.627L-859.948 -164.565L-938.382 -202.754ZM-859.139 -164.171L-937.058 -126.233L-858.625 -88.0445L-780.706 -125.982L-859.139 -164.171ZM-779.897 -125.588L-857.816 -87.6505L-779.382 -49.4618L-701.463 -87.3997L-779.897 -125.588ZM-700.654 -87.0058L-778.573 -49.0678L-700.139 -10.8794L-622.221 -48.8173L-700.654 -87.0058ZM-621.412 -48.4234L-699.33 -10.4854L-620.897 27.7033L-542.978 -10.2347L-621.412 -48.4234ZM-542.169 -9.84074L-620.088 28.0972L-541.653 66.2862L-463.735 28.3482L-542.169 -9.84074ZM-462.926 28.7422L-540.844 66.6801L-462.411 104.869L-384.492 66.9308L-462.926 28.7422ZM-383.683 67.3247L-461.602 105.263L-383.168 143.451L-305.249 105.513L-383.683 67.3247ZM-304.44 105.907L-382.359 143.845L-303.926 182.034L-226.007 144.096L-304.44 105.907ZM-225.198 144.49L-303.116 182.428L-224.683 220.616L-146.764 182.679L-225.198 144.49ZM-145.955 183.072L-223.874 221.01L-145.44 259.199L-67.5213 221.261L-145.955 183.072ZM-66.7123 221.655L-144.631 259.593L-66.1971 297.782L11.7216 259.844L-66.7123 221.655ZM-145.44 259.987L-67.0063 298.176L-145.44 336.364L-223.874 298.176L-145.44 259.987ZM-224.683 221.404L-146.249 259.593L-224.683 297.782L-303.116 259.593L-224.683 221.404ZM-303.926 182.822L-225.492 221.01L-303.925 259.199L-382.359 221.01L-303.926 182.822ZM-383.168 144.239L-304.735 182.428L-383.168 220.616L-461.602 182.428L-383.168 144.239ZM-462.411 105.657L-383.977 143.845L-462.411 182.034L-540.844 143.845L-462.411 105.657ZM-541.653 67.0741L-463.22 105.263L-541.653 143.451L-620.087 105.263L-541.653 67.0741ZM-620.897 28.4912L-542.462 66.6801L-620.896 104.869L-699.33 66.6797L-620.897 28.4912ZM-700.139 -10.0915L-621.706 28.0972L-700.139 66.2858L-778.573 28.0971L-700.139 -10.0915ZM-779.382 -48.6739L-700.949 -10.4854L-779.382 27.7032L-857.815 -10.4853L-779.382 -48.6739ZM-858.625 -87.2566L-780.191 -49.0678L-858.624 -10.8793L-937.058 -49.068L-858.625 -87.2566ZM-937.867 -125.839L-859.434 -87.6506L-937.867 -49.462L-1016.3 -87.6504L-937.867 -125.839ZM-1017.11 -164.422L-938.676 -126.233L-1017.11 -88.0444L-1095.54 -126.233L-1017.11 -164.422ZM-1096.35 -203.005L-1017.92 -164.816L-1096.35 -126.627L-1174.79 -164.816L-1096.35 -203.005ZM-1175.6 -241.587L-1097.16 -203.398L-1175.6 -165.21L-1254.03 -203.398L-1175.6 -241.587ZM-1254.84 -280.17L-1176.4 -241.981L-1254.84 -203.792L-1333.27 -241.981L-1254.84 -280.17ZM-1334.08 -318.752L-1255.65 -280.564L-1334.08 -242.375L-1412.51 -280.564L-1334.08 -318.752ZM-1413.32 -357.335L-1334.89 -319.146L-1413.32 -280.958L-1491.76 -319.146L-1413.32 -357.335ZM-1492.57 -318.752L-1571 -280.564L-1492.57 -242.375L-1414.13 -280.564L-1492.57 -318.752ZM-1413.32 -280.17L-1491.76 -241.981L-1413.32 -203.793L-1334.89 -241.981L-1413.32 -280.17ZM-1334.08 -241.587L-1412.51 -203.399L-1334.08 -165.21L-1255.65 -203.398L-1334.08 -241.587ZM-1254.84 -203.005L-1333.27 -164.816L-1254.84 -126.627L-1176.4 -164.816L-1254.84 -203.005ZM-1175.6 -164.422L-1254.03 -126.233L-1175.59 -88.0444L-1097.16 -126.233L-1175.6 -164.422ZM-1096.35 -125.839L-1174.79 -87.6505L-1096.35 -49.4618L-1017.92 -87.6504L-1096.35 -125.839ZM-1017.11 -87.2564L-1095.54 -49.0678L-1017.11 -10.8794L-938.676 -49.068L-1017.11 -87.2564ZM-937.867 -48.6741L-1016.3 -10.4854L-937.867 27.7033L-859.433 -10.4853L-937.867 -48.6741ZM-858.624 -10.0913L-937.058 28.0973L-858.625 66.2857L-780.191 28.0971L-858.624 -10.0913ZM-779.382 28.4911L-857.816 66.6797L-779.382 104.868L-700.948 66.6797L-779.382 28.4911ZM-700.139 67.0737L-778.573 105.262L-700.139 143.451L-621.705 105.263L-700.139 67.0737ZM-620.896 105.657L-699.33 143.845L-620.896 182.034L-542.462 143.845L-620.896 105.657ZM-541.653 144.239L-620.087 182.428L-541.653 220.616L-463.22 182.428L-541.653 144.239ZM-462.411 182.822L-540.844 221.01L-462.411 259.199L-383.977 221.01L-462.411 182.822ZM-383.168 221.404L-461.602 259.593L-383.168 297.782L-304.735 259.593L-383.168 221.404ZM-303.925 259.987L-382.359 298.176L-303.925 336.364L-225.492 298.176L-303.925 259.987ZM-224.683 298.57L-303.116 336.758L-224.682 374.947L-146.249 336.758L-224.683 298.57Z" fill="url(#paint0_linear_1304_56661)" fill-opacity="0.4"></path><defs><linearGradient id="paint0_linear_1304_56661" x1="156.659" y1="355.756" x2="-178.141" y2="-265.694" gradientUnits="userSpaceOnUse"><stop stop-color="#7278FC"></stop><stop offset="1" stop-color="#D951A4"></stop></linearGradient></defs></svg>