<svg width="24" height="24" viewBox="0 0 24 24" fill="none" xmlns="http://www.w3.org/2000/svg" color="#998CA6"><path fill-rule="evenodd" clip-rule="evenodd" d="M9.7259 22.048C15.1529 23.4007 20.649 20.0996 22.0017 14.6755L22.0016 14.6756C23.3546 9.25115 20.0524 3.75641 14.6258 2.40415C9.20045 1.05188 3.70441 4.35317 2.35218 9.77792C0.998767 15.2016 4.30115 20.6958 9.7259 22.048ZM14.5494 8.22868C15.9003 8.71185 16.8883 9.43613 16.6942 10.7836L16.6943 10.7835L16.6946 10.7837C16.5542 11.77 16.0276 12.2475 15.3284 12.4149C16.2883 12.9339 16.7768 13.7297 16.3115 15.1094C15.734 16.823 14.362 16.9676 12.5374 16.609L12.0947 18.4517L11.0246 18.1748L11.4616 16.3569C11.1842 16.2854 10.9009 16.2094 10.6089 16.1271L10.1704 17.9537L9.10162 17.6768L9.54441 15.8307C9.44156 15.8034 9.33807 15.7754 9.23383 15.7472C9.08468 15.7068 8.934 15.666 8.78152 15.6263L7.38906 15.2659L7.92031 13.9941C7.92031 13.9941 8.70874 14.2117 8.69802 14.1956C9.00096 14.2735 9.13537 14.0684 9.18832 13.9317L9.88805 11.0188C9.91623 11.0258 9.94367 11.033 9.97007 11.0398C9.9806 11.0426 9.99097 11.0453 10.0012 11.0479C9.95845 11.0301 9.91975 11.0187 9.88991 11.0108L10.3891 8.93148C10.4021 8.69542 10.3238 8.39758 9.89048 8.28529C9.90721 8.27366 9.11335 8.08471 9.11335 8.08471L9.39799 6.89804L10.8736 7.28064L10.8723 7.28638C11.0942 7.34369 11.3228 7.39808 11.5556 7.45312L11.9941 5.62852L13.0634 5.90536L12.6337 7.69423C12.9208 7.76228 13.2097 7.83092 13.491 7.90377L13.9176 6.12663L14.9877 6.40348L14.5494 8.22868ZM11.1648 14.8462C12.0379 15.0857 13.9461 15.609 14.2495 14.3432H14.2495C14.5603 13.049 12.71 12.6179 11.807 12.4074C11.706 12.3839 11.6168 12.3631 11.5438 12.3442L10.9563 14.79C11.0161 14.8055 11.0863 14.8247 11.1648 14.8462ZM11.9881 11.2723C12.716 11.474 14.3038 11.914 14.5804 10.7636H14.5805C14.8629 9.58691 13.3197 9.23217 12.566 9.05891C12.4813 9.03942 12.4065 9.02222 12.3454 9.00641L11.8127 11.2246C11.863 11.2376 11.922 11.254 11.9881 11.2723Z" fill="#998CA6"></path></svg>