<svg width="24" height="24" viewBox="0 0 32 32" fill="none" xmlns="http://www.w3.org/2000/svg"><path d="M28.611 18.7657C26.8746 25.9979 19.82 30.3993 12.8541 28.5958C5.89102 26.7928 1.65217 19.4673 3.38937 12.2357C5.12505 5.00266 12.1796 0.600944 19.1434 2.40397C26.1089 4.20699 30.3475 11.5333 28.6108 18.7658L28.611 18.7657H28.611Z" fill="#F7931A"></path><path d="M21.7333 13.5763C21.9921 11.7797 20.6748 10.814 18.8736 10.1698L19.4579 7.73617L18.0312 7.36704L17.4624 9.73656C17.0873 9.63942 16.7021 9.5479 16.3193 9.45717L16.8923 7.07201L15.4665 6.70288L14.8818 9.13568C14.5714 9.0623 14.2666 8.98978 13.9708 8.91337L13.9725 8.90572L12.005 8.39557L11.6255 9.9778C11.6255 9.9778 12.684 10.2297 12.6617 10.2452C13.2394 10.395 13.3439 10.7921 13.3266 11.1068L12.6609 13.8793C12.7007 13.8898 12.7523 13.9049 12.8093 13.9287C12.7617 13.9164 12.711 13.903 12.6585 13.89L11.7255 17.7737C11.6549 17.956 11.4757 18.2295 11.0717 18.1257C11.086 18.1472 10.0348 17.857 10.0348 17.857L9.32646 19.5527L11.1831 20.0333C11.5285 20.1232 11.8669 20.2173 12.2003 20.3058L11.6099 22.7673L13.0349 23.1364L13.6196 20.7011C14.0089 20.8108 14.3867 20.912 14.7566 21.0074L14.1739 23.4313L15.6006 23.8004L16.1909 21.3436C18.6238 21.8216 20.453 21.6289 21.223 19.344C21.8435 17.5045 21.1921 16.4434 19.9122 15.7514C20.8445 15.5282 21.5466 14.8916 21.7338 13.5765L21.7334 13.5761L21.7333 13.5763ZM18.4737 18.3224C18.0327 20.162 15.0498 19.1676 14.0827 18.9182L14.8662 15.6572C15.8332 15.9078 18.9345 16.4039 18.4737 18.3224H18.4737ZM18.9149 13.5496C18.5127 15.2229 16.03 14.3728 15.2246 14.1643L15.9349 11.2067C16.7403 11.4152 19.3339 11.8043 18.915 13.5496H18.9149Z" fill="white"></path></svg>