<svg viewBox="0 0 18 18" focusable="false" class="chakra-icon css-1qj9ycc"><path d="M15.4562 3.59739L15.2297 4.44259C15.1672 4.67584 14.9275 4.81457 14.6939 4.75195L14.2713 4.63872C14.0376 4.5761 13.8994 4.33618 13.9619 4.10288L14.1884 3.25768L6.5817 1.21948L6.35523 2.06468C6.29273 2.29793 6.05308 2.43666 5.8194 2.37405L5.3968 2.26081C5.16355 2.19831 5.02492 1.95828 5.08743 1.72498L5.3139 0.879778L4.46875 0.65332L0.845283 14.1763L1.69048 14.4028L1.91695 13.5576C1.97945 13.3243 2.21949 13.1857 2.45279 13.2482L2.87539 13.3614C3.10907 13.424 3.24727 13.664 3.18475 13.8973L2.95828 14.7425L10.5649 16.7807L10.7914 15.9355C10.8539 15.7022 11.0936 15.5635 11.3272 15.6261L11.7498 15.7393C11.9835 15.8019 12.1217 16.0419 12.0592 16.2752L11.8327 17.1204L12.6779 17.3468L16.3014 3.82387L15.4562 3.59739ZM3.63763 12.2069C3.57502 12.4406 3.33548 12.5789 3.1018 12.5163L2.6792 12.403C2.44595 12.3405 2.30722 12.1009 2.36983 11.8672L2.59631 11.022C2.65892 10.7883 2.89884 10.6501 3.13214 10.7126L3.55474 10.8259C3.78842 10.8885 3.92672 11.128 3.86411 11.3617L3.63763 12.2069ZM4.31703 9.67134C4.25442 9.90502 4.01488 10.0433 3.7812 9.98071L3.3586 9.86747C3.12535 9.80497 2.98662 9.56532 3.04923 9.33163L3.2757 8.48643C3.3382 8.25319 3.57824 8.11456 3.81154 8.17707L4.23414 8.29031C4.46782 8.35292 4.60602 8.59284 4.5435 8.82614L4.31703 9.67134ZM4.99643 7.13579C4.93382 7.36947 4.69428 7.50777 4.4606 7.44515L4.038 7.33192C3.80475 7.26942 3.66602 7.02977 3.72863 6.79608L3.9551 5.95088C4.0176 5.71763 4.25764 5.57901 4.49094 5.64152L4.91354 5.75475C5.14722 5.81737 5.28542 6.05729 5.2229 6.29059L4.99643 7.13579ZM5.67583 4.60024C5.61322 4.83392 5.37368 4.97222 5.14 4.9096L4.7174 4.79637C4.48415 4.73387 4.34542 4.49421 4.40803 4.26053L4.6345 3.41533C4.697 3.18208 4.93704 3.04345 5.17034 3.10597L5.59294 3.2192C5.82662 3.28182 5.96481 3.52174 5.9023 3.75504L5.67583 4.60024ZM12.5121 14.5848C12.4495 14.8185 12.2099 14.9568 11.9763 14.8942L11.5537 14.7809C11.32 14.7183 11.1817 14.4788 11.2443 14.2451L11.4708 13.3999C11.5334 13.1662 11.7729 13.0279 12.0066 13.0905L12.4292 13.2038C12.6629 13.2664 12.8012 13.5059 12.7386 13.7396L12.5121 14.5848ZM13.1915 12.0492C13.1289 12.2829 12.8893 12.4212 12.6557 12.3586L12.2331 12.2454C11.9994 12.1828 11.8611 11.9432 11.9237 11.7095L12.1502 10.8643C12.2127 10.6311 12.4523 10.4924 12.686 10.555L13.1086 10.6682C13.3423 10.7308 13.4805 10.9707 13.418 11.204L13.1915 12.0492ZM13.8709 9.51369C13.8083 9.74738 13.5687 9.88567 13.3351 9.82306L12.9125 9.70982C12.6788 9.64721 12.5405 9.40767 12.6031 9.17399L12.8296 8.32879C12.8921 8.09554 13.1317 7.95681 13.3654 8.01942L13.788 8.13266C14.0217 8.19527 14.1599 8.4352 14.0974 8.66849L13.8709 9.51369ZM14.5503 6.97814C14.4877 7.21182 14.2481 7.35012 14.0145 7.2875L13.5919 7.17427C13.3582 7.11165 13.2199 6.87212 13.2825 6.63843L13.509 5.79323C13.5715 5.55999 13.8111 5.42125 14.0448 5.48387L14.4674 5.5971C14.7011 5.65972 14.8393 5.89964 14.7768 6.13294L14.5503 6.97814Z" fill="url(#linear-gradient-motion-icon-:r8r:)"></path><path d="M12.0147 6.29927L6.94362 4.94047C6.71037 4.87797 6.47029 5.01653 6.40778 5.24983L4.82251 11.1661C4.75978 11.4003 4.89858 11.6395 5.13188 11.702L10.203 13.0608C10.4367 13.1234 10.6761 12.9855 10.7388 12.7514L12.3242 6.83467C12.3866 6.6018 12.2484 6.36188 12.0147 6.29927ZM7.427 1.44604L6.86084 3.559C6.79822 3.79268 6.93691 4.03232 7.1702 4.09483L12.2413 5.45363C12.475 5.51625 12.7145 5.37795 12.7771 5.14427L13.3433 3.03131L7.427 1.44604ZM9.97664 13.9055L4.90553 12.5467C4.67229 12.4842 4.43221 12.6228 4.3697 12.8561L3.80354 14.969L9.71984 16.5543L10.286 14.4413C10.3484 14.2085 10.2103 13.9681 9.97664 13.9055Z" fill="#0B0F17"></path><defs><linearGradient id="linear-gradient-motion-icon-:r8r:" x1="2.65678" y1="7.41434" x2="14.49" y2="10.5851" gradientUnits="userSpaceOnUse"><stop stop-color="#9800CE"></stop><stop offset="0.4795" stop-color="#FF288B"></stop><stop offset="1" stop-color="#F84690"></stop></linearGradient></defs></svg>