<svg viewBox="0 0 12 15" focusable="false" class="chakra-icon css-xzoyth" xmlns="http://www.w3.org/2000/svg" aria-hidden="true"><path d="M9 5.75H3.5625V4.25C3.5625 3.605 3.81746 2.98996 4.27496 2.52496C4.73996 2.06746 5.355 1.8125 6 1.8125C7.1175 1.8125 8.08492 2.56246 8.35492 3.64246C8.43742 3.94246 8.74504 4.12249 9.03754 4.04749C9.34504 3.96499 9.52507 3.66504 9.45007 3.35754C9.04507 1.79004 7.6275 0.6875 6 0.6875C5.055 0.6875 4.16242 1.05492 3.47992 1.72992C2.80492 2.41242 2.4375 3.305 2.4375 4.25V5.79358C1.314 5.96833 0.75 6.70175 0.75 8V12.5C0.75 14 1.5 14.75 3 14.75H9C10.5 14.75 11.25 14 11.25 12.5V8C11.25 6.5 10.5 5.75 9 5.75ZM6.5625 10.2403V11.75C6.5625 12.0605 6.3105 12.3125 6 12.3125C5.6895 12.3125 5.4375 12.0605 5.4375 11.75V10.2214C5.2215 10.0497 5.07367 9.79625 5.07367 9.5C5.07367 8.9825 5.49001 8.5625 6.00751 8.5625H6.01501C6.53251 8.5625 6.95251 8.9825 6.95251 9.5C6.95251 9.809 6.79275 10.07 6.5625 10.2403Z" fill="currentColor"></path></svg>