<svg xmlns="http://www.w3.org/2000/svg" width="60" height="60" viewBox="0 0 60 60" fill="none">
  <path d="M30.7717 0.566083L36.7902 19.6285C37.3288 21.3344 38.6652 22.6708 40.3711 23.2094L59.4335 29.2279C60.1876 29.4658 60.1876 30.5336 59.4335 30.7715L40.3718 36.7913C38.6659 37.33 37.3295 38.6663 36.7909 40.3723L30.7717 59.4347C30.5338 60.1888 29.466 60.1888 29.2281 59.4347L23.2089 40.3723C22.6703 38.6663 21.3339 37.33 19.628 36.7913L0.565603 30.7722C-0.188494 30.5342 -0.188494 29.4665 0.565603 29.2286L19.628 23.2101C21.3339 22.6715 22.6703 21.3351 23.2089 19.6292L29.2281 0.566083C29.466 -0.188694 30.5338 -0.188694 30.7717 0.566083Z" fill="url(#paint0_linear_1_867)"/>
  <defs>
    <linearGradient id="paint0_linear_1_867" x1="29.9996" y1="0" x2="29.9996" y2="60.0002" gradientUnits="userSpaceOnUse">
      <stop stop-color="#DD00AC"/>
      <stop offset="1" stop-color="#7064E9"/>
    </linearGradient>
  </defs>
</svg>