<svg width="22" height="22" viewBox="0 0 22 22" fill="none" xmlns="http://www.w3.org/2000/svg">
<path d="M2.05269 19.6562C1.90669 19.6562 1.76247 19.6242 1.63016 19.5624C1.49784 19.5007 1.38063 19.4108 1.28676 19.299C1.19288 19.1872 1.12461 19.0562 1.08674 18.9152C1.04887 18.7742 1.04231 18.6266 1.06753 18.4828L1.79487 14.3609C1.83033 14.1596 1.92673 13.974 2.07105 13.8293L12.4003 3.50037C12.456 3.44464 12.5222 3.40043 12.595 3.37027C12.6678 3.34011 12.7458 3.32458 12.8246 3.32458C12.9034 3.32458 12.9814 3.34011 13.0542 3.37027C13.127 3.40043 13.1931 3.44464 13.2488 3.50037L17.2085 7.46013C17.2643 7.51583 17.3085 7.58197 17.3386 7.65475C17.3688 7.72754 17.3843 7.80556 17.3843 7.88435C17.3843 7.96314 17.3688 8.04116 17.3386 8.11395C17.3085 8.18674 17.2643 8.25287 17.2085 8.30857L6.8812 18.6359C6.73628 18.7814 6.54988 18.8784 6.3476 18.9136L2.22651 19.641C2.16912 19.6511 2.11096 19.6562 2.05269 19.6562ZM2.96597 14.6316L2.29915 18.4093L6.07767 17.7425L15.9359 7.88435L12.8246 4.77302L2.96597 14.6316Z" fill="#959595"/>
<path d="M16.7844 8.48436C16.7056 8.48445 16.6275 8.46897 16.5547 8.43881C16.4819 8.40864 16.4158 8.36438 16.3602 8.30857L12.4004 4.34878C12.3447 4.29308 12.3005 4.22695 12.2703 4.15416C12.2401 4.08137 12.2246 4.00335 12.2246 3.92456C12.2246 3.84577 12.2401 3.76775 12.2703 3.69496C12.3005 3.62217 12.3447 3.55604 12.4004 3.50034L14.9461 0.954638C15.2889 0.627257 15.7447 0.44458 16.2188 0.44458C16.6928 0.44458 17.1486 0.627257 17.4914 0.954638L19.7543 3.21758C20.0912 3.55541 20.2804 4.01304 20.2805 4.49016C20.2806 4.96727 20.0915 5.42496 19.7547 5.76289L17.2086 8.3086C17.1529 8.3644 17.0868 8.40865 17.014 8.43882C16.9412 8.46898 16.8632 8.48446 16.7844 8.48436ZM13.673 3.92459L16.7844 7.03592L18.9059 4.91444C19.0181 4.80177 19.0811 4.64923 19.0811 4.49022C19.0811 4.33121 19.0181 4.17867 18.9059 4.066L16.643 1.80311C16.5287 1.69404 16.3769 1.63318 16.2189 1.63318C16.061 1.63318 15.9091 1.69404 15.7949 1.80311L13.673 3.92459Z" fill="#959595"/>
<path d="M19 22H1.40005C1.24092 22 1.08831 21.9368 0.975785 21.8243C0.863263 21.7117 0.800049 21.5591 0.800049 21.4C0.800049 21.2409 0.863263 21.0882 0.975785 20.9757C1.08831 20.8632 1.24092 20.8 1.40005 20.8H19C19.1592 20.8 19.3118 20.8632 19.4243 20.9757C19.5368 21.0882 19.6 21.2409 19.6 21.4C19.6 21.5591 19.5368 21.7117 19.4243 21.8243C19.3118 21.9368 19.1592 22 19 22Z" fill="#959595"/>
<path d="M2.2001 4.4C2.04098 4.39996 1.88839 4.33673 1.77588 4.22422C1.66337 4.1117 1.60014 3.95912 1.6001 3.8V0.6C1.6001 0.44087 1.66331 0.288258 1.77583 0.175736C1.88836 0.063214 2.04097 0 2.2001 0C2.35923 0 2.51184 0.063214 2.62436 0.175736C2.73688 0.288258 2.8001 0.44087 2.8001 0.6V3.8C2.80006 3.95912 2.73683 4.1117 2.62431 4.22422C2.5118 4.33673 2.35921 4.39996 2.2001 4.4Z" fill="#959595"/>
<path d="M3.8 2.79998H0.6C0.44087 2.79998 0.288258 2.73676 0.175736 2.62424C0.063214 2.51172 0 2.35911 0 2.19998C0 2.04085 0.063214 1.88823 0.175736 1.77571C0.288258 1.66319 0.44087 1.59998 0.6 1.59998H3.8C3.95913 1.59998 4.11174 1.66319 4.22426 1.77571C4.33679 1.88823 4.4 2.04085 4.4 2.19998C4.4 2.35911 4.33679 2.51172 4.22426 2.62424C4.11174 2.73676 3.95913 2.79998 3.8 2.79998Z" fill="#959595"/>
<path d="M7.79995 5.99998C7.64083 5.99993 7.48825 5.93671 7.37573 5.82419C7.26322 5.71168 7.19999 5.55909 7.19995 5.39998V2.19998C7.19995 2.04085 7.26317 1.88823 7.37569 1.77571C7.48821 1.66319 7.64082 1.59998 7.79995 1.59998C7.95908 1.59998 8.11169 1.66319 8.22421 1.77571C8.33674 1.88823 8.39995 2.04085 8.39995 2.19998V5.39998C8.39991 5.55909 8.33668 5.71168 8.22417 5.82419C8.11166 5.93671 7.95907 5.99993 7.79995 5.99998Z" fill="#959595"/>
<path d="M9.4001 4.40001H6.2001C6.04097 4.40001 5.88836 4.3368 5.77583 4.22428C5.66331 4.11175 5.6001 3.95914 5.6001 3.80001C5.6001 3.64088 5.66331 3.48827 5.77583 3.37575C5.88836 3.26323 6.04097 3.20001 6.2001 3.20001H9.4001C9.55923 3.20001 9.71184 3.26323 9.82436 3.37575C9.93688 3.48827 10.0001 3.64088 10.0001 3.80001C10.0001 3.95914 9.93688 4.11175 9.82436 4.22428C9.71184 4.3368 9.55923 4.40001 9.4001 4.40001Z" fill="#959595"/>
<path d="M15.8 19.6C15.6408 19.6 15.4882 19.5367 15.3757 19.4242C15.2632 19.3117 15.2 19.1591 15.2 19V15.8C15.2 15.6409 15.2632 15.4883 15.3757 15.3757C15.4882 15.2632 15.6408 15.2 15.8 15.2C15.9591 15.2 16.1117 15.2632 16.2242 15.3757C16.3367 15.4883 16.4 15.6409 16.4 15.8V19C16.3999 19.1591 16.3367 19.3117 16.2242 19.4242C16.1117 19.5367 15.9591 19.6 15.8 19.6Z" fill="#959595"/>
<path d="M17.3999 18H14.1999C14.0407 18 13.8881 17.9368 13.7756 17.8243C13.6631 17.7117 13.5999 17.5591 13.5999 17.4C13.5999 17.2409 13.6631 17.0882 13.7756 16.9757C13.8881 16.8632 14.0407 16.8 14.1999 16.8H17.3999C17.559 16.8 17.7116 16.8632 17.8241 16.9757C17.9366 17.0882 17.9999 17.2409 17.9999 17.4C17.9999 17.5591 17.9366 17.7117 17.8241 17.8243C17.7116 17.9368 17.559 18 17.3999 18Z" fill="#959595"/>
<path d="M19.8 14.8C19.6408 14.7999 19.4882 14.7367 19.3757 14.6242C19.2632 14.5117 19.2 14.3591 19.2 14.2V11C19.2 10.8408 19.2632 10.6882 19.3757 10.5757C19.4882 10.4632 19.6408 10.4 19.8 10.4C19.9591 10.4 20.1117 10.4632 20.2242 10.5757C20.3367 10.6882 20.4 10.8408 20.4 11V14.2C20.3999 14.3591 20.3367 14.5117 20.2242 14.6242C20.1117 14.7367 19.9591 14.7999 19.8 14.8Z" fill="#959595"/>
<path d="M21.3999 13.2H18.1999C18.0407 13.2 17.8881 13.1368 17.7756 13.0243C17.6631 12.9117 17.5999 12.7591 17.5999 12.6C17.5999 12.4409 17.6631 12.2883 17.7756 12.1757C17.8881 12.0632 18.0407 12 18.1999 12H21.3999C21.559 12 21.7116 12.0632 21.8241 12.1757C21.9366 12.2883 21.9999 12.4409 21.9999 12.6C21.9999 12.7591 21.9366 12.9117 21.8241 13.0243C21.7116 13.1368 21.559 13.2 21.3999 13.2Z" fill="#959595"/>
</svg>
