<svg xmlns="http://www.w3.org/2000/svg" width="41" height="41" viewBox="0 0 41 41" fill="none">
  <path d="M30.1602 39.6233C29.8032 39.6086 29.5458 39.3583 29.5464 39.0221C29.547 38.6908 29.8155 38.4226 30.1467 38.4226H30.1602C32.4121 38.4226 34.5292 37.5452 36.1233 35.9511C37.7203 34.3541 38.5979 32.2356 38.5938 29.9858C38.5933 29.6542 38.8618 29.3851 39.193 29.3845H39.1942C39.5255 29.3845 39.794 29.6527 39.7945 29.984C39.7987 32.5551 38.7967 34.9759 36.9722 36.8001C35.1512 38.6211 32.7328 39.6233 30.1602 39.6233Z" fill="#E5E8F9"/>
  <path d="M30.161 36.5793C29.8333 36.5922 29.5507 36.3131 29.5513 35.9781C29.5519 35.6468 29.8204 35.3786 30.1516 35.3786C30.154 35.3789 30.1569 35.3786 30.161 35.3786C31.5991 35.3786 32.9517 34.8178 33.9706 33.7989C34.9914 32.7782 35.5524 31.4221 35.5507 29.9807C35.5501 29.6492 35.8186 29.3801 36.1504 29.3795C36.4817 29.3795 36.7508 29.6477 36.7514 29.979C36.7537 31.7416 36.0678 33.3999 34.8196 34.6481C33.5737 35.8937 31.9198 36.5793 30.161 36.5793Z" fill="#E5E8F9"/>
  <path d="M2.14821 11.6249C1.81696 11.6249 1.54845 11.3567 1.54786 11.0254C1.54434 8.44815 2.54688 6.02389 4.37138 4.19909C6.19588 2.37401 8.6436 1.37 11.1875 1.37674C11.5187 1.37733 11.7872 1.64672 11.7866 1.97827C11.7861 2.3104 11.5058 2.56103 11.1851 2.57745C11.1798 2.57745 11.1746 2.57745 11.1693 2.57745C8.92619 2.57745 6.81441 3.45452 5.22031 5.04803C3.62329 6.64564 2.74504 8.76767 2.74856 11.0237C2.74915 11.3552 2.48004 11.6243 2.14821 11.6249Z" fill="#E5E8F9"/>
  <path d="M5.19215 11.6199C4.8609 11.6199 4.59239 11.3517 4.5918 11.0204C4.58946 9.25779 5.27541 7.5998 6.52359 6.35161C7.76944 5.10606 9.42333 4.42041 11.1822 4.42041C11.5322 4.42686 11.7925 4.68687 11.7919 5.02164C11.7913 5.35289 11.5228 5.62111 11.1915 5.62111C11.1886 5.62081 11.1857 5.62111 11.1822 5.62111C9.74403 5.62111 8.39148 6.18188 7.37252 7.20084C6.35181 8.22155 5.79075 9.57761 5.7925 11.0187C5.79308 11.3502 5.52399 11.6193 5.19215 11.6199Z" fill="#E5E8F9"/>
  <path d="M13.6739 13.1804L17.8696 8.98465L14.3389 8.64367C12.45 8.46125 10.5785 9.1329 9.23664 10.4748L6.11206 13.5993C4.09514 15.6163 2.60872 18.101 1.78534 20.8319L1.61522 21.3961C0.593767 24.784 1.51763 28.4591 4.01971 30.9611L9.69519 36.6366C13.4464 40.3878 19.5283 40.3878 23.2796 36.6366L27.1014 32.8148L38.2945 21.6217C38.865 21.0511 39.1503 20.3027 39.1503 19.5555C39.1503 18.8083 38.865 18.0598 38.2945 17.4893C37.1533 16.3481 35.3032 16.3481 34.162 17.4893L36.8919 14.7594C37.4625 14.1888 37.7478 13.4404 37.7478 12.6931C37.7478 11.9459 37.4625 11.1975 36.8919 10.6269C35.7508 9.4858 33.9006 9.48581 32.7595 10.6269L34.6216 8.76483C35.1922 8.19426 35.4775 7.44583 35.4775 6.6986C35.4775 5.9834 35.2161 5.2671 34.6934 4.70671C33.5578 3.48927 31.5643 3.55479 30.3871 4.73201L28.6259 6.49328C29.1964 5.92271 29.4817 5.17429 29.4817 4.42706C29.4817 3.712 29.2205 2.99584 28.698 2.43551C27.5631 1.21841 25.5707 1.28362 24.3939 2.46035L12.4425 14.4118" fill="#FFCC33"/>
  <g opacity="0.5">
    <path d="M16.4742 35.9304C15.4685 35.9304 14.4581 35.6836 13.5407 35.1761C13.3953 35.0954 13.3423 34.912 13.423 34.7663C13.5031 34.6211 13.6862 34.5676 13.8328 34.6485C15.9602 35.8261 18.6469 35.4455 20.368 33.7247C20.4858 33.6069 20.6765 33.6069 20.7943 33.7247C20.9121 33.8424 20.9121 34.0332 20.7943 34.151C19.6261 35.3189 18.0569 35.9304 16.4742 35.9304Z" fill="white"/>
  </g>
  <g opacity="0.5">
    <path d="M12.9095 34.6974C12.8441 34.6974 12.7782 34.6762 12.7228 34.6326C12.5314 34.4816 12.3489 34.3194 12.1805 34.1507C12.0633 34.0326 12.0633 33.8418 12.1817 33.7244C12.2994 33.6072 12.4902 33.6066 12.608 33.725C12.7593 33.8769 12.9236 34.0229 13.0961 34.1592C13.2268 34.2623 13.2492 34.4519 13.1462 34.5826C13.0867 34.6579 12.9984 34.6974 12.9095 34.6974Z" fill="white"/>
  </g>
  <path d="M17.8663 8.98381L13.6759 13.1802L12.4452 14.411C12.163 14.1348 12.0249 13.7686 12.0249 13.4084C12.0249 13.0482 12.163 12.6819 12.4452 12.4058L16.0412 8.80371L17.8663 8.98381Z" fill="#FCB910"/>
  <path d="M36.0691 16.6443L27.8623 24.8511C27.7182 24.9951 27.5261 25.0672 27.334 25.0672C27.1419 25.0672 26.9497 24.9951 26.8057 24.8511L34.1599 17.4908C34.6883 16.9625 35.3727 16.6803 36.0691 16.6443Z" fill="#FCB910"/>
  <path d="M34.6705 9.77637L23.7321 20.7147C23.582 20.8648 23.3899 20.9369 23.1977 20.9369C23.0057 20.9369 22.8135 20.8648 22.6694 20.7147L32.7613 10.6289C33.2896 10.1005 33.974 9.81238 34.6705 9.77637Z" fill="#FCB910"/>
  <path d="M29.477 4.61328C29.4349 5.29765 29.1468 5.97004 28.6245 6.49234L18.5506 16.5962C18.2624 16.3081 18.2624 15.8278 18.5506 15.5396L29.477 4.61328Z" fill="#FCB910"/>
  <path d="M12.7204 23.7824C12.5627 23.7824 12.4055 23.7206 12.2871 23.5981C12.0579 23.3589 12.0655 22.9786 12.3047 22.7491C13.7253 21.3843 14.4329 19.9464 14.4065 18.4751C14.3643 16.1456 12.4894 14.443 12.47 14.426C12.2232 14.2056 12.2015 13.8262 12.4214 13.5788C12.6406 13.3326 13.0188 13.308 13.2674 13.5281C13.3606 13.6105 15.5486 15.581 15.6066 18.4408C15.6436 20.2645 14.8122 22.0054 13.136 23.6151C13.02 23.7267 12.8699 23.7824 12.7204 23.7824Z" fill="#FCB910"/>
  <g opacity="0.5">
    <path d="M21.4289 7.69956C21.3518 7.69956 21.2746 7.67012 21.2158 7.61124C21.098 7.49348 21.098 7.30271 21.2158 7.18495L23.9367 4.46405C24.0544 4.34629 24.2452 4.34629 24.363 4.46405C24.4807 4.58181 24.4807 4.77259 24.363 4.89035L21.6421 7.61124C21.5832 7.67012 21.506 7.69956 21.4289 7.69956Z" fill="white"/>
  </g>
  <g opacity="0.5">
    <path d="M20.1784 8.95011C20.1013 8.95011 20.0242 8.92066 19.9653 8.86179C19.8475 8.74432 19.8475 8.55325 19.9653 8.43549L20.3303 8.07013C20.4481 7.95237 20.6389 7.95237 20.7566 8.07013C20.8744 8.1876 20.8744 8.37867 20.7566 8.49643L20.3916 8.86179C20.3327 8.92067 20.2556 8.95011 20.1784 8.95011Z" fill="white"/>
  </g>
</svg>