<svg width="22" height="21" viewBox="0 0 22 21" fill="none" xmlns="http://www.w3.org/2000/svg">
<path d="M21.9694 7.07406L20.3002 1.49686C20.0322 0.601546 19.2238 0 18.2887 0H3.71129C2.7761 0 1.96771 0.601546 1.69979 1.49686L0.0306106 7.07406C-0.00526506 7.19396 -0.00969246 7.32112 0.0177848 7.44322C0.227196 8.37393 0.730551 9.22455 1.44368 9.86204V17.8323C1.44368 19.579 2.86574 21 4.61375 21H8.36325C8.76655 21 9.09354 20.6733 9.09354 20.2702V13.9643C9.09354 13.932 9.12294 13.9026 9.15521 13.9026H12.8449C12.8771 13.9026 12.9065 13.932 12.9065 13.9643V20.2702C12.9065 20.6733 13.2335 21 13.6368 21H17.3863C19.1343 21 20.5564 19.579 20.5564 17.8323V9.86204C21.2695 9.2245 21.7728 8.37388 21.9823 7.44327C22.0097 7.32112 22.0053 7.19396 21.9694 7.07406ZM3.09907 1.91501C3.18315 1.63401 3.41771 1.45946 3.71124 1.45946H18.2886C18.5821 1.45946 18.8168 1.63401 18.9008 1.91501L20.5121 7.29877C20.1297 8.62674 18.8865 9.5726 17.4889 9.5726C16.4242 9.5726 15.4397 9.0401 14.8554 8.14825C14.7205 7.94228 14.4907 7.81822 14.2444 7.81822C13.9981 7.81822 13.7683 7.94233 13.6334 8.14825C13.0491 9.04015 12.0646 9.5726 10.9999 9.5726C9.93516 9.5726 8.95068 9.0401 8.3664 8.14825C8.23148 7.94228 8.00171 7.81822 7.75537 7.81822C7.50904 7.81822 7.27927 7.94233 7.14435 8.14825C6.56007 9.04015 5.57559 9.5726 4.51087 9.5726C3.11327 9.5726 1.87008 8.62674 1.48764 7.29877L3.09907 1.91501ZM17.3863 19.5405H14.3671V13.9643C14.3671 13.1255 13.6842 12.4431 12.8448 12.4431H9.15516C8.31578 12.4431 7.63291 13.1255 7.63291 13.9643V19.5405H4.6137C3.67112 19.5405 2.90422 18.7742 2.90422 17.8323V10.7413C3.41538 10.9314 3.95986 11.0322 4.511 11.0322C5.74314 11.0322 6.90171 10.5455 7.75547 9.69711C8.60927 10.5455 9.76779 11.0322 10.9999 11.0322C12.2321 11.0322 13.3906 10.5455 14.2444 9.69711C15.0982 10.5455 16.2567 11.0322 17.4889 11.0322C18.04 11.0322 18.5845 10.9314 19.0956 10.7413V17.8323C19.0957 18.7742 18.3289 19.5405 17.3863 19.5405Z" fill="#959595"/>
</svg>
