<svg width="22" height="23" viewBox="0 0 22 23" fill="none" xmlns="http://www.w3.org/2000/svg">
<path d="M21.4238 6.54541C21.1207 6.22664 20.7448 5.98616 20.3283 5.84459C19.9118 5.70301 19.4672 5.66456 19.0326 5.73253V4.6325C19.0319 4.01225 18.7852 3.41761 18.3466 2.97902C17.908 2.54044 17.3133 2.29373 16.6931 2.29302H8.714C8.70009 1.6812 8.4477 1.09903 8.01065 0.670658C7.5736 0.242289 6.98648 0.00162729 6.37451 0H5.32065C4.70044 0.000770762 4.10586 0.247507 3.66734 0.686086C3.22881 1.12467 2.98215 1.71927 2.98145 2.33948V5.73255H2.35445C2.01726 5.73492 1.68446 5.80919 1.37825 5.95039C1.07205 6.09159 0.799474 6.29647 0.578729 6.55137C0.357983 6.80627 0.194142 7.10531 0.0981372 7.42855C0.00213276 7.75179 -0.023826 8.09179 0.0219928 8.42586L1.88476 20.9356C1.9701 21.4889 2.24993 21.9937 2.674 22.3593C3.09808 22.7249 3.6386 22.9273 4.19849 22.9302H17.799C18.3589 22.9273 18.8995 22.7249 19.3236 22.3593C19.7478 21.9938 20.0277 21.4889 20.1131 20.9356L21.9761 8.42246C22.0241 8.08828 21.9996 7.74769 21.9043 7.42382C21.809 7.09995 21.6451 6.80036 21.4238 6.54541ZM4.12796 2.33948C4.12825 2.02323 4.254 1.72 4.4776 1.49635C4.7012 1.2727 5.00439 1.14688 5.32065 1.14651H6.37451C6.68975 1.14713 6.99198 1.27225 7.21541 1.49463C7.43884 1.71701 7.56539 2.01865 7.56749 2.33389V2.86627C7.56747 2.94156 7.58228 3.01611 7.61108 3.08567C7.63989 3.15523 7.68211 3.21843 7.73535 3.27167C7.78858 3.32491 7.85178 3.36713 7.92134 3.39593C7.9909 3.42473 8.06546 3.43955 8.14074 3.43953H16.6931C17.0094 3.43989 17.3126 3.5657 17.5363 3.78934C17.7599 4.01299 17.8857 4.31622 17.8861 4.6325V5.73255H4.12796V2.33948ZM20.8417 8.25679L18.9788 20.7665C18.9354 21.0487 18.7927 21.3062 18.5765 21.4926C18.3602 21.6791 18.0845 21.7823 17.799 21.7837H4.19849C3.91301 21.7822 3.6374 21.679 3.4212 21.4925C3.205 21.3061 3.06238 21.0487 3.01895 20.7665L1.15645 8.26013C1.13204 8.08852 1.14478 7.91367 1.19379 7.7474C1.24279 7.58114 1.32694 7.42734 1.44052 7.2964C1.5541 7.16546 1.69448 7.06044 1.85215 6.98844C2.00983 6.91644 2.18113 6.87914 2.35446 6.87906H19.6433C19.816 6.88038 19.9864 6.91839 20.1433 6.99058C20.3001 7.06276 20.4398 7.16746 20.5531 7.29774C20.6665 7.42802 20.7508 7.5809 20.8005 7.74624C20.8503 7.91158 20.8643 8.08561 20.8417 8.25679ZM13.2919 9.18833H8.70586C8.4019 9.18867 8.11048 9.30958 7.89554 9.52452C7.68061 9.73945 7.5597 10.0309 7.55935 10.3348V18.9012C7.56108 19.0138 7.59572 19.1234 7.659 19.2165C7.72228 19.3097 7.81143 19.3823 7.91547 19.4254C8.01951 19.4684 8.13388 19.4801 8.24448 19.459C8.35509 19.4379 8.4571 19.3849 8.53793 19.3065L10.9989 16.8455L13.4599 19.3065C13.5407 19.3849 13.6427 19.438 13.7533 19.4592C13.8639 19.4803 13.9783 19.4686 14.0824 19.4255C14.1864 19.3824 14.2756 19.3098 14.3389 19.2166C14.4021 19.1234 14.4367 19.0138 14.4384 18.9011V10.3348C14.4381 10.0309 14.3172 9.73945 14.1022 9.52452C13.8873 9.30958 13.5959 9.18867 13.2919 9.18833ZM13.2919 17.5173L11.4042 15.6296C11.351 15.5763 11.2878 15.5341 11.2182 15.5053C11.1487 15.4765 11.0741 15.4616 10.9989 15.4616C10.9236 15.4616 10.849 15.4765 10.7795 15.5053C10.71 15.5341 10.6468 15.5763 10.5935 15.6296L8.70586 17.5173V10.3348H13.2919V17.5173Z" fill="#959595"/>
</svg>
