<svg width="28" height="28" viewBox="0 0 28 28" fill="none" xmlns="http://www.w3.org/2000/svg">
<path d="M22.6273 6.59734C22.7035 6.68283 22.8101 6.73508 22.9243 6.74287C23.0385 6.75066 23.1512 6.71338 23.2383 6.63902C23.3253 6.56466 23.3797 6.45916 23.3899 6.34513C23.4 6.2311 23.3651 6.11764 23.2925 6.02908C18.6117 0.362383 9.3877 0.362799 4.70735 6.02925C4.63462 6.11779 4.59952 6.23133 4.60961 6.34546C4.6197 6.4596 4.67416 6.56522 4.7613 6.63963C4.84843 6.71404 4.96128 6.75129 5.07558 6.74338C5.18989 6.73546 5.29653 6.68302 5.37259 6.59732C9.71857 1.33677 18.2819 1.33732 22.6273 6.59734Z" fill="white"/>
<path d="M8.27907 6.26387C8.18842 6.33395 8.12887 6.4368 8.11323 6.55031C8.09759 6.66382 8.1271 6.77894 8.19542 6.87093C8.26375 6.96292 8.36543 7.02443 8.47862 7.04225C8.59181 7.06008 8.70748 7.03279 8.80076 6.96624C10.3068 5.85581 12.1288 5.25673 13.9999 5.25674C15.8711 5.25675 17.693 5.85585 19.1991 6.96631C19.2924 7.03265 19.4079 7.05979 19.521 7.04189C19.6341 7.024 19.7357 6.96249 19.8039 6.87058C19.8722 6.77866 19.9017 6.66365 19.8861 6.55023C19.8706 6.4368 19.8112 6.33399 19.7207 6.26386C18.0637 5.04174 16.0588 4.38238 13.9999 4.38239C11.9409 4.38239 9.93609 5.04175 8.27907 6.26387Z" fill="white"/>
<path d="M14 23.625C15.4515 23.6279 16.8847 23.3006 18.191 22.6678C19.4974 22.035 20.6426 21.1133 21.54 19.9724C21.6094 19.8812 21.6402 19.7664 21.6258 19.6528C21.6115 19.5391 21.5531 19.4356 21.4633 19.3644C21.3735 19.2933 21.2593 19.2602 21.1454 19.2723C21.0315 19.2844 20.9268 19.3406 20.8539 19.429C17.4981 23.829 10.5015 23.8285 7.14612 19.4289C7.07316 19.3406 6.96849 19.2844 6.85457 19.2724C6.74066 19.2603 6.62656 19.2934 6.53678 19.3646C6.44699 19.4357 6.38866 19.5392 6.3743 19.6528C6.35995 19.7665 6.39071 19.8812 6.45998 19.9725C7.35742 21.1133 8.50265 22.035 9.80897 22.6678C11.1153 23.3006 12.5485 23.6279 14 23.625Z" fill="white"/>
<path d="M1.98103 15.1237C1.82718 15.416 1.75097 15.743 1.75971 16.0733C1.76845 16.4035 1.86184 16.726 2.03094 17.0098C2.20004 17.2936 2.43918 17.5293 2.72546 17.6942C3.01174 17.8591 3.33556 17.9477 3.66592 17.9516L8.53423 17.9516C8.53256 18.2404 8.58781 18.5266 8.69682 18.794C8.80583 19.0614 8.96647 19.3047 9.16955 19.51C9.37263 19.7153 9.61418 19.8786 9.88038 19.9905C10.1466 20.1024 10.4322 20.1607 10.721 20.1622L17.2792 20.1622C17.5683 20.162 17.8546 20.1045 18.1213 19.9931C18.3881 19.8816 18.6302 19.7184 18.8335 19.5129C19.0369 19.3073 19.1974 19.0635 19.306 18.7955C19.4145 18.5276 19.4689 18.2407 19.466 17.9516H24.3343C24.6647 17.9477 24.9885 17.8591 25.2748 17.6942C25.5611 17.5293 25.8002 17.2936 25.9693 17.0098C26.1384 16.726 26.2318 16.4035 26.2405 16.0732C26.2492 15.743 26.173 15.416 26.0191 15.1237C25.421 14.0155 24.4306 13.1708 23.2421 12.7548C23.5743 12.499 23.8434 12.1704 24.0287 11.7942C24.214 11.418 24.3105 11.0044 24.3109 10.585C24.1804 6.94965 18.9467 6.94953 18.8169 10.5851C18.8172 11.0045 18.9138 11.4182 19.0991 11.7944C19.2845 12.1706 19.5537 12.4993 19.886 12.7551C18.8137 13.1328 17.9005 13.8619 17.2947 14.8239C16.8408 14.5191 16.3467 14.2789 15.8266 14.1103C16.2418 13.8181 16.5808 13.4305 16.8149 12.98C17.049 12.5295 17.1714 12.0293 17.1718 11.5216C17.0236 7.32529 10.9771 7.32361 10.8285 11.5216C10.8288 12.0293 10.9512 12.5295 11.1853 12.98C11.4194 13.4305 11.7584 13.8181 12.1736 14.1103C11.6533 14.279 11.1589 14.5193 10.7049 14.8243C10.098 13.8633 9.18533 13.1345 8.11379 12.7554C8.44624 12.4996 8.71555 12.1709 8.90097 11.7946C9.0864 11.4183 9.18299 11.0045 9.18332 10.585C9.05736 6.95314 3.81785 6.94762 3.68936 10.5851C3.6897 11.0044 3.78622 11.418 3.9715 11.7942C4.15679 12.1703 4.4259 12.499 4.75812 12.7548C3.56955 13.1708 2.57916 14.0156 1.98103 15.1237ZM19.6919 10.5851C19.6966 10.0917 19.8959 9.6201 20.2465 9.27288C20.597 8.92566 21.0705 8.73088 21.5639 8.73089C22.0573 8.73089 22.5307 8.92569 22.8813 9.27291C23.2318 9.62014 23.4311 10.0917 23.4358 10.5851C23.4311 11.0785 23.2318 11.5501 22.8813 11.8973C22.5307 12.2445 22.0572 12.4393 21.5638 12.4393C21.0704 12.4393 20.597 12.2445 20.2464 11.8972C19.8959 11.55 19.6966 11.0784 19.6919 10.5851ZM21.5608 13.3319C22.3176 13.3313 23.0604 13.5362 23.7098 13.9248C24.3593 14.3134 24.8911 14.871 25.2484 15.5381C25.3323 15.697 25.3739 15.8747 25.3694 16.0542C25.3648 16.2338 25.3142 16.4091 25.2225 16.5635C25.1308 16.7179 25.0009 16.8462 24.8454 16.936C24.6899 17.0259 24.5139 17.0743 24.3343 17.0766H19.2715C18.9567 16.429 18.5203 15.848 17.986 15.3652C18.3564 14.7473 18.8801 14.2354 19.5063 13.8791C20.1326 13.5229 20.8403 13.3344 21.5608 13.3319ZM11.7034 11.5216C11.8 8.48643 16.2007 8.48713 16.2968 11.5216C16.2003 14.557 11.7995 14.5563 11.7034 11.5216ZM18.4339 17.3449C18.5398 17.5455 18.5925 17.7699 18.5868 17.9967C18.5811 18.2235 18.5173 18.445 18.4013 18.6399C18.2854 18.8349 18.1213 18.9969 17.9248 19.1102C17.7283 19.2235 17.506 19.2845 17.2792 19.2872L10.721 19.2872C10.4933 19.2867 10.2696 19.2272 10.0718 19.1144C9.87405 19.0016 9.70891 18.8394 9.59256 18.6437C9.47621 18.448 9.41263 18.2254 9.40804 17.9978C9.40345 17.7701 9.458 17.5452 9.56636 17.345C11.3999 13.835 16.6008 13.8353 18.4339 17.3449ZM4.56437 10.585C4.56903 10.0916 4.76831 9.61999 5.11887 9.27272C5.46943 8.92546 5.94293 8.73064 6.43637 8.73065C6.92982 8.73065 7.40331 8.92548 7.75386 9.27275C8.10442 9.62003 8.30369 10.0917 8.30833 10.5851C8.30368 11.0785 8.1044 11.5501 7.75384 11.8974C7.40327 12.2447 6.92978 12.4395 6.43633 12.4395C5.94289 12.4395 5.4694 12.2447 5.11884 11.8974C4.76829 11.5501 4.56902 11.0785 4.56437 10.585ZM6.43227 13.3318C7.15384 13.3338 7.86268 13.5221 8.49016 13.8784C9.11763 14.2347 9.64249 14.7469 10.0139 15.3656C9.47978 15.8483 9.04345 16.4291 8.7287 17.0766H3.66588C3.48629 17.0743 3.31031 17.0259 3.1548 16.936C2.99928 16.8462 2.86944 16.7179 2.77771 16.5635C2.68597 16.4091 2.63542 16.2337 2.63088 16.0542C2.62635 15.8746 2.66798 15.6969 2.75181 15.5381C3.10858 14.872 3.63923 14.3151 4.28731 13.9266C4.93539 13.5381 5.67666 13.3326 6.43227 13.3318Z" fill="white"/>
</svg>
